<ttFont>
          <CharString index="0">
            rmoveto
            -35 callgsubr
            -78 15 2 19 36 103 rlineto
            229 hlineto
            38 -102 3 -20 -74 -15 rlineto
            -47 260 47 vlineto
            -66 15 -226 592 rlineto
            -70 -34 callgsubr
            rlineto
            329 186 rmoveto
            -186 hlineto
            85 242 5 20 3 -3 4 -15 rlineto
            return
          </CharString>
          <CharString index="1">
            rmoveto
            -47 479 174 -54 vlineto
            -24 -111 rlineto
            -127 hlineto
            -30 -37 3 4 -22 hvcurveto
            231 141 vlineto
            17 -65 rlineto
            45 186 -45 hlineto
            -17 -62 rlineto
            -141 220 hlineto
            82 7 rlineto
            126 hlineto
            22 -110 rlineto
            55 171 -470 -47 hlineto
            -59 callgsubr
            return
          </CharString>
          <CharString index="2">
            rmoveto
            132 112 60 98 75 -57 26 -92 17 hvcurveto
            -109 20 rlineto
            51 13 vlineto
            106 88 66 98 29 -8 37 -22 30 hvcurveto
            17 10 -5 -5 17 hvcurveto
            32 -10 rlineto
            8 7 17 19 25 vvcurveto
            29 -16 16 -30 -38 -46 -37 -5 -7 vhcurveto
            19 -26 -36 11 -47 hhcurveto
            -112 -87 -68 -105 -63 35 -63 87 -19 hvcurveto
            -24 -15 -26 -26 -28 vvcurveto
            -21 8 -18 10 -11 vhcurveto
            -37 -20 -69 -39 -64 vvcurveto
            -80 89 -31 108 vhcurveto
            6 410 rmoveto
            -60 -28 26 70 73 23 29 68 65 21 -33 -64 -81 -31 -20 -58 hvcurveto
            16 -353 rmoveto
            -90 -35 20 48 34 26 35 24 20 hvcurveto
            143 -25 rlineto
            54 -10 10 -24 -25 vvcurveto
            -43 -45 -30 -87 vhcurveto
            endchar
          </CharString>
          <CharString index="3">
            rmoveto
            56 2 -2 13 5 7 26 9 rlinecurve
            37 14 18 23 28 vvcurveto
            48 -49 25 -80 -54 -12 -13 -19 -9 3 -11 9 -14 vhcurveto
            5 20 22 3 19 hhcurveto
            32 13 -7 -13 -15 -10 -9 -22 -9 hvcurveto
            -27 -12 -11 -11 -14 vvcurveto
            -6 2 -7 5 -8 vhcurveto
            return
          </CharString>
          <CharString index="4">
            rmoveto
            54 7 rlineto
            -1 2 0 2 2 vvcurveto
            12 4 7 26 12 vhcurveto
            36 18 19 20 29 vvcurveto
            53 -49 28 -80 -55 -11 -13 -19 -9 2 -10 10 -15 vhcurveto
            5 20 22 3 18 hhcurveto
            33 13 -8 -17 -16 -11 -8 -21 -12 hvcurveto
            -28 -14 -11 -11 -16 vvcurveto
            -9 4 -10 6 -13 vhcurveto
            return
          </CharString>
          <CharString index="5">
            rmoveto
            29 -35 116 80 118 -81 37 39 -107 109 rlineto
            15 -15 -13 8 -12 hhcurveto
            -14 -48 callsubr
            return
          </CharString>
          <CharString index="6">
            -52 callgsubr
            16 callgsubr
            vhcurveto
            -58 callsubr
            -34 -67 -117 -89 callgsubr
            return
          </CharString>
          <CharString index="7">
            rmoveto
            15 callgsubr
            14 callsubr
            hvcurveto
            endchar
          </CharString>
          <CharString index="8">
            252 46 callgsubr
            360 vlineto
            7 26 38 4 30 hhcurveto
            70 40 callgsubr
            -291 vlineto
            -75 -14 rlineto
            -45 250 45 vlineto
            -78 14 rlineto
            308 vlineto
            90 -48 49 -86 -63 -71 -35 -15 -23 vhcurveto
            -3 4 -14 38 -156 40 callsubr
            79 -15 rlineto
            -351 vlineto
            -79 -14 rlineto
            return
          </CharString>
          <CharString index="9">
            rmoveto
            -51 vlineto
            67 -10 -1 -12 -95 -253 -12 -41 -5 31 -98 263 -1 14 66 9 rlineto
            50 -237 -47 vlineto
            62 -15 165 -419 -42 -99 -122 -30 rlineto
            -43 vlineto
            -6 21 33 -4 23 hhcurveto
            63 34 19 42 17 hvcurveto
            206 540 57 14 rlineto
            48 vlineto
            return
          </CharString>
          <CharString index="10">
            rmoveto
            106 120 51 148 117 -85 41 -91 36 hvcurveto
            -77 29 -71 21 73 vvcurveto
            54 24 37 95 56 40 -19 -2 7 vhcurveto
            19 -98 rlineto
            55 161 hlineto
            10 -26 -81 15 -69 hhcurveto
            -136 -84 -75 -111 -129 103 -31 91 -34 hvcurveto
            83 -34 49 -22 -67 vvcurveto
            -75 -38 -31 -95 -39 -51 17 23 -28 vhcurveto
            -17 101 rlineto
            -59 -153 hlineto
            -24 29 80 -29 90 hhcurveto
            return
          </CharString>
          <CharString index="11">
            rmoveto
            105 64 67 0 hvcurveto
            -16 33 rlineto
            0 -42 -24 -80 -112 -37 72 92 -1 -13 callsubr
            36 12 17 71 91 -45 96 -129 -132 -95 -107 -163 -151 74 -94 149 -32 callgsubr
            29 59 79 hhcurveto
            71 17 -26 callsubr
          </CharString>
          <CharString index="12">
            rmoveto
            -94 callsubr
            -34 -29 -34 -35 -27 vhcurveto
            80 -48 -83 46 -112 hhcurveto
            -206 -118 -153 -196 -206 105 -122 196 -63 callsubr
            65 -11 57 -21 47 hvcurveto
            93 62 29 52 38 vvcurveto
            -384 -608 -54 callsubr
          </CharString>
          <CharString index="13">
            41 -22 13 -10 8 vhcurveto
            -61 -42 rlineto
            -15 vlineto
            12 -8 7 -8 -16 vvcurveto
            return
          </CharString>
          <CharString index="14">
            rmoveto
            -94 callsubr
            -27 -18 -26 -23 -23 vhcurveto
            66 -34 -62 39 -94 -36 callgsubr
            163 75 125 149 38 -5 35 -9 30 hvcurveto
            77 56 24 47 35 vvcurveto
            -306 -451 -45 callgsubr
          </CharString>
          <CharString index="15">
            86 -27 rlineto
            -7 26 27 -8 21 hhcurveto
            27 23 13 24 15 hvcurveto
            31 52 -26 24 -70 -36 -86 27 rlineto
            7 -31 callsubr
            -24 -13 -24 -15 hvcurveto
            return
          </CharString>
          <CharString index="16">
            -30 callsubr
            182 vlineto
            186 340 32 callgsubr
            -222 -45 vlineto
            77 -16 rlineto
            -15 vlineto
            -136 -263 rlineto
            -13 hlineto
            -138 261 rlineto
            17 vlineto
            72 16 rlineto
            45 -252 -45 vlineto
            63 -16 196 -350 rlineto
            -173 vlineto
            return
          </CharString>
          <CharString index="17">
            rmoveto
            -48 266 48 vlineto
            -86 callgsubr
            return
          </CharString>
          <CharString index="18">
            rmoveto
            -22 callsubr
            47 1 -17 32 -28 hhcurveto
            -13 -15 -48 callgsubr
            rlineto
            return
          </CharString>
          <CharString index="19">
            hmoveto
            -72 callgsubr
            return
          </CharString>
          <CharString index="20">
            566 rmoveto
            -31 callgsubr
            24 -37 -39 -29 -33 -39 -16 callsubr
            return
          </CharString>
          <CharString index="21">
            rmoveto
            66 hlineto
            114 381 119 -381 rlineto
            67 hlineto
            143 437 60 17 rlineto
            47 -198 -50 vlineto
            66 -10 -1 -14 -78 -248 -10 -51 -8 44 -92 329 rlineto
            -103 hlineto
            -95 -322 -9 -51 -9 44 -82 258 rlineto
            11 vlineto
            67 10 rlineto
            50 -233 -47 vlineto
            58 -15 rlineto
            endchar
          </CharString>
          <CharString index="22">
            677 rmoveto
            22 -12 -9 27 -27 hhcurveto
            -16 -22 -15 -35 -19 hvcurveto
            130 -142 35 25 rlineto
            105 118 rmoveto
            22 -12 -10 27 -26 hhcurveto
            -16 -23 -15 -35 -19 hvcurveto
            130 -142 36 25 rlineto
            return
          </CharString>
          <CharString index="23">
            401 hlineto
            -10 145 rlineto
            -51 hlineto
            -16 -86 rlineto
            -200 hlineto
            3 16 254 344 -62 callgsubr
            return
          </CharString>
          <CharString index="24">
            -14 34 rlineto
            0 -47 -19 -63 -108 -46 50 136 132 30 56 92 35 22 -10 0 vhcurveto
            17 -95 rlineto
            0 11 -7 22 41 15 26 25 69 -60 57 -100 -137 -92 -108 -162 -163 85 -82 134 return
          </CharString>
          <CharString index="25">
            675 rmoveto
            30 31 -85 105 rlineto
            23 -18 -13 9 -16 hhcurveto
            -21 -20 -22 -42 -8 hvcurveto
            337 -104 rmoveto
            30 31 -85 105 rlineto
            23 -18 -13 9 -17 hhcurveto
            -20 -20 -22 -42 -9 hvcurveto
            return
          </CharString>
          <CharString index="26">
            rmoveto
            -154 vlineto
            -5 7 52 -24 72 hhcurveto
            111 47 44 85 hvcurveto
            470 vlineto
            75 16 rlineto
            48 -269 -48 vlineto
            91 -17 rlineto
            -478 vlineto
            -33 -12 -27 -46 -26 -19 10 0 vhcurveto
            -28 113 rlineto
            endchar
          </CharString>
          <CharString index="27">
            42 vlineto
            -72 14 rlineto
            312 vlineto
            75 -49 46 return
          </CharString>
          <CharString index="28">
            218 46 hlineto
            -73 17 rlineto
            432 7 vlineto
            10 -17 304 -478 -68 callgsubr
            -11 18 -299 474 -56 callsubr
            return
          </CharString>
          <CharString index="29">
            814 rmoveto
            -31 -49 26 -24 70 34 86 -26 rlineto
            -7 26 27 -7 21 hhcurveto
            27 23 12 23 15 hvcurveto
            31 50 -26 23 -70 -34 -86 26 rlineto
            6 -31 callsubr
            -24 -12 -23 -15 hvcurveto
            -7 -236 -102 callsubr
            return
          </CharString>
          <CharString index="30">
            23 40 -135 98 rlineto
            11 -17 -16 11 -12 hhcurveto
            -28 -18 -31 -48 2 hvcurveto
            return
          </CharString>
          <CharString index="31">
            175 -117 30 -70 callsubr
            return
          </CharString>
          <CharString index="32">
            -60 callgsubr
            -27 -24 -45 -8 hvcurveto
            return
          </CharString>
          <CharString index="33">
            81 16 rlineto
            48 -266 -48 vlineto
            81 -17 callsubr
            return
          </CharString>
          <CharString index="34">
            44 callsubr
            34 hvcurveto
            return
          </CharString>
          <CharString index="35">
            -306 vlineto
            -200 49 -93 194 return
          </CharString>
          <CharString index="36">
            693 rmoveto
            64 26 rlineto
            0 -21 111 -136 -116 -33 -120 0 vhcurveto
            35 -15 rlineto
            0 30 64 82 71 24 -66 0 vhcurveto
            return
          </CharString>
          <CharString index="37">
            34 -75 callsubr
            return
          </CharString>
          <CharString index="38">
            267 47 hlineto
            -82 18 rlineto
            205 73 vlineto
            133 -239 rlineto
            -22 12 20 -9 24 hhcurveto
            115 47 hlineto
            -70 18 -134 226 rlineto
            70 28 69 47 115 vvcurveto
            121 -88 46 -126 vhcurveto
            -283 -47 hlineto
            -59 callgsubr
            -82 -18 rlineto
            185 285 rmoveto
            249 vlineto
            2 20 30 2 23 hhcurveto
            67 62 -18 -98 -85 -60 -52 -89 hvcurveto
            return
          </CharString>
          <CharString index="39">
            rmoveto
            74 38 32 52 hvcurveto
            569 vlineto
            -28 11 -150 40 callsubr
            81 -15 rlineto
            -497 vlineto
            -107 -25 rlineto
            -42 vlineto
            0 39 -12 53 vhcurveto
            endchar
          </CharString>
          <CharString index="40">
            rmoveto
            -45 266 47 vlineto
            -81 callgsubr
            return
          </CharString>
          <CharString index="41">
            -55 callgsubr
            17 -77 rlineto
            47 hlineto
            12 131 rlineto
            8 -18 -64 16 -63 hhcurveto
            -108 -81 -47 -99 hvcurveto
            -196 262 88 -120 vvcurveto
            -49 -20 -32 -78 -45 -29 return
          </CharString>
          <CharString index="42">
            rmoveto
            -92 -6 rlineto
            -105 -7 -73 -52 -91 vvcurveto
            -66 41 -60 103 91 56 34 30 32 vhcurveto
            -43 35 54 -22 76 hhcurveto
            105 60 58 0 hvcurveto
            -12 36 rlineto
            0 -53 -18 -89 -112 -14 77 80 vhcurveto
            261 7 rlineto
            23 1 12 10 33 vvcurveto
            132 -37 99 -142 -56 -49 -21 -38 -35 vhcurveto
            37 -23 -44 22 -59 hhcurveto
            -63 -145 -40 -87 -38 21 -11 30 23 14 8 0 hvcurveto
            20 88 rlineto
            0 21 7 35 63 27 -27 -55 vhcurveto
            299 -59 rmoveto
            -194 -12 rlineto
            85 1 23 70 82 hhcurveto
            68 23 -23 -82 -13 -1 -13 -2 -12 hvcurveto
            -299 -73 rmoveto
            -134 vlineto
            -3 -5 -34 -20 -41 hhcurveto
            -62 -24 35 40 56 43 22 123 4 hvcurveto
            endchar
          </CharString>
          <CharString index="43">
            254 46 callgsubr
            360 vlineto
            6 27 40 6 26 hhcurveto
            68 30 -21 -60 -7 callsubr
            102 -61 36 -74 -51 -65 -25 -26 -39 vhcurveto
            -1 6 3 8 rlineto
            221 vlineto
            -28 24 callgsubr
            81 -15 rlineto
            -557 vlineto
            -81 -14 rlineto
            return
          </CharString>
          <CharString index="44">
            214 100 154 198 return
          </CharString>
          <CharString index="45">
            670 rmoveto
            33 13 -8 -17 -16 -11 -8 -21 -12 hvcurveto
            -28 -14 -11 -11 -16 vvcurveto
            -9 4 -10 6 -13 vhcurveto
            54 7 rlineto
            -1 2 0 2 2 vvcurveto
            12 4 7 26 12 vhcurveto
            36 18 19 20 29 vvcurveto
            53 -49 28 -80 -55 -11 -13 -19 -9 2 -10 10 -15 vhcurveto
            5 20 22 3 18 hhcurveto
            return
          </CharString>
          <CharString index="46">
            39 23 -18 callsubr
            -23 return
          </CharString>
          <CharString index="47">
            -45 callsubr
            -16 hvcurveto
            return
          </CharString>
          <CharString index="48">
            rmoveto
            39 callsubr
            hvcurveto
            -58 callsubr
            -33 -67 -118 -28 callgsubr
          </CharString>
          <CharString index="49">
            305 -11 callsubr
            49 -238 -49 vlineto
            81 -16 rlineto
            -305 vlineto
            -153 return
          </CharString>
          <CharString index="50">
            rmoveto
            -30 -70 65 -28 30 71 rlineto
            -8 31 33 -5 37 hhcurveto
            -63 callsubr
            140 -52 102 -93 50 hvcurveto
            28 63 -63 28 -30 -67 rlineto
            5 -25 -27 4 -29 hhcurveto
            -206 -118 -153 -196 -137 46 -99 89 -52 hvcurveto
            241 561 rmoveto
            -204 -473 rlineto
            -34 43 -18 69 100 vvcurveto
            236 80 34 109 24 23 -3 -6 20 vhcurveto
            -147 -519 rmoveto
            207 481 rlineto
            38 -40 21 -71 -121 vvcurveto
            -176 -50 -90 -124 -35 -31 5 12 -26 vhcurveto
            endchar
          </CharString>
          <CharString index="51">
            rlineto
            -170 -49 hlineto
            65 -14 rlineto
            -522 vlineto
            -73 -17 rlineto
            return
          </CharString>
          <CharString index="52">
            -19 -31 vvcurveto
            -33 -9 -30 -7 -21 vhcurveto
            endchar
          </CharString>
          <CharString index="53">
            rmoveto
            -133 -68 74 201 236 80 34 109 113 73 -55 -224 -176 -50 -90 -124 hvcurveto
            endchar
          </CharString>
          <CharString index="54">
            -18 callgsubr
            -25 return
          </CharString>
          <CharString index="55">
            -51 callsubr
            vlineto
            return
          </CharString>
          <CharString index="56">
            38 rlineto
            0 -40 -14 -38 -33 -19 8 46 vhcurveto
            313 127 vlineto
            14 27 rlineto
            33 -141 119 -67 vlineto
            -30 -109 -83 -21 rlineto
            -49 return
          </CharString>
          <CharString index="57">
            27 -29 callsubr
            36 76 -51 callgsubr
            return
          </CharString>
          <CharString index="58">
            693 -19 callsubr
            -39 -39 25 -28 37 hvcurveto
            return
          </CharString>
          <CharString index="59">
            -17 -11 -18 -18 hvcurveto
            return
          </CharString>
          <CharString index="60">
            -4 callgsubr
            57 46 67 vvcurveto
            26 -14 29 -38 -17 -17 -50 callgsubr
          </CharString>
          <CharString index="61">
            -95 callgsubr
            endchar
          </CharString>
          <CharString index="62">
            24 -19 hhcurveto
            -16 -14 -15 -18 return
          </CharString>
          <CharString index="63">
            -94 rlineto
            -19 19 19 -17 15 hhcurveto
            return
          </CharString>
          <CharString index="64">
            10 hvcurveto
            -149 vlineto
            -2 -4 -34 -16 -42 hhcurveto
            endchar
          </CharString>
          <CharString index="65">
            18 45 rmoveto
            -45 249 45 vlineto
            -72 14 rlineto
            181 42 vlineto
            110 -194 rlineto
            5 -7 3 -9 -12 vvcurveto
            -18 176 45 vlineto
            -83 20 -131 226 113 144 64 return
          </CharString>
          <CharString index="66">
            -68 callgsubr
            -11 20 -299 472 0 callsubr
          </CharString>
          <CharString index="67">
            195 55 47 rmoveto
            -47 292 vlineto
            193 129 131 200 206 -110 111 -195 hvcurveto
            -309 -47 hlineto
            82 -18 rlineto
            -218 -85 -63 85 -237 vlineto
            102 1 rmoveto
            236 159 63 -159 215 vlineto
            3 30 29 2 33 hhcurveto
            142 77 -65 -188 -201 -61 -72 -169 -33 -27 2 5 -21 hvcurveto
            endchar
          </CharString>
          <CharString index="68">
            hlineto
            -84 8 rlineto
            513 vlineto
            88 16 rlineto
            50 -273 -47 vlineto
            -59 callgsubr
            return
          </CharString>
          <CharString index="69">
            -18 -50 callgsubr
          </CharString>
          <CharString index="70">
            -76 14 rlineto
            630 vlineto
            -27 24 callgsubr
            80 -15 rlineto
            -557 vlineto
            return
          </CharString>
          <CharString index="71">
            rmoveto
            -11 -65 rlineto
            336 hlineto
            11 65 rlineto
            return
          </CharString>
          <CharString index="72">
            6 callsubr
            vhcurveto
            endchar
          </CharString>
          <CharString index="73">
            rmoveto
            -21 -107 rlineto
            -3 -6 -38 -30 -83 hhcurveto
            -125 -68 91 177 197 51 79 139 69 50 -15 -2 7 hvcurveto
            21 -109 rlineto
            56 164 hlineto
            16 -43 -68 13 -88 hhcurveto
            -191 -123 -158 -188 -212 96 -117 201 120 61 27 17 39 hvcurveto
            160 vlineto
            endchar
          </CharString>
          <CharString index="74">
            -82 16 rlineto
            242 27 vlineto
            185 -272 rlineto
            -26 17 13 -8 33 hhcurveto
            111 48 hlineto
            -69 17 -205 292 190 229 61 14 rlineto
            48 -213 -47 vlineto
            55 -12 rlineto
            -13 vlineto
            -179 -218 rlineto
            -26 226 hlineto
            26 callsubr
            return
          </CharString>
          <CharString index="75">
            -48 266 -8 callsubr
            return
          </CharString>
          <CharString index="76">
            -25 -28 8 -20 hhcurveto
            -27 return
          </CharString>
          <CharString index="77">
            rmoveto
            -32 callsubr
            return
          </CharString>
          <CharString index="78">
            223 -10 -71 callgsubr
            return
          </CharString>
          <CharString index="79">
            -52 callgsubr
            39 callsubr
            vhcurveto
            -58 callsubr
            -1 -32 -67 -118 hhcurveto
            -132 -35 44 176 hvcurveto
            29 callsubr
          </CharString>
          <CharString index="80">
            rmoveto
            -42 vlineto
            0 39 -12 53 74 38 32 52 vhcurveto
            569 vlineto
            -28 11 -150 40 callsubr
            81 -15 rlineto
            -497 vlineto
            endchar
          </CharString>
          <CharString index="81">
            -40 -72 -13 -1 -13 -2 -12 hvcurveto
            endchar
          </CharString>
          <CharString index="82">
            4 8 12 3 10 hhcurveto
            19 25 -7 -18 66 hvcurveto
            18 7 14 24 21 vvcurveto
            34 -23 18 -43 -114 -84 -84 -119 -5 vhcurveto
            return
          </CharString>
          <CharString index="83">
            rmoveto
            253 -27 callgsubr
            -80 -14 rlineto
            endchar
          </CharString>
          <CharString index="84">
            21 rlineto
            44 vlineto
            -74 16 rlineto
            return
          </CharString>
          <CharString index="85">
            201 81 rlineto
            return
          </CharString>
          <CharString index="86">
            rmoveto
            43 24 35 38 40 -24 24 -37 -39 -28 -33 -38 -39 25 -27 36 hvcurveto
            endchar
          </CharString>
          <CharString index="87">
            -51 callgsubr
            endchar
          </CharString>
          <CharString index="88">
            rmoveto
            -31 callgsubr
            25 -37 -39 -29 -34 return
          </CharString>
          <CharString index="89">
            31 36 37 return
          </CharString>
          <CharString index="90">
            -16 rlineto
            -520 vlineto
            return
          </CharString>
          <CharString index="91">
            -40 25 -27 37 hvcurveto
            return
          </CharString>
          <CharString index="92">
            740 rmoveto
            85 -28 rlineto
            -8 31 callgsubr
            25 24 7 28 19 hvcurveto
            37 50 -28 29 -77 -37 -86 28 rlineto
            8 -24 -22 5 -20 hhcurveto
            -26 -23 -7 -28 -20 hvcurveto
            -36 -50 28 -29 rlineto
            return
          </CharString>
          <CharString index="93">
            349 rmoveto
            113 40 66 91 95 -34 63 -109 -106 -48 -66 -94 -88 32 -67 112 hvcurveto
            5 55 2 callgsubr
            -21 -81 -68 -12 -34 -60 hvcurveto
            return
          </CharString>
          <CharString index="94">
            vhcurveto
            249 hlineto
            return
          </CharString>
          <CharString index="95">
            -136 rmoveto
            -15 callgsubr
            50 76 48 0 hvcurveto
            -46 hlineto
            -47 -22 -57 -44 -63 5 callgsubr
            endchar
          </CharString>
          <CharString index="96">
            vlineto
            81 16 rlineto
            return
          </CharString>
          <CharString index="97">
            678 rmoveto
            -22 callsubr
            47 return
          </CharString>
          <CharString index="98">
            460 170 -54 hlineto
            -23 34 callgsubr
            87 16 rlineto
            50 -272 42 callsubr
            return
          </CharString>
          <CharString index="99">
            48 vlineto
            -81 16 rlineto
            return
          </CharString>
          <CharString index="100">
            hvcurveto
            -291 32 callsubr
            308 vlineto
            return
          </CharString>
          <CharString index="101">
            175 117 rlineto
            9 callsubr
            return
          </CharString>
          <CharString index="102">
            vlineto
            80 16 rlineto
            48 -265 -48 vlineto
            82 -16 rlineto
            return
          </CharString>
          <CharString index="103">
            830 rmoveto
            -64 -26 rlineto
            0 21 -111 136 116 33 120 0 vhcurveto
            -35 15 rlineto
            0 -30 -64 -82 -71 -24 66 0 vhcurveto
            return
          </CharString>
          <CharString index="104">
            63 130 -64 32 44 -88 70 rlineto
            26 -32 -21 21 -16 hhcurveto
            -12 return
          </CharString>
          <CharString index="105">
            vlineto
            0 -56 -20 -77 -99 -42 66 133 133 31 62 96 39 35 -12 0 vhcurveto
            16 -82 rlineto
            57 143 hlineto
            -1 -52 return
          </CharString>
          <CharString index="106">
            715 rmoveto
            25 -38 131 -3 callsubr
            -14 -12 -35 -43 hvcurveto
            return
          </CharString>
          <CharString index="107">
            -56 callsubr
            endchar
          </CharString>
          <CharString index="108">
            rmoveto
            -291 45 vlineto
            36 165 rlineto
            10 47 5 31 24 vvcurveto
            18 -6 20 -35 -16 -19 -5 -9 -20 vhcurveto
            endchar
          </CharString>
          <CharString index="109">
            -22 callsubr
            47 1 -17 32 -29 hhcurveto
            -12 return
          </CharString>
          <CharString index="110">
            -4 10 -4 -19 vvcurveto
            -21 -18 -8 -34 -22 -16 5 7 -18 vhcurveto
            -17 -40 rlineto
            -11 24 20 -6 33 hhcurveto
            endchar
          </CharString>
          <CharString index="111">
            rmoveto
            -323 vlineto
            -72 25 -47 92 vhcurveto
            64 return
          </CharString>
          <CharString index="112">
            -20 22 -20 hhcurveto
            -17 -13 -9 -23 -18 hvcurveto
            -85 -105 rlineto
            216 -31 rmoveto
            151 104 rlineto
            42 -8 return
          </CharString>
          <CharString index="113">
            306 -5 callsubr
            -72 callsubr
            return
          </CharString>
          <CharString index="114">
            11 callgsubr
            -82 16 rlineto
            return
          </CharString>
          <CharString index="115">
            652 rmoveto
            -73 callgsubr
            -105 -119 30 -34 rlineto
            return
          </CharString>
          <CharString index="116">
            45 -9 -26 24 -19 hhcurveto
            -17 -13 -15 -18 -16 hvcurveto
            return
          </CharString>
          <CharString index="117" raw="1">
            74a26967 710b  
          </CharString>
          <CharString index="118">
            rmoveto
            41 24 33 36 38 -24 24 -35 -38 -26 -32 -36 -37 23 -26 35 hvcurveto
            endchar
          </CharString>
          <CharString index="119">
            652 rmoveto
            174 -117 31 34 -63 callgsubr
            return
          </CharString>
          <CharString index="120">
            -24 -36 -38 -51 5 callgsubr
            -20 33 rlineto
            -11 return
          </CharString>
          <CharString index="121">
            39 callgsubr
            -27 37 return
          </CharString>
          <CharString index="122">
            25 callsubr
            18 return
          </CharString>
          <CharString index="123">
            -187 rmoveto
            60 43 51 0 hvcurveto
            -20 33 rlineto
            -11 -18 46 callsubr
            return
          </CharString>
          <CharString index="124">
            -18 -19 -22 -12 vhcurveto
            16 -14 14 -20 -32 vvcurveto
            -33 -15 -39 -21 -46 vhcurveto
            return
          </CharString>
          <CharString index="125">
            -104 16 rlineto
            371 115 vlineto
            13 29 rlineto
            34 -128 120 vlineto
            return
          </CharString>
          <CharString index="126">
            142 rlineto
            35 -19 return
          </CharString>
          <CharString index="127">
            -20 -22 -13 vhcurveto
            16 -13 15 -21 -31 vvcurveto
            -34 -16 -39 -21 -46 vhcurveto
            return
          </CharString>
          <CharString index="128">
            rmoveto
            70 32 109 -20 rlineto
            -7 29 40 -6 29 hhcurveto
            23 21 return
          </CharString>
          <CharString index="129">
            -61 callsubr
            23 -34 -36 return
          </CharString>
          <CharString index="130">
            22 -212 rlineto
            45 hlineto
            23 144 return
          </CharString>
          <CharString index="131">
            -34 -36 -26 -30 -18 callgsubr
            return
          </CharString>
          <CharString index="132">
            -10 -129 rlineto
            -13 return
          </CharString>
          <CharString index="133">
            -42 callgsubr
            -520 vlineto
            return
          </CharString>
          <CharString index="134">
            171 -470 -47 hlineto
            -59 callgsubr
            endchar
          </CharString>
          <CharString index="135">
            -19 -20 -23 -13 vhcurveto
            13 -16 13 -26 -29 vvcurveto
            -30 -14 return
          </CharString>
          <CharString index="136">
            306 vlineto
            80 16 rlineto
            48 -265 -48 vlineto
            endchar
          </CharString>
          <CharString index="137">
            -30 -53 callsubr
            return
          </CharString>
          <CharString index="138">
            vvcurveto
            -49 37 -25 return
          </CharString>
          <CharString index="139">
            vlineto
            -76 -14 rlineto
            -45 251 45 vlineto
            -78 14 rlineto
            return
          </CharString>
          <CharString index="140">
            436 4 callsubr
            return
          </CharString>
          <CharString index="141">
            rmoveto
            -19 -19 -77 -88 -68 vvcurveto
            -36 23 -29 37 32 return
          </CharString>
          <CharString index="142">
            -115 23 rlineto
            5 -28 -43 7 -22 hhcurveto
            -25 -20 return
          </CharString>
          <CharString index="143">
            vlineto
            -30 14 -149 -26 rlineto
            -44 vlineto
            82 -14 rlineto
            return
          </CharString>
          <CharString index="144">
            55 -35 29 -57 -59 -38 return
          </CharString>
          <CharString index="145">
            rlineto
            11 callgsubr
            return
          </CharString>
          <CharString index="146">
            197 57 98 195 return
          </CharString>
          <CharString index="147">
            -27 -24 callgsubr
            return
          </CharString>
          <CharString index="148">
            28 -29 77 37 85 -28 rlineto
            -8 25 21 -5 return
          </CharString>
          <CharString index="149">
            -47 vlineto
            -59 callgsubr
            -82 -18 rlineto
            return
          </CharString>
          <CharString index="150">
            -82 -16 rlineto
            7 callsubr
            return
          </CharString>
          <CharString index="151">
            -36 -26 -31 -53 callsubr
            return
          </CharString>
          <CharString index="152">
            46 callsubr
            -27 return
          </CharString>
          <CharString index="153">
            -21 -9 -16 hhcurveto
            return
          </CharString>
          <CharString index="154">
            -48 265 48 vlineto
            -82 16 rlineto
            517 return
          </CharString>
          <CharString index="155">
            535 rmoveto
            38 callgsubr
            -9 return
          </CharString>
          <CharString index="156">
            hvcurveto
            332 vlineto
            10 31 31 5 32 hhcurveto
            return
          </CharString>
          <CharString index="157">
            552 rmoveto
            141 11 149 0 hvcurveto
            return
          </CharString>
          <CharString index="158">
            -65 -14 rlineto
            -52 66 -374 vlineto
            endchar
          </CharString>
        <CharString name=".notdef">
          -332 endchar
        </CharString>
        <CharString name="A">
          102 -9 47 -107 callsubr
          endchar
        </CharString>
        <CharString name="AE">
          300 -8 47 -56 callgsubr
        </CharString>
        <CharString name="AEacute">
          300 412 678 -89 callsubr
          -397 -671 -56 callgsubr
        </CharString>
        <CharString name="Aacute">
          102 203 -14 callgsubr
          -15 -11 -11 -18 hvcurveto
          -346 -769 -107 callsubr
          endchar
        </CharString>
        <CharString name="Abreve">
          102 224 -4 callsubr
          -233 -783 -107 callsubr
          endchar
        </CharString>
        <CharString name="Acircumflex">
          102 144 -1 callsubr
          -245 -743 -107 callsubr
          endchar
        </CharString>
        <CharString name="Adieresis">
          102 191 689 rmoveto
          -72 callgsubr
          221 hmoveto
          22 callsubr
          -25 -31 -53 callsubr
          33 hvcurveto
          -421 -642 -107 callsubr
          endchar
        </CharString>
        <CharString name="Agrave">
          102 173 759 rmoveto
          201 -81 -77 callsubr
          -182 -712 -107 callsubr
          endchar
        </CharString>
        <CharString name="Amacron">
          102 142 788 rmoveto
          -11 -65 rlineto
          37 callgsubr
          -487 -741 -107 callsubr
          endchar
        </CharString>
        <CharString name="Aogonek">
          102 435 hmoveto
          197 47 hlineto
          -66 15 -226 592 rlineto
          -70 -34 callgsubr
          -64 -15 rlineto
          -35 callgsubr
          -78 15 2 19 36 103 rlineto
          229 hlineto
          38 -102 3 -20 -74 -15 rlineto
          -47 10 vlineto
          -39 -24 -36 -38 -51 31 callsubr
          51 59 43 51 0 vhcurveto
          -19 33 rlineto
          -11 -19 45 callsubr
          -14 14 27 34 32 30 22 18 hvcurveto
          -237 248 0 callgsubr
        </CharString>
        <CharString name="Aring">
          102 566 62 rmoveto
          -226 592 rlineto
          -12 hlineto
          51 8 21 34 49 vvcurveto
          37 callsubr
          -34 -56 -47 18 -30 48 -8 vhcurveto
          -7 hlineto
          -7 callgsubr
          -366 696 rmoveto
          30 10 10 30 33 6 -13 -29 -29 -8 -12 -30 -34 -7 11 32 vhcurveto
          -68 -495 0 callgsubr
        </CharString>
        <CharString name="Aringacute">
          102 474 935 -8 callgsubr
          293 -792 rmoveto
          -226 591 rlineto
          39 11 26 29 47 vvcurveto
          37 callsubr
          -35 -56 -43 19 -26 35 -10 vhcurveto
          -7 callgsubr
          -321 731 rmoveto
          33 5 -13 -31 -28 -8 -12 -29 -34 -6 12 31 30 9 11 30 hvcurveto
          -113 -530 0 callgsubr
        </CharString>
        <CharString name="Atilde">
          102 127 732 rmoveto
          28 callgsubr
          1 callgsubr
          -172 -735 -107 callsubr
          endchar
        </CharString>
        <CharString name="B">
          91 52 hmoveto
          291 hlineto
          142 85 69 117 76 -56 63 -84 20 hvcurveto
          75 30 34 47 67 vvcurveto
          101 -80 58 -141 vhcurveto
          -266 -47 hlineto
          -59 callgsubr
          -82 -18 rlineto
          185 313 rmoveto
          220 vlineto
          3 19 28 2 20 hhcurveto
          85 42 -34 -66 -80 -53 -45 -95 hvcurveto
          29 -299 rmoveto
          -31 -29 2 3 -15 hvcurveto
          233 58 vlineto
          112 49 -35 -81 -81 -49 -41 -95 hvcurveto
          endchar
        </CharString>
        <CharString name="C">
          90 503 191 -75 callgsubr
        </CharString>
        <CharString name="Cacute">
          90 269 -14 callgsubr
          -16 -11 -11 -17 hvcurveto
          100 -625 -34 callsubr
        </CharString>
        <CharString name="Cacute.loclPLK">
          90 368 -46 callgsubr
          176 -507 -75 callgsubr
        </CharString>
        <CharString name="Ccaron">
          90 219 837 rmoveto
          -34 -44 89 -70 rlineto
          -26 32 22 -21 16 hhcurveto
          14 17 17 29 37 hvcurveto
          92 76 -26 38 -130 -63 rlineto
          155 -582 -34 callsubr
        </CharString>
        <CharString name="Ccedilla">
          90 272 -132 rmoveto
          -17 -40 rlineto
          -11 23 21 -6 33 hhcurveto
          66 57 -22 callgsubr
          16 vlineto
          102 4 55 24 36 16 rrcurveto
          160 -56 vlineto
          -21 -107 rlineto
          -3 -6 -38 -30 -83 hhcurveto
          -125 -68 91 177 197 51 79 139 69 50 -15 -2 7 hvcurveto
          21 -109 rlineto
          56 164 hlineto
          16 -43 -68 13 -88 hhcurveto
          -191 -123 -158 -188 -205 88 -116 187 -7 hvcurveto
          -21 -49 21 -20 34 -2 callgsubr
          -19 -8 -33 -23 -16 5 7 -17 vhcurveto
          endchar
        </CharString>
        <CharString name="Ccircumflex">
          90 197 715 -101 callgsubr
          214 -599 -75 callgsubr
        </CharString>
        <CharString name="Cdotaccent">
          90 352 -49 callsubr
          151 -502 -75 callgsubr
        </CharString>
        <CharString name="D">
          186 49 hmoveto
          -83 callgsubr
          endchar
        </CharString>
        <CharString name="Dcaron">
          189 213 837 -9 callgsubr
          -27 33 20 -20 17 hhcurveto
          14 18 17 30 37 hvcurveto
          91 -13 callgsubr
          rlineto
          -294 -773 rmoveto
          -83 callgsubr
          endchar
        </CharString>
        <CharString name="Dcroat">
          -40 callsubr
        </CharString>
        <CharString name="E">
          55 49 47 -106 callsubr
          endchar
        </CharString>
        <CharString name="Eacute">
          55 207 -14 callgsubr
          -15 -11 -11 -18 hvcurveto
          -292 -769 -106 callsubr
          endchar
        </CharString>
        <CharString name="Ebreve">
          55 229 830 -93 callgsubr
          -180 -783 -106 callsubr
          endchar
        </CharString>
        <CharString name="Ecaron">
          55 180 837 -9 callgsubr
          -25 30 23 -22 16 hhcurveto
          15 17 17 30 37 hvcurveto
          92 -13 callgsubr
          rlineto
          -261 -726 -106 callsubr
          endchar
        </CharString>
        <CharString name="Ecircumflex">
          55 140 -1 callsubr
          -183 -743 -106 callsubr
          endchar
        </CharString>
        <CharString name="Edieresis">
          55 192 694 -44 callgsubr
          -25 -30 -35 -36 22 -25 34 hvcurveto
          -364 -647 -106 callsubr
          endchar
        </CharString>
        <CharString name="Edotaccent">
          55 306 -49 callsubr
          -257 -646 -106 callsubr
          endchar
        </CharString>
        <CharString name="Egrave">
          55 183 759 rmoveto
          202 -81 22 40 -134 98 rlineto
          11 -17 -16 11 -12 hhcurveto
          -28 -18 -31 -48 1 hvcurveto
          -134 -712 -106 callsubr
          endchar
        </CharString>
        <CharString name="Emacron">
          55 139 788 -36 callsubr
          -426 -741 -106 callsubr
          endchar
        </CharString>
        <CharString name="Eng">
          208 472 648 rmoveto
          -46 vlineto
          72 -17 rlineto
          -429 -7 vlineto
          -11 18 -299 474 -56 callsubr
          -46 218 46 vlineto
          -73 17 rlineto
          432 7 vlineto
          10 -17 301 -473 rlineto
          -94 vlineto
          -99 -23 rlineto
          -42 vlineto
          0 39 -12 53 74 37 32 52 vhcurveto
          667 vlineto
          73 17 rlineto
          46 vlineto
          endchar
        </CharString>
        <CharString name="Eogonek">
          58 49 47 rmoveto
          -47 401 vlineto
          -31 -27 -29 -40 -46 31 callsubr
          51 59 43 51 0 vhcurveto
          -19 33 rlineto
          -11 -19 -19 -9 -18 hhcurveto
          -27 -13 14 27 42 36 41 11 10 hvcurveto
          16 hlineto
          9 163 rlineto
          -54 hlineto
          -33 -111 rlineto
          -128 hlineto
          -38 -24 3 4 -26 hvcurveto
          231 141 vlineto
          17 -65 rlineto
          45 186 -45 hlineto
          -17 -62 rlineto
          -141 220 hlineto
          82 7 rlineto
          126 hlineto
          23 -110 rlineto
          54 27 callsubr
        </CharString>
        <CharString name="Eth">
          -40 callsubr
        </CharString>
        <CharString name="Euro">
          2 373 423 rmoveto
          -197 hlineto
          114 19 52 58 83 hhcurveto
          28 32 -7 -10 23 hvcurveto
          19 -109 rlineto
          57 164 hlineto
          19 -44 -62 10 -44 hhcurveto
          -138 -98 -95 -144 -35 hvcurveto
          -43 hlineto
          -22 -63 rlineto
          348 hlineto
          85 -169 rmoveto
          -18 -107 rlineto
          -20 -27 -39 -13 -34 hhcurveto
          -82 -46 77 121 -14 hvcurveto
          136 hlineto
          23 63 rlineto
          -321 hlineto
          -22 -63 rlineto
          68 hlineto
          -152 17 83 -110 157 hhcurveto
          64 65 17 27 47 hvcurveto
          160 vlineto
          endchar
        </CharString>
        <CharString name="Euro.osf">
          -26 37 341 rmoveto
          -22 -63 rlineto
          326 hlineto
          22 63 rlineto
          -193 hlineto
          76 10 36 47 99 hhcurveto
          49 34 -11 -2 5 hvcurveto
          19 -91 rlineto
          50 143 hlineto
          14 -38 -43 14 -82 hhcurveto
          -137 -76 -85 -105 -27 hvcurveto
          -65 -111 rmoveto
          -22 -63 rlineto
          84 hlineto
          -132 26 72 -47 136 hhcurveto
          100 41 24 14 34 hvcurveto
          141 -49 vlineto
          -19 -94 rlineto
          -2 -4 -32 -18 -60 hhcurveto
          -77 -48 30 84 -14 hvcurveto
          130 hlineto
          23 63 rlineto
          endchar
        </CharString>
        <CharString name="F">
          3 49 47 rmoveto
          -47 289 51 vlineto
          -104 16 rlineto
          215 153 vlineto
          16 -65 rlineto
          45 187 -45 hlineto
          -16 -63 rlineto
          -153 239 hlineto
          82 7 rlineto
          125 hlineto
          22 -110 rlineto
          56 27 callsubr
        </CharString>
        <CharString name="G">
          126 472 260 -96 callgsubr
        </CharString>
        <CharString name="G_tilde.loclGUA">
          126 428 -84 callgsubr
          44 -439 -96 callgsubr
        </CharString>
        <CharString name="Gbreve">
          127 251 -4 callsubr
          221 -570 rmoveto
          -183 vlineto
          -16 -32 -28 -10 -56 hhcurveto
          -140 -54 87 187 179 51 91 145 74 43 -15 -2 6 hvcurveto
          27 -110 rlineto
          55 164 hlineto
          11 -26 -69 19 -101 hhcurveto
          -203 -122 -152 -196 -224 101 -103 188 84 45 22 18 28 hvcurveto
          12 hlineto
          30 -27 rlineto
          43 262 hlineto
          44 11 rlineto
          52 -220 -47 vlineto
          endchar
        </CharString>
        <CharString name="Gcaron">
          126 225 837 -74 callgsubr
          117 -513 -96 callgsubr
        </CharString>
        <CharString name="Gcircumflex">
          126 193 715 -101 callgsubr
          187 -530 -96 callgsubr
        </CharString>
        <CharString name="Gcommaaccent">
          127 472 260 rmoveto
          -183 vlineto
          -16 -32 -28 -10 -56 hhcurveto
          -140 -54 87 187 179 51 91 145 74 43 -15 -2 6 hvcurveto
          27 -110 rlineto
          55 164 hlineto
          11 -26 -69 19 -101 hhcurveto
          -203 -122 -152 -196 -224 101 -103 188 84 45 22 18 28 hvcurveto
          12 hlineto
          30 -27 rlineto
          43 262 hlineto
          44 11 rlineto
          52 -220 -47 vlineto
          -79 -473 -47 callsubr
        </CharString>
        <CharString name="Gdotaccent">
          126 348 -49 callsubr
          124 -433 -96 callgsubr
        </CharString>
        <CharString name="H">
          236 49 48 -58 callgsubr
          endchar
        </CharString>
        <CharString name="Hbar">
          236 49 hmoveto
          267 48 hlineto
          -82 16 rlineto
          212 288 -212 vlineto
          43 callsubr
          368 83 62 -83 90 -29 callgsubr
          -90 -288 90 -29 callgsubr
          -90 -80 -62 80 -368 vlineto
          -82 -16 rlineto
          185 290 rmoveto
          94 288 -94 vlineto
          endchar
        </CharString>
        <CharString name="Hcircumflex">
          236 219 715 -101 callgsubr
          -262 -742 -58 callgsubr
          endchar
        </CharString>
        <CharString name="I">
          -150 52 48 -90 callsubr
          endchar
        </CharString>
        <CharString name="IJ">
          255 52 48 -90 callsubr
          244 104 -81 callsubr
        </CharString>
        <CharString name="Iacute">
          -150 77 -14 callgsubr
          -15 -11 -11 -18 hvcurveto
          -159 -768 -90 callsubr
          endchar
        </CharString>
        <CharString name="Iacute_J.loclNLD">
          255 145 678 -89 callsubr
          453 -40 -89 callsubr
          -500 -670 -90 callsubr
          244 104 -81 callsubr
        </CharString>
        <CharString name="Ibreve">
          -150 96 830 -93 callgsubr
          -44 -782 -90 callsubr
          endchar
        </CharString>
        <CharString name="Icircumflex">
          -150 23 715 rmoveto
          25 -38 131 63 129 -64 33 44 -88 70 rlineto
          30 -37 -19 17 -14 hhcurveto
          -13 -15 -14 -33 -41 hvcurveto
          -62 -742 -90 callsubr
          endchar
        </CharString>
        <CharString name="Idieresis">
          -150 72 694 -44 callgsubr
          -26 -30 -69 callgsubr
          -241 -694 rmoveto
          266 48 hlineto
          -86 callgsubr
          -81 -16 rlineto
          endchar
        </CharString>
        <CharString name="Idotaccent">
          -150 181 -49 callsubr
          -129 -645 -90 callsubr
          endchar
        </CharString>
        <CharString name="Igrave">
          -150 70 759 rmoveto
          201 -81 14 callgsubr
          -18 -711 -90 callsubr
          endchar
        </CharString>
        <CharString name="Imacron">
          -150 25 728 rmoveto
          308 hlineto
          11 65 rlineto
          -308 hlineto
          16 -793 rmoveto
          266 48 hlineto
          -86 callgsubr
          -81 -16 rlineto
          endchar
        </CharString>
        <CharString name="Iogonek">
          -150 52 48 rmoveto
          -48 173 vlineto
          -39 13 callsubr
          -19 -21 -9 -15 hhcurveto
          -28 -13 14 27 33 32 31 22 18 hvcurveto
          40 48 hlineto
          -86 callgsubr
          endchar
        </CharString>
        <CharString name="Itilde">
          -150 261 -84 callgsubr
          -209 -651 -90 callsubr
          endchar
        </CharString>
        <CharString name="J">
          -115 7 168 -81 callsubr
        </CharString>
        <CharString name="Jcircumflex">
          -115 86 715 -101 callgsubr
          -171 -622 -81 callsubr
        </CharString>
        <CharString name="K">
          90 49 48 rmoveto
          -48 267 48 vlineto
          -33 callsubr
          endchar
        </CharString>
        <CharString name="Kcommaaccent">
          94 49 hmoveto
          267 48 hlineto
          -33 callsubr
          -82 -16 rlineto
          253 -243 -57 callgsubr
        </CharString>
        <CharString name="L">
          3 49 47 rmoveto
          -47 461 170 -54 vlineto
          -24 -109 rlineto
          -114 -39 callsubr
          endchar
        </CharString>
        <CharString name="Lacute">
          6 141 -30 callgsubr
          -69 -718 rmoveto
          461 170 -54 hlineto
          -24 -109 rlineto
          -114 -39 callsubr
          -82 -18 rlineto
          endchar
        </CharString>
        <CharString name="Lcaron">
          9 388 481 rmoveto
          36 hlineto
          0 58 75 51 vvcurveto
          28 -16 27 -37 -22 -16 -11 -12 -9 vhcurveto
          12 -14 10 -21 -24 vvcurveto
          -28 -6 -41 -10 -30 vhcurveto
          -336 -481 rmoveto
          -9 callsubr
          endchar
        </CharString>
        <CharString name="Lcommaaccent">
          9 52 hmoveto
          -9 callsubr
          201 -242 -47 callsubr
        </CharString>
        <CharString name="Ldot">
          3 49 47 rmoveto
          -47 461 170 -54 vlineto
          -24 -109 rlineto
          -114 -39 callsubr
          246 230 -21 callsubr
        </CharString>
        <CharString name="Lslash">
          3 49 47 rmoveto
          -47 461 170 -54 vlineto
          -24 23 callgsubr
          243 vlineto
          121 43 rlineto
          64 vlineto
          -121 -45 rlineto
          208 vlineto
          88 16 rlineto
          50 -273 -47 vlineto
          82 -17 rlineto
          -248 vlineto
          -71 -25 rlineto
          -60 vlineto
          71 25 rlineto
          -211 vlineto
          endchar
        </CharString>
        <CharString name="M">
          363 48 hmoveto
          223 46 hlineto
          -75 17 rlineto
          455 vlineto
          -1 26 rlineto
          10 hlineto
          180 -544 rlineto
          70 hlineto
          172 520 7 24 rlineto
          12 -480 hlineto
          43 callsubr
          521 vlineto
          78 14 rlineto
          49 -227 vlineto
          -150 -461 -12 -49 -12 49 -151 461 rlineto
          -216 -49 hlineto
          64 -12 rlineto
          -524 vlineto
          -75 -17 rlineto
          endchar
        </CharString>
        <CharString name="N">
          208 49 hmoveto
          -79 callsubr
          endchar
        </CharString>
        <CharString name="Nacute">
          209 294 -30 callgsubr
          -222 -718 rmoveto
          218 46 hlineto
          -73 17 rlineto
          432 7 vlineto
          9 -16 305 -479 -41 callsubr
        </CharString>
        <CharString name="Nacute.loclPLK">
          208 376 -46 callgsubr
          -286 -698 rmoveto
          -79 callsubr
          endchar
        </CharString>
        <CharString name="Ncaron">
          209 367 682 rmoveto
          13 17 16 35 40 hvcurveto
          85 73 -27 38 -123 -67 -120 68 44 callgsubr
          -318 -682 rmoveto
          218 46 hlineto
          -73 17 rlineto
          432 7 vlineto
          8 -15 306 -480 -41 callsubr
        </CharString>
        <CharString name="Ncommaaccent">
          209 49 hmoveto
          218 46 hlineto
          -73 17 rlineto
          432 7 vlineto
          8 -15 306 -480 -68 callgsubr
          -11 19 -299 473 -56 callsubr
          282 -241 -47 callsubr
        </CharString>
        <CharString name="Ntilde">
          209 448 699 rmoveto
          26 23 7 28 20 hvcurveto
          36 50 -28 29 -77 -37 -85 28 rlineto
          8 -25 -22 5 -20 hhcurveto
          -26 -23 -7 -28 -19 hvcurveto
          -37 -50 28 -29 77 37 86 -28 rlineto
          -8 24 22 -5 20 hhcurveto
          -399 -699 rmoveto
          218 46 hlineto
          -73 17 rlineto
          432 7 vlineto
          7 -13 307 -482 -41 callsubr
        </CharString>
        <CharString name="O">
          179 343 -15 -105 callgsubr
          endchar
        </CharString>
        <CharString name="OE">
          380 356 hmoveto
          497 174 -54 hlineto
          -24 -111 rlineto
          -122 hlineto
          -32 -38 3 4 -24 hvcurveto
          231 141 vlineto
          17 -65 rlineto
          46 186 -46 hlineto
          -17 -62 rlineto
          -141 220 hlineto
          82 7 rlineto
          126 hlineto
          23 -110 rlineto
          54 171 -473 hlineto
          -206 -123 -139 -196 -229 125 -84 189 hvcurveto
          13 59 rmoveto
          -133 -74 70 196 230 102 31 104 36 33 -6 -8 19 hvcurveto
          -497 vlineto
          -13 -25 -31 -3 -31 hhcurveto
          endchar
        </CharString>
        <CharString name="Oacute">
          179 269 -10 callsubr
          2 -18 32 -28 hhcurveto
          -12 -16 -48 callgsubr
          rlineto
          97 -733 -105 callgsubr
          endchar
        </CharString>
        <CharString name="Oacute.loclPLK">
          179 362 -46 callgsubr
          22 -713 -105 callgsubr
          endchar
        </CharString>
        <CharString name="Obreve">
          179 261 830 -93 callgsubr
          82 -845 -105 callgsubr
          endchar
        </CharString>
        <CharString name="Ocircumflex">
          179 192 -1 callsubr
          59 -805 -105 callgsubr
          endchar
        </CharString>
        <CharString name="Odieresis">
          179 240 694 -44 callgsubr
          -25 30 callsubr
          33 hvcurveto
          -118 -709 -105 callgsubr
          endchar
        </CharString>
        <CharString name="Ograve">
          179 436 678 rmoveto
          22 40 -134 98 rlineto
          11 -17 -16 11 -12 hhcurveto
          -28 -18 -31 -48 1 hvcurveto
          109 -774 -105 callgsubr
          endchar
        </CharString>
        <CharString name="Ohorn">
          179 747 658 -95 callsubr
        </CharString>
        <CharString name="Ohungarumlaut">
          179 218 675 rmoveto
          151 104 rlineto
          42 -9 -20 22 -20 hhcurveto
          -17 -12 -9 -23 -18 hvcurveto
          -86 -105 rlineto
          216 -31 rmoveto
          152 104 rlineto
          42 -9 -20 22 -20 hhcurveto
          -17 -12 -9 -23 -19 hvcurveto
          -85 -105 rlineto
          -30 -721 -105 callgsubr
          endchar
        </CharString>
        <CharString name="Omacron">
          186 187 723 rmoveto
          336 hlineto
          11 65 rlineto
          -337 hlineto
          150 -803 rmoveto
          -63 callsubr
          201 -107 124 -184 -206 -118 -153 -196 -206 105 -122 196 hvcurveto
          19 65 rmoveto
          -132 -69 74 201 236 80 34 109 114 73 -55 -224 -176 -50 -90 -125 hvcurveto
          endchar
        </CharString>
        <CharString name="Oslash">
          179 177 25 -57 callsubr
        </CharString>
        <CharString name="Oslashacute">
          179 264 678 -89 callsubr
          -64 -693 -57 callsubr
        </CharString>
        <CharString name="Otilde">
          179 432 699 rmoveto
          1 callgsubr
          -36 -50 28 callgsubr
          -89 -714 -105 callgsubr
          endchar
        </CharString>
        <CharString name="P">
          50 49 hmoveto
          287 49 hlineto
          -102 18 rlineto
          514 vlineto
          0 35 4 37 87 52 -38 -91 -110 -59 -39 -109 -3 vhcurveto
          5 -42 rlineto
          -1 12 11 -1 12 hhcurveto
          139 99 73 144 128 -96 43 -151 hvcurveto
          -259 -47 hlineto
          -59 callgsubr
          -82 -18 rlineto
          endchar
        </CharString>
        <CharString name="Q">
          184 380 -43 rmoveto
          135 -92 rlineto
          -16 25 25 -7 29 hhcurveto
          50 56 35 0 hvcurveto
          40 -105 vlineto
          -148 88 rlineto
          157 51 53 156 129 vvcurveto
          198 -106 123 -185 -197 -127 -157 -188 -192 89 -123 166 -12 vhcurveto
          46 -7 23 -16 14 -10 rrcurveto
          -13 94 rmoveto
          -132 -73 84 193 233 80 34 109 111 75 -53 -218 -182 -52 -91 -118 hvcurveto
          endchar
        </CharString>
        <CharString name="R">
          96 49 hmoveto
          -82 callgsubr
          endchar
        </CharString>
        <CharString name="Racute">
          99 223 678 -89 callsubr
          -151 -718 rmoveto
          -69 callsubr
          endchar
        </CharString>
        <CharString name="Rcaron">
          99 305 676 rmoveto
          15 17 17 30 37 hvcurveto
          92 75 -27 38 -129 -63 -130 64 -33 -44 88 -70 rlineto
          -25 31 23 -22 16 hhcurveto
          -256 -676 rmoveto
          -69 callsubr
          endchar
        </CharString>
        <CharString name="Rcommaaccent">
          99 49 hmoveto
          -69 callsubr
          -3 -527 35 callgsubr
          -16 -38 callsubr
        </CharString>
        <CharString name="S">
          1 251 -12 -97 callsubr
          endchar
        </CharString>
        <CharString name="Sacute">
          1 194 -30 callgsubr
          80 -730 -97 callsubr
          endchar
        </CharString>
        <CharString name="Sacute.loclPLK">
          1 272 -46 callgsubr
          20 -710 -97 callsubr
          endchar
        </CharString>
        <CharString name="Scaron">
          1 264 676 rmoveto
          15 18 17 30 37 hvcurveto
          91 -13 callgsubr
          -130 64 -33 -44 89 -70 rlineto
          -27 33 20 -20 16 hhcurveto
          -13 -688 -97 callsubr
          endchar
        </CharString>
        <CharString name="Scedilla">
          1 244 -189 rmoveto
          67 57 -22 callgsubr
          18 vlineto
          98 8 101 54 136 vvcurveto
          121 -91 40 -93 36 vhcurveto
          -74 28 -66 23 69 vvcurveto
          54 22 37 97 35 41 -9 -12 27 vhcurveto
          19 -98 rlineto
          55 161 hlineto
          10 -27 -80 15 -69 hhcurveto
          -136 -84 -75 -111 -129 107 -33 91 -34 hvcurveto
          82 -31 46 -25 -65 vvcurveto
          -81 -41 -25 -93 -38 -51 17 23 -28 vhcurveto
          -17 101 rlineto
          -59 -153 hlineto
          26 -22 70 -26 81 -4 -21 -50 rcurveline
          20 -20 35 -7 rlineto
          19 -4 9 -4 -19 vvcurveto
          -21 -18 -8 -33 -23 -16 5 7 -17 vhcurveto
          -18 -40 rlineto
          -11 24 21 -6 32 hhcurveto
          endchar
        </CharString>
        <CharString name="Scircumflex">
          1 101 715 -101 callgsubr
          58 -802 -97 callsubr
          endchar
        </CharString>
        <CharString name="Scommaaccent">
          1 252 -12 rmoveto
          106 120 51 148 119 -90 40 -93 37 hvcurveto
          -74 28 -67 24 69 vvcurveto
          54 22 37 97 35 41 -9 -12 27 vhcurveto
          19 -98 rlineto
          55 161 hlineto
          10 -27 -80 15 -69 hhcurveto
          -136 -84 -75 -111 -128 105 -33 90 -34 hvcurveto
          83 -31 48 -24 -67 vvcurveto
          -78 -38 -28 -96 -38 -51 17 23 -28 vhcurveto
          -17 101 rlineto
          -59 -153 hlineto
          -24 28 81 -29 90 hhcurveto
          -33 -183 -57 callgsubr
        </CharString>
        <CharString name="T">
          -12 callgsubr
          endchar
        </CharString>
        <CharString name="Tbar">
          28 460 585 rmoveto
          22 -108 rlineto
          55 171 -524 -171 54 hlineto
          23 108 rlineto
          133 -220 -179 -63 179 -238 hlineto
          -81 -16 rlineto
          -32 callsubr
          238 176 63 -176 220 vlineto
          endchar
        </CharString>
        <CharString name="Tcaron">
          31 149 837 -74 callgsubr
          -136 -725 rmoveto
          -48 266 48 vlineto
          -25 callgsubr
          endchar
        </CharString>
        <CharString name="Thorn">
          47 52 hmoveto
          266 48 hlineto
          -81 16 rlineto
          87 65 vlineto
          150 89 59 143 116 -72 41 -145 hvcurveto
          -87 74 hlineto
          -74 callsubr
          -81 -16 rlineto
          185 161 rmoveto
          238 vlineto
          22 24 1 25 hhcurveto
          83 42 -30 -83 -92 -43 -34 -102 hvcurveto
          endchar
        </CharString>
        <CharString name="U">
          198 114 584 -101 callsubr
          endchar
        </CharString>
        <CharString name="Uacute">
          198 304 678 rmoveto
          2 callsubr
          -15 -11 -11 -18 hvcurveto
          -134 -98 rlineto
          76 -733 -59 callsubr
        </CharString>
        <CharString name="Ubreve">
          198 270 830 -93 callgsubr
          -156 -246 -101 callsubr
          endchar
        </CharString>
        <CharString name="Ucircumflex">
          198 214 715 rmoveto
          26 -38 130 63 130 -64 33 44 -89 70 rlineto
          26 -32 -21 21 -15 hhcurveto
          -13 -13 -12 -35 -44 hvcurveto
          -192 -206 -52 callgsubr
          39 callsubr
          vhcurveto
          -58 callsubr
          -33 -67 -118 -89 callgsubr
          endchar
        </CharString>
        <CharString name="Udieresis">
          198 259 701 -44 callgsubr
          -26 -30 -69 callgsubr
          -123 -716 -59 callsubr
        </CharString>
        <CharString name="Ugrave">
          198 443 678 rmoveto
          14 callgsubr
          115 -774 -59 callsubr
        </CharString>
        <CharString name="Uhorn">
          198 357 -15 -97 callgsubr
          endchar
        </CharString>
        <CharString name="Uhungarumlaut">
          198 238 675 rmoveto
          151 104 rlineto
          42 -8 5 callsubr
          -21 22 -20 hhcurveto
          -16 -13 -9 -23 -18 hvcurveto
          -85 -105 rlineto
          -37 -721 rmoveto
          39 callsubr
          hvcurveto
          -58 callsubr
          -1 -32 -67 -118 hhcurveto
          -132 -35 44 176 hvcurveto
          -35 callsubr
        </CharString>
        <CharString name="Umacron">
          198 210 788 rmoveto
          -11 -65 rlineto
          37 callgsubr
          -432 -204 -28 callsubr
        </CharString>
        <CharString name="Uogonek">
          198 445 -187 rmoveto
          41 41 27 24 21 hvcurveto
          -15 callgsubr
          35 42 43 27 17 hvcurveto
          83 42 27 89 134 vvcurveto
          -58 callsubr
          -1 -32 -67 -118 hhcurveto
          -132 -35 44 176 hvcurveto
          6 callsubr
          22 20 2 2 18 vhcurveto
          -32 -24 -27 -34 -44 26 callgsubr
          vhcurveto
          endchar
        </CharString>
        <CharString name="Uring">
          198 286 733 rmoveto
          -56 32 -28 59 57 41 32 59 37 callsubr
          -35 -56 vhcurveto
          95 -39 rmoveto
          -34 -5 12 31 30 9 11 30 33 4 -13 -31 -28 -7 -12 -30 hvcurveto
          -267 -110 -28 callsubr
        </CharString>
        <CharString name="Utilde">
          198 435 -84 callgsubr
          -321 -115 -101 callsubr
          endchar
        </CharString>
        <CharString name="V">
          88 279 -7 rmoveto
          67 hlineto
          214 593 61 15 rlineto
          47 -221 -47 vlineto
          81 -15 -40 -133 -103 -298 -11 -26 -10 31 -142 413 rlineto
          13 vlineto
          76 15 rlineto
          47 -261 -47 vlineto
          63 -15 rlineto
          endchar
        </CharString>
        <CharString name="W">
          444 247 -7 -94 callgsubr
        </CharString>
        <CharString name="Wacute">
          444 443 678 -89 callsubr
          -173 -725 -94 callgsubr
        </CharString>
        <CharString name="Wcircumflex">
          444 324 715 -101 callgsubr
          -169 -797 -94 callgsubr
        </CharString>
        <CharString name="Wdieresis">
          444 370 689 -77 callgsubr
          -344 -696 -94 callgsubr
        </CharString>
        <CharString name="Wgrave">
          444 533 678 rmoveto
          -77 callsubr
          -85 -766 -94 callgsubr
        </CharString>
        <CharString name="X">
          81 3 48 rmoveto
          -48 219 47 vlineto
          -63 13 rlineto
          16 vlineto
          131 187 130 -188 rlineto
          -12 vlineto
          -68 -15 38 callsubr
          -71 15 -188 281 177 242 68 16 rlineto
          46 -228 -47 vlineto
          68 -13 rlineto
          -16 vlineto
          -123 -171 -114 167 rlineto
          18 vlineto
          62 14 rlineto
          48 -262 -48 vlineto
          65 -20 178 -260 -179 -257 rlineto
          endchar
        </CharString>
        <CharString name="Y">
          73 174 48 -91 callgsubr
        </CharString>
        <CharString name="Y.loclGUA">
          185 403 648 -100 callgsubr
        </CharString>
        <CharString name="Yacute">
          73 238 -10 callsubr
          2 -18 32 -28 hhcurveto
          -12 -16 -48 callgsubr
          rlineto
          -44 -718 rmoveto
          266 48 hlineto
          -81 16 rlineto
          182 vlineto
          186 340 32 callgsubr
          -221 -45 vlineto
          76 -16 rlineto
          -15 vlineto
          -136 -263 rlineto
          -13 hlineto
          -137 261 rlineto
          17 vlineto
          71 16 rlineto
          45 -252 -45 vlineto
          63 -16 196 -350 rlineto
          -173 vlineto
          -81 -16 rlineto
          endchar
        </CharString>
        <CharString name="Yacute.loclGUA">
          185 520 759 -8 callgsubr
          84 -30 -100 callgsubr
        </CharString>
        <CharString name="Ycircumflex">
          73 159 715 -101 callgsubr
          -77 -742 -91 callgsubr
        </CharString>
        <CharString name="Ycircumflex.loclGUA">
          185 356 740 rmoveto
          130 -64 32 44 -88 70 rlineto
          26 -32 -21 21 -16 hhcurveto
          -12 -13 -12 -35 -44 hvcurveto
          -92 -75 26 -38 rlineto
          177 -29 -100 callgsubr
        </CharString>
        <CharString name="Ydieresis">
          73 196 694 rmoveto
          39 27 callgsubr
          33 hvcurveto
          222 hmoveto
          38 27 callgsubr
          34 hvcurveto
          -247 -646 -30 callsubr
          182 vlineto
          186 340 32 callgsubr
          -221 -45 vlineto
          76 -16 rlineto
          -15 vlineto
          -136 -263 rlineto
          -13 hlineto
          -137 261 rlineto
          17 vlineto
          71 16 rlineto
          45 -252 -45 vlineto
          63 -16 196 -350 rlineto
          -173 vlineto
          endchar
        </CharString>
        <CharString name="Ydieresis.loclGUA">
          185 246 689 -77 callgsubr
          -64 -41 -100 callgsubr
        </CharString>
        <CharString name="Ygrave">
          73 368 678 rmoveto
          -77 callsubr
          7 -711 -91 callgsubr
        </CharString>
        <CharString name="Ygrave.loclGUA">
          185 409 678 rmoveto
          -77 callsubr
          195 -111 -100 callgsubr
        </CharString>
        <CharString name="Z">
          27 26 64 -61 callgsubr
          endchar
        </CharString>
        <CharString name="Zacute">
          28 199 -30 callgsubr
          -150 -718 rmoveto
          495 168 -55 hlineto
          -17 callgsubr
          -352 -503 rlineto
          endchar
        </CharString>
        <CharString name="Zacute.loclPLK">
          27 286 -46 callgsubr
          -219 -634 -61 callgsubr
          endchar
        </CharString>
        <CharString name="Zcaron">
          28 157 845 rmoveto
          44 callgsubr
          13 17 16 35 41 hvcurveto
          84 73 -27 38 -123 -67 rlineto
          -251 -713 rmoveto
          -64 495 168 -55 vlineto
          -17 callgsubr
          endchar
        </CharString>
        <CharString name="Zdotaccent">
          28 267 688 -19 callsubr
          -38 -40 25 -28 37 hvcurveto
          -241 -624 rmoveto
          -64 495 168 -55 vlineto
          -17 callgsubr
          endchar
        </CharString>
        <CharString name="a">
          -28 180 -9 -107 callgsubr
          endchar
        </CharString>
        <CharString name="aacute">
          -31 175 48 callsubr
          -27 -45 callsubr
          -15 hvcurveto
          -105 -119 rlineto
          31 -578 -102 callgsubr
        </CharString>
        <CharString name="abreve">
          -31 233 50 callsubr
          -36 10 rlineto
          0 -14 -87 -95 -97 -11 86 0 vhcurveto
          -58 -18 rlineto
          0 15 -140 144 vhcurveto
          -57 -561 -102 callgsubr
        </CharString>
        <CharString name="acircumflex">
          -31 348 542 rmoveto
          36 39 -106 109 rlineto
          15 -15 -13 8 -12 hhcurveto
          -15 -48 callsubr
          -104 -106 29 -35 116 80 rlineto
          -53 -632 -102 callgsubr
        </CharString>
        <CharString name="acute">
          -315 569 vmoveto
          -88 callgsubr
          endchar
        </CharString>
        <CharString name="acutecomb">
          -205 569 rmoveto
          -88 callgsubr
          endchar
        </CharString>
        <CharString name="acutecomb.case">
          -203 678 -89 callsubr
          endchar
        </CharString>
        <CharString name="adieresis">
          -31 116 571 rmoveto
          38 24 31 36 37 -24 23 -33 -87 callgsubr
          -155 -580 -102 callgsubr
        </CharString>
        <CharString name="ae">
          221 311 273 -65 callsubr
        </CharString>
        <CharString name="aeacute">
          221 322 569 rmoveto
          -88 callgsubr
          -116 -415 -65 callsubr
        </CharString>
        <CharString name="agrave">
          -31 300 535 rmoveto
          31 34 -106 119 rlineto
          18 -16 -13 15 -16 hhcurveto
          -20 -26 -24 -45 -8 hvcurveto
          50 -661 -102 callgsubr
        </CharString>
        <CharString name="amacron">
          -31 55 600 rmoveto
          37 callgsubr
          -336 hlineto
          110 -674 -102 callgsubr
        </CharString>
        <CharString name="ampersand">
          91 455 48 rmoveto
          18 -18 rlineto
          -23 23 26 -7 22 hhcurveto
          99 49 hlineto
          -80 17 -49 51 rlineto
          22 39 11 42 40 vvcurveto
          72 -10 49 -9 24 vhcurveto
          -147 -48 hlineto
          86 -17 rlineto
          4 -11 7 -26 -42 vvcurveto
          -26 -5 -24 -8 -21 vhcurveto
          -218 226 rlineto
          -55 57 -16 18 44 vvcurveto
          51 19 33 72 51 27 -13 -1 4 vhcurveto
          20 -105 rlineto
          55 156 hlineto
          10 -23 -62 18 -63 hhcurveto
          -125 -64 -71 -91 -56 28 -45 48 -52 hvcurveto
          -41 -22 -81 -55 -101 vvcurveto
          -143 116 -38 120 75 59 24 36 44 vhcurveto
          -254 260 rmoveto
          210 -215 rlineto
          -24 -31 -41 -13 -48 hhcurveto
          -114 -37 44 83 70 39 38 22 17 hvcurveto
          endchar
        </CharString>
        <CharString name="aogonek">
          -31 364 16 callsubr
          -27 -14 14 27 32 30 30 22 18 hvcurveto
          38 5 31 13 0 vvcurveto
          -80 callsubr
          -94 -63 -144 -41 -85 -33 23 -17 30 24 14 8 0 vhcurveto
          15 92 rlineto
          0 22 7 35 63 28 -26 -56 vhcurveto
          -72 vlineto
          -96 -15 rlineto
          -111 -16 -64 -49 -85 vvcurveto
          -66 41 -60 102 66 52 38 13 11 vhcurveto
          6 hlineto
          3 -20 8 -18 26 -6 rrcurveto
          -37 -25 -34 -38 -48 26 callgsubr
          vhcurveto
          -140 248 rmoveto
          -59 -28 32 40 57 44 28 123 -43 callsubr
        </CharString>
        <CharString name="approxequal">
          10 93 299 21 callsubr
          8 21 15 hvcurveto
          34 48 -23 27 -69 -33 35 callsubr
          -11 -20 -15 hvcurveto
          -34 -48 rlineto
          24 -188 21 callsubr
          9 21 15 hvcurveto
          34 46 -23 29 -69 -34 35 callsubr
          -12 -21 -15 hvcurveto
          -34 -46 rlineto
          endchar
        </CharString>
        <CharString name="aring">
          -31 227 543 rmoveto
          65 36 42 51 50 -30 39 -64 -68 -33 -45 -50 -51 29 -36 65 hvcurveto
          4 44 rmoveto
          -27 -11 8 39 32 8 13 28 26 13 -8 -37 -33 -8 -14 -29 hvcurveto
          -55 -596 -102 callgsubr
        </CharString>
        <CharString name="aringacute">
          -28 199 800 rmoveto
          -88 callgsubr
          -156 -289 -37 callgsubr
          -66 -596 -107 callgsubr
          endchar
        </CharString>
        <CharString name="asciicircum">
          10 235 649 rmoveto
          -191 -387 rlineto
          79 hlineto
          143 302 141 -302 rlineto
          80 hlineto
          -190 387 rlineto
          endchar
        </CharString>
        <CharString name="asciitilde">
          -20 342 225 rmoveto
          25 22 10 22 16 hvcurveto
          37 52 -24 29 -76 -35 -98 23 rlineto
          7 -31 -32 7 -24 hhcurveto
          -27 -20 -11 -23 -16 hvcurveto
          -36 -51 25 -28 75 35 98 -23 rlineto
          -7 32 21 -7 33 hhcurveto
          endchar
        </CharString>
        <CharString name="asterisk">
          -136 157 347 rmoveto
          33 5 46 22 4 hvcurveto
          14 77 105 -101 rlineto
          32 21 12 15 16 vvcurveto
          29 -31 10 -22 13 vhcurveto
          -69 36 129 68 rlineto
          45 -14 -11 15 -20 hhcurveto
          -23 -14 -18 -15 -16 hvcurveto
          -60 -56 -22 143 rlineto
          -21 hlineto
          -42 -10 -16 -18 -17 10 -19 8 -17 hvcurveto
          33 -72 -143 23 rlineto
          -9 -22 -4 -15 -12 vvcurveto
          -28 25 -6 16 10 17 2 1 10 vhcurveto
          78 9 -63 -131 rlineto
          -19 24 16 -9 13 hhcurveto
          53 154 rmoveto
          -35 10 rlineto
          37 vlineto
          33 13 22 -30 rlineto
          endchar
        </CharString>
        <CharString name="at">
          242 377 -109 rmoveto
          133 79 67 1 hvcurveto
          -17 34 rlineto
          -6 -13 -81 -32 -83 hhcurveto
          -171 -112 101 202 231 161 74 132 135 120 -73 -196 -129 -51 -48 -55 -31 -16 16 28 4 1 12 2 12 hvcurveto
          44 264 rlineto
          -42 hlineto
          -10 -10 -10 -11 -10 -11 rrcurveto
          0 -47 21 -44 -129 -52 -153 -90 -89 36 -48 63 59 53 50 11 16 vhcurveto
          -48 15 47 -21 47 hhcurveto
          119 79 96 164 170 -122 145 -207 -229 -161 -181 -196 -213 133 -148 219 hvcurveto
          -37 243 rmoveto
          -36 -12 25 63 62 21 64 16 18 hvcurveto
          6 6 21 6 22 hhcurveto
          53 27 -18 0 hvcurveto
          -31 -190 rlineto
          0 -44 -36 -43 vhcurveto
          endchar
        </CharString>
        <CharString name="atilde">
          -31 307 571 rmoveto
          27 23 13 24 15 hvcurveto
          31 52 -26 24 -70 -36 -86 27 rlineto
          7 -31 callsubr
          -24 -13 -24 -15 hvcurveto
          10 callgsubr
          86 -27 rlineto
          -7 26 27 -8 21 hhcurveto
          -131 -580 -102 callgsubr
        </CharString>
        <CharString name="b">
          6 275 -9 rmoveto
          112 102 96 193 161 -80 64 -102 -76 -49 -36 -15 -17 hvcurveto
          6 vlineto
          2 14 rlineto
          211 36 callsubr
          -617 49 vlineto
          31 36 rlineto
          9 hlineto
          -13 14 37 -30 65 hhcurveto
          -18 64 rmoveto
          -39 -35 11 6 -16 hvcurveto
          343 vlineto
          5 17 35 10 43 hhcurveto
          88 33 -52 -128 -146 -47 -49 -79 hvcurveto
          endchar
        </CharString>
        <CharString name="backslash">
          -135 -34 665 rmoveto
          362 -832 68 30 -364 832 rlineto
          endchar
        </CharString>
        <CharString name="bar">
          -159 146 699 rmoveto
          -855 69 855 vlineto
          endchar
        </CharString>
        <CharString name="braceleft">
          -303 174 -151 rmoveto
          20 46 rlineto
          -54 30 -12 18 58 vvcurveto
          16 214 rlineto
          47 -35 15 -10 5 vhcurveto
          8 4 37 14 48 vvcurveto
          -15 200 rlineto
          58 11 19 55 30 vhcurveto
          -21 45 rlineto
          -75 -22 -58 -53 -81 vvcurveto
          -6 0 -5 1 -5 vhcurveto
          27 -200 -19 -9 -21 -9 -19 -8 rlinecurve
          -39 vlineto
          59 -27 -27 -215 -1 -5 0 -5 -1 -6 rlinecurve
          -81 60 -52 74 -23 vhcurveto
          endchar
        </CharString>
        <CharString name="braceright">
          -303 43 -151 rmoveto
          74 23 60 52 81 vvcurveto
          -1 6 0 6 -1 5 -27 214 rcurveline
          19 9 21 9 18 9 rrcurveto
          39 vlineto
          -18 8 -21 9 -19 9 27 203 rcurveline
          1 6 0 3 4 vvcurveto
          81 -59 53 -74 22 vhcurveto
          -21 -45 rlineto
          55 -30 11 -19 -58 vvcurveto
          -15 -200 rlineto
          -48 35 -14 10 -4 vhcurveto
          -11 -5 -34 -15 -47 vvcurveto
          16 -214 rlineto
          -58 -12 -18 -54 -30 vhcurveto
          endchar
        </CharString>
        <CharString name="bracketleft">
          -267 68 701 rmoveto
          -852 173 49 vlineto
          -93 15 rlineto
          723 vlineto
          93 15 rlineto
          50 vlineto
          endchar
        </CharString>
        <CharString name="bracketright">
          -267 12 -102 rmoveto
          -49 174 852 -174 -50 vlineto
          93 -14 rlineto
          -724 vlineto
          endchar
        </CharString>
        <CharString name="breve">
          -210 58 710 -46 callsubr
        </CharString>
        <CharString name="brokenbar">
          -159 146 699 rmoveto
          -365 69 365 vlineto
          -69 -490 rmoveto
          -365 69 365 vlineto
          endchar
        </CharString>
        <CharString name="bullet">
          -107 90 305 rmoveto
          -63 50 -50 63 63 51 50 63 63 -51 51 -63 -63 -50 -51 -63 vhcurveto
          endchar
        </CharString>
        <CharString name="c">
          -76 406 51 rmoveto
          -83 callsubr
          104 59 61 0 vhcurveto
          endchar
        </CharString>
        <CharString name="cacute">
          -68 159 569 rmoveto
          30 -34 -6 callsubr
          154 -637 rmoveto
          -83 callsubr
          104 59 61 0 vhcurveto
          endchar
        </CharString>
        <CharString name="cacute.loclPLK">
          -76 214 -41 callgsubr
          117 -635 rmoveto
          -83 callsubr
          104 59 61 0 vhcurveto
          endchar
        </CharString>
        <CharString name="caron">
          -215 151 542 -85 callgsubr
          endchar
        </CharString>
        <CharString name="ccaron">
          -68 247 542 rmoveto
          16 17 15 21 20 hvcurveto
          98 -10 callgsubr
          8 -552 rmoveto
          104 59 61 0 hvcurveto
          -83 callsubr
          vhcurveto
          endchar
        </CharString>
        <CharString name="ccedilla">
          -68 236 -189 rmoveto
          66 57 -22 callgsubr
          20 vlineto
          94 5 54 55 0 vvcurveto
          -14 34 rlineto
          0 -47 -19 -63 -108 -46 50 136 132 30 56 92 21 24 -4 -6 12 vhcurveto
          17 -95 rlineto
          -4 6 14 -3 13 hhcurveto
          41 15 26 25 69 -60 57 -100 -137 -92 -108 -162 -149 71 -82 116 -12 hvcurveto
          -23 -53 20 -20 35 -40 callgsubr
        </CharString>
        <CharString name="ccircumflex">
          -76 94 578 -102 callsubr
          208 -633 rmoveto
          -83 callsubr
          104 59 61 0 vhcurveto
          endchar
        </CharString>
        <CharString name="cdotaccent">
          -76 240 -87 callsubr
          166 -515 rmoveto
          -83 callsubr
          104 59 61 0 vhcurveto
          endchar
        </CharString>
        <CharString name="cedilla">
          -346 64 -189 rmoveto
          66 57 -22 callgsubr
          29 -43 vlineto
          -27 -61 21 -20 34 -40 callgsubr
        </CharString>
        <CharString name="cent">
          -36 244 61 rmoveto
          5 -110 rlineto
          61 hlineto
          5 109 rlineto
          71 10 50 41 0 vvcurveto
          43 -2 callsubr
          19 3 -68 hvcurveto
          -5 106 3 callgsubr
        </CharString>
        <CharString name="cent.osf">
          -36 244 -7 rmoveto
          5 -110 rlineto
          61 hlineto
          5 110 rlineto
          71 9 50 42 0 vvcurveto
          42 -2 callsubr
          20 3 -68 hvcurveto
          -5 105 3 callgsubr
        </CharString>
        <CharString name="circumflex">
          -214 3 578 -102 callsubr
          endchar
        </CharString>
        <CharString name="colon">
          -308 104 319 rmoveto
          42 25 35 38 39 -25 25 -36 -39 -28 -33 -38 -39 24 -27 37 hvcurveto
          -329 vmoveto
          42 25 34 38 40 -25 25 -36 -39 -28 -33 -38 -39 24 -33 callgsubr
        </CharString>
        <CharString name="comma">
          -334 58 -132 rmoveto
          18 19 83 95 71 vvcurveto
          37 -24 29 -38 -34 -22 -22 -28 -13 vhcurveto
          16 -13 16 -24 -29 vvcurveto
          -28 -15 -47 -22 -45 vhcurveto
          endchar
        </CharString>
        <CharString name="copyright">
          133 1 325 rmoveto
          -180 146 -146 181 180 146 146 180 181 -146 146 -180 -181 -146 -146 -181 vhcurveto
          326 -270 rmoveto
          -150 -110 121 148 148 110 121 150 149 114 -121 -148 -148 -114 -121 -149 hvcurveto
          82 220 rmoveto
          -11 -55 rlineto
          -2 -3 -13 -10 -42 hhcurveto
          -63 -34 26 88 94 27 25 69 33 19 -6 -1 3 hvcurveto
          10 -52 rlineto
          37 99 hlineto
          8 -22 -44 6 -46 hhcurveto
          -103 -63 -78 -94 -108 50 -60 107 64 39 13 9 21 hvcurveto
          98 vlineto
          endchar
        </CharString>
        <CharString name="currency">
          10 95 204 rmoveto
          -85 -89 44 -44 91 85 rlineto
          -22 32 40 -12 43 hhcurveto
          45 42 14 25 34 hvcurveto
          94 -91 45 44 -92 95 rlineto
          23 33 15 41 44 vvcurveto
          42 -14 39 -22 32 vhcurveto
          90 94 -45 44 -93 -87 rlineto
          25 -33 -43 16 -46 hhcurveto
          -44 -40 -14 -23 -33 hvcurveto
          -88 84 -45 -44 83 -88 rlineto
          -24 -34 -14 -41 -45 vvcurveto
          -46 15 -43 25 -34 vhcurveto
          44 123 rmoveto
          65 56 56 65 65 56 -56 -65 -65 -56 -55 -65 -65 -56 55 65 vhcurveto
          endchar
        </CharString>
        <CharString name="d">
          -50 callsubr
          endchar
        </CharString>
        <CharString name="dagger">
          -80 181 425 rmoveto
          -9 -425 rlineto
          96 hlineto
          -9 425 156 -12 rlineto
          91 vlineto
          -158 -12 12 177 rlineto
          -98 hlineto
          12 -177 -158 12 rlineto
          -91 vlineto
          endchar
        </CharString>
        <CharString name="daggerdbl">
          -79 172 hmoveto
          97 hlineto
          -12 166 157 -12 rlineto
          91 vlineto
          -157 -11 rlineto
          201 vlineto
          157 -11 rlineto
          91 vlineto
          -157 -12 12 166 rlineto
          -97 hlineto
          11 -166 -157 12 rlineto
          -91 vlineto
          158 11 rlineto
          -201 vlineto
          -158 11 rlineto
          -91 vlineto
          157 12 rlineto
          endchar
        </CharString>
        <CharString name="dcaron">
          36 503 542 rmoveto
          36 hlineto
          0 58 74 52 vvcurveto
          28 -16 26 -37 -22 -16 -11 -11 -9 vhcurveto
          13 -17 10 -20 -24 vvcurveto
          -28 -6 -40 -11 -29 vhcurveto
          -279 -552 rmoveto
          73 47 36 21 19 hvcurveto
          4 -1 16 -51 148 -23 callsubr
          609 45 callgsubr
          -17 rlineto
          -44 vlineto
          82 -23 rlineto
          -121 vlineto
          2 -16 -1 -8 rlineto
          13 -16 -35 22 -56 hhcurveto
          -98 -117 -77 -209 -161 83 -68 102 hvcurveto
          37 76 -20 callsubr
        </CharString>
        <CharString name="dcroat">
          25 223 -10 rmoveto
          72 47 36 21 19 hvcurveto
          4 -1 16 -51 148 -23 callsubr
          473 37 57 -37 79 36 callgsubr
          -25 -180 -57 180 -58 vlineto
          2 -14 -1 -11 rlineto
          13 -16 -35 23 -55 hhcurveto
          -99 -117 -76 -207 -161 84 -68 102 hvcurveto
          36 76 rmoveto
          -87 -30 54 127 144 51 42 76 38 34 -9 -6 17 hvcurveto
          -328 vlineto
          -10 -19 -38 -14 -42 hhcurveto
          endchar
        </CharString>
        <CharString name="degree">
          -282 17 570 rmoveto
          -57 44 -44 57 57 45 44 57 57 -45 45 -57 -57 -44 -45 -57 vhcurveto
          54 -1 rmoveto
          28 20 21 27 28 21 -21 -28 -27 -21 -20 -28 -27 -20 20 27 vhcurveto
          endchar
        </CharString>
        <CharString name="dieresis">
          -186 57 571 -90 callgsubr
          endchar
        </CharString>
        <CharString name="divide">
          10 263 364 rmoveto
          43 26 36 39 41 -26 25 -38 -40 -29 -33 -40 -39 26 -29 38 hvcurveto
          -196 -134 rmoveto
          395 73 -395 hlineto
          196 -278 rmoveto
          43 26 35 40 41 -26 25 -38 -40 -29 -34 -39 -40 26 -28 38 hvcurveto
          endchar
        </CharString>
        <CharString name="dollar">
          -45 447 188 rmoveto
          111 -72 37 -96 43 vhcurveto
          -80 35 -48 19 70 vvcurveto
          56 31 28 70 43 31 -10 -12 21 vhcurveto
          20 -97 rlineto
          55 161 hlineto
          -25 8 -61 12 -52 4 -4 106 rcurveline
          -61 hlineto
          -5 -108 rlineto
          -102 -15 -61 -67 -95 vvcurveto
          -120 97 -38 74 -32 vhcurveto
          92 -39 35 -26 -62 vvcurveto
          -63 -34 -36 -74 -52 -41 18 22 -26 vhcurveto
          -16 101 rlineto
          -56 -153 hlineto
          25 -22 65 -25 70 -5 4 -108 rcurveline
          60 hlineto
          4 110 rlineto
          98 15 71 67 110 vvcurveto
          endchar
        </CharString>
        <CharString name="dollar.osf">
          -53 211 -117 rmoveto
          60 hlineto
          4 111 rlineto
          74 12 69 45 102 190 -272 -69 120 vvcurveto
          45 19 23 79 48 37 -14 0 vhcurveto
          16 -73 rlineto
          50 135 hlineto
          -16 6 -52 12 -51 3 -4 106 rcurveline
          -62 hlineto
          -4 -108 rlineto
          -92 -15 -57 -59 -84 -191 268 74 -118 vvcurveto
          -59 -15 -23 -86 -54 -35 22 3 -6 vhcurveto
          -17 84 rlineto
          -51 -135 hlineto
          21 -17 63 -18 62 -3 rrcurveto
          endchar
        </CharString>
        <CharString name="dotaccent">
          -389 62 -87 callsubr
          endchar
        </CharString>
        <CharString name="dotbelowcomb">
          -69 -182 -100 callsubr
        </CharString>
        <CharString name="dotlessi">
          -222 25 45 -80 callgsubr
        </CharString>
        <CharString name="e">
          -52 246 -10 -103 callgsubr
          endchar
        </CharString>
        <CharString name="eacute">
          -46 187 535 rmoveto
          -6 callsubr
          -105 -119 rlineto
          100 -579 -96 callsubr
        </CharString>
        <CharString name="ebreve">
          -52 149 710 -95 callgsubr
          97 -720 -103 callgsubr
          endchar
        </CharString>
        <CharString name="ecaron">
          -46 243 542 -85 callgsubr
          14 -552 -96 callsubr
        </CharString>
        <CharString name="ecircumflex">
          -46 354 542 rmoveto
          36 39 -106 109 rlineto
          15 -15 -13 8 -12 hhcurveto
          -15 -16 -11 -18 -18 hvcurveto
          -105 -106 29 -35 116 80 rlineto
          22 -633 -96 callsubr
        </CharString>
        <CharString name="edieresis">
          -46 139 571 rmoveto
          38 24 31 36 37 -24 23 -33 -87 callgsubr
          -97 -581 -96 callsubr
        </CharString>
        <CharString name="edotaccent">
          -46 248 566 rmoveto
          43 25 35 39 41 -25 24 -37 -40 -28 -33 -39 -16 callsubr
          9 -576 -96 callsubr
        </CharString>
        <CharString name="egrave">
          -46 308 535 rmoveto
          31 -70 callsubr
          123 -662 -96 callsubr
        </CharString>
        <CharString name="eight">
          -28 -11 65 537 72 hstem
          52 91 207 88 vstem
          243 -11 rmoveto
          152 67 95 96 85 -49 46 -71 39 hvcurveto
          56 33 41 55 73 vvcurveto
          90 -64 62 -119 -113 -87 -73 -108 -76 42 -49 62 -35 vhcurveto
          -66 -39 -52 -66 -75 vvcurveto
          -97 69 -56 132 vhcurveto
          51 384 rmoveto
          -13 6 -15 6 -14 7 rrcurveto
          -72 33 -29 28 54 vvcurveto
          50 25 34 72 72 31 -27 -69 -52 -20 -39 -37 -31 vhcurveto
          -41 -320 rmoveto
          -82 -32 41 72 45 17 46 50 43 hvcurveto
          25 -11 rlineto
          92 -36 42 -32 -59 vvcurveto
          -71 -35 -38 -77 vhcurveto
          endchar
        </CharString>
        <CharString name="eight.osf">
          -29 244 -11 rmoveto
          133 80 77 112 87 -48 48 -74 40 hvcurveto
          56 33 45 53 73 vvcurveto
          96 -61 62 -118 -113 -83 -81 -101 -75 33 -53 73 -39 vhcurveto
          -65 -36 -54 -62 -76 vvcurveto
          -89 61 -69 135 vhcurveto
          35 391 rmoveto
          -23 10 rlineto
          -74 32 -26 31 56 vvcurveto
          53 23 35 71 69 33 -33 -69 -58 -36 -30 -37 -27 vhcurveto
          -28 -324 rmoveto
          -80 -32 41 66 46 26 47 62 37 hvcurveto
          22 -8 rlineto
          75 -26 38 -36 -59 vvcurveto
          -67 -33 -41 -78 vhcurveto
          endchar
        </CharString>
        <CharString name="ellipsis">
          41 90 -10 rmoveto
          17 callgsubr
          184 hmoveto
          39 23 32 36 37 -23 22 -34 -36 -26 -30 -35 -37 23 -25 34 hvcurveto
          183 hmoveto
          17 callgsubr
          endchar
        </CharString>
        <CharString name="emacron">
          -46 76 600 rmoveto
          37 callgsubr
          -336 hlineto
          170 -675 -96 callsubr
        </CharString>
        <CharString name="emdash">
          468 3 303 rmoveto
          -73 982 73 vlineto
          endchar
        </CharString>
        <CharString name="endash">
          -26 3 302 rmoveto
          -73 488 73 vlineto
          endchar
        </CharString>
        <CharString name="eng">
          40 378 -166 rmoveto
          71 40 30 54 hvcurveto
          449 vlineto
          90 -48 49 -86 -63 -71 -35 -15 -23 vhcurveto
          -2 3 -15 39 -156 40 callsubr
          79 -15 rlineto
          -351 vlineto
          -79 -14 rlineto
          -45 252 45 vlineto
          -76 14 rlineto
          360 vlineto
          7 26 38 4 30 hhcurveto
          70 40 callgsubr
          -437 vlineto
          -106 -25 rlineto
          -42 vlineto
          -7 24 37 -5 31 hhcurveto
          endchar
        </CharString>
        <CharString name="eogonek">
          -46 309 16 callsubr
          -28 -13 14 27 38 42 40 26 19 hvcurveto
          38 18 24 24 0 vvcurveto
          -16 33 rlineto
          0 -42 -24 -80 -112 -37 72 92 -1 -13 callsubr
          36 12 17 71 91 -45 96 -129 -132 -95 -107 -163 -151 74 -94 149 10 9 1 1 10 hvcurveto
          -34 -24 -30 -35 -46 26 callgsubr
          vhcurveto
          -170 469 rmoveto
          99 2 29 59 79 hhcurveto
          71 17 -26 callsubr
        </CharString>
        <CharString name="equal">
          10 66 313 rmoveto
          398 71 -398 hlineto
          -232 vmoveto
          398 70 -398 hlineto
          endchar
        </CharString>
        <CharString name="estimated">
          250 204 107 rmoveto
          205 520 vlineto
          203 -6 -130 144 -200 hhcurveto
          -188 -148 -151 -187 -186 149 -150 188 117 101 66 77 63 hvcurveto
          -61 hlineto
          -59 -56 -68 -39 -94 hhcurveto
          -80 -61 29 48 -46 hvcurveto
          368 249 rmoveto
          -368 185 hlineto
          46 47 59 27 79 hhcurveto
          77 62 -28 -43 44 hvcurveto
          endchar
        </CharString>
        <CharString name="eth">
          5 265 -11 rmoveto
          140 89 95 230 149 -45 107 -75 61 hvcurveto
          64 39 -29 49 -89 -54 rlineto
          17 -38 -41 9 -46 hhcurveto
          -53 -26 -6 0 hvcurveto
          -47 vlineto
          52 43 -5 -12 33 hvcurveto
          -78 -48 29 -48 106 63 40 -32 21 -48 12 -55 rlinecurve
          7 -14 -36 16 -51 hhcurveto
          -140 -95 -89 -151 -154 71 -93 156 hvcurveto
          6 64 rmoveto
          -115 -12 96 96 103 29 60 100 51 38 -13 -8 20 hvcurveto
          2 -24 3 -45 -47 vvcurveto
          -143 -20 -75 -96 vhcurveto
          endchar
        </CharString>
        <CharString name="exclam">
          -313 32 667 rmoveto
          34 -507 rlineto
          56 hlineto
          18 357 6 60 49 vvcurveto
          28 -5 25 -52 -41 -16 -12 0 vhcurveto
          60 -683 11 callsubr
        </CharString>
        <CharString name="exclamdown">
          -313 102 396 rmoveto
          38 26 33 35 38 -23 25 -35 -41 -24 -33 -36 -38 24 -24 35 hvcurveto
          9 -564 rmoveto
          41 15 12 0 hvcurveto
          -34 507 rlineto
          -56 hlineto
          -22 -427 -2 -29 -7 vvcurveto
          -29 5 -27 53 vhcurveto
          endchar
        </CharString>
        <CharString name="f">
          -205 16 hmoveto
          273 46 hlineto
          18 callsubr
          3 6 12 4 12 hhcurveto
          24 28 -9 -16 58 hvcurveto
          7 3 25 17 32 vvcurveto
          34 -25 18 -41 -113 -85 -83 -120 -5 vhcurveto
          -65 -14 rlineto
          -52 65 -374 vlineto
          -72 -14 rlineto
          endchar
        </CharString>
        <CharString name="f_f">
          104 16 hmoveto
          267 46 hlineto
          -98 16 rlineto
          371 212 -374 vlineto
          -72 -14 rlineto
          -45 273 46 vlineto
          18 callsubr
          -25 callsubr
          -13 -3 rlineto
          -199 120 hlineto
          -25 callsubr
          -65 -14 rlineto
          -52 65 -374 vlineto
          -72 -14 rlineto
          endchar
        </CharString>
        <CharString name="fi">
          62 25 45 rmoveto
          -45 256 45 vlineto
          -87 17 rlineto
          371 113 vlineto
          82 -23 rlineto
          -351 vlineto
          -77 -14 rlineto
          -45 250 45 vlineto
          -76 14 rlineto
          425 vlineto
          -31 12 rlineto
          -261 106 hlineto
          7 5 22 5 29 82 21 -26 37 hhcurveto
          32 19 27 26 46 -38 15 -78 -102 -116 -70 -133 -11 hvcurveto
          51 callsubr
        </CharString>
        <CharString name="five">
          -70 -12 103 247 86 137 87 hstem
          65 67 220 91 vstem
          201 -12 rmoveto
          146 91 85 144 137 -89 55 -177 hvcurveto
          -61 152 291 87 -357 -309 102 hlineto
          138 47 -49 -91 -90 -35 -54 -93 -64 -35 21 4 -9 hvcurveto
          -10 95 rlineto
          -58 hlineto
          -8 -144 rlineto
          -21 34 58 -22 89 hhcurveto
          endchar
        </CharString>
        <CharString name="five.osf">
          -72 107 -166 rmoveto
          170 127 86 159 159 -154 37 -130 1 hvcurveto
          12 156 rlineto
          250 130 -52 hlineto
          -13 -43 rlineto
          -245 hlineto
          -26 -310 rlineto
          164 86 -40 -116 -110 -75 -57 -194 hvcurveto
          -45 vlineto
          0 30 -7 50 vhcurveto
          endchar
        </CharString>
        <CharString name="fl">
          79 25 45 rmoveto
          -45 268 45 vlineto
          -99 16 rlineto
          372 115 vlineto
          13 29 rlineto
          34 -128 114 vlineto
          10 17 42 4 31 hhcurveto
          47 51 -10 -8 21 hvcurveto
          -547 vlineto
          -76 -14 rlineto
          -45 250 45 vlineto
          -77 14 rlineto
          608 vlineto
          0 -54 35 -109 -160 -77 -74 -129 -4 vhcurveto
          51 callsubr
        </CharString>
        <CharString name="florin">
          -103 147 400 rmoveto
          -16 -375 rlineto
          -38 -3 -12 -33 -44 hhcurveto
          -29 -27 11 9 -21 hvcurveto
          0 -39 -8 -37 vvcurveto
          -40 27 -13 61 107 68 83 117 9 vhcurveto
          10 324 rlineto
          111 hlineto
          6 61 rlineto
          -112 hlineto
          6 63 rlineto
          38 5 14 22 43 hhcurveto
          29 31 -11 -9 21 hvcurveto
          0 39 8 37 vvcurveto
          40 -27 13 -61 -107 -68 -83 -118 -12 vhcurveto
          -82 -17 -5 -44 rlineto
          endchar
        </CharString>
        <CharString name="four">
          -27 0 171 5 73 432 -20 hstem
          281 97 vstem
          205 hmoveto
          263 48 hlineto
          -83 16 rlineto
          112 88 73 -88 407 vlineto
          -65 25 -324 -449 29 -56 rlineto
          263 -112 hlineto
          -83 -16 rlineto
          -108 201 rmoveto
          -2 7 185 258 7 16 2 -3 -1 -16 rlineto
          -262 vlineto
          endchar
        </CharString>
        <CharString name="four.osf">
          -8 299 -164 rmoveto
          95 188 88 72 -88 417 hlineto
          -65 21 -321 -450 28 -60 rlineto
          263 hlineto
          -200 72 rmoveto
          8 vlineto
          194 269 6 9 1 -2 -1 -9 rlineto
          -275 vlineto
          endchar
        </CharString>
        <CharString name="fraction">
          -100 419 692 rmoveto
          -481 -694 58 -38 480 694 rlineto
          endchar
        </CharString>
        <CharString name="g">
          -53 215 -166 -105 callsubr
        </CharString>
        <CharString name="g_tilde.loclGUA">
          -53 89 653 rmoveto
          10 callgsubr
          -92 callsubr
          126 -819 -105 callsubr
        </CharString>
        <CharString name="gbreve">
          -50 226 50 callsubr
          -37 10 rlineto
          0 -13 -87 -96 -96 -11 86 0 vhcurveto
          -58 -18 rlineto
          0 15 -140 144 vhcurveto
          -11 -718 -105 callsubr
        </CharString>
        <CharString name="gcaron">
          -53 232 542 -85 callgsubr
          -17 -708 -105 callsubr
        </CharString>
        <CharString name="gcircumflex">
          -53 84 578 -102 callsubr
          27 -850 -105 callsubr
        </CharString>
        <CharString name="gcommaaccent">
          -50 219 545 rmoveto
          38 15 29 25 67 -61 59 0 hvcurveto
          -35 hlineto
          7 -20 12 -44 -33 vvcurveto
          -31 -15 -19 -9 -9 vhcurveto
          -16 14 17 -8 17 hhcurveto
          -4 -711 -105 callsubr
        </CharString>
        <CharString name="gdotaccent">
          -53 230 -87 callsubr
          -15 -732 -105 callsubr
        </CharString>
        <CharString name="germandbls">
          89 396 -11 rmoveto
          89 87 42 110 93 -63 27 -73 24 hvcurveto
          -47 15 -33 10 40 vvcurveto
          53 60 21 36 35 vhcurveto
          26 23 22 31 48 vvcurveto
          92 -79 49 -105 -127 -92 -71 -132 -1 vhcurveto
          -65 -14 rlineto
          -52 66 -374 vlineto
          -72 -14 rlineto
          -45 169 521 vlineto
          73 36 39 77 68 28 -30 -43 -42 -24 -20 -33 -25 vhcurveto
          -36 -28 -45 -32 -76 vvcurveto
          -91 63 -21 58 -19 vhcurveto
          68 -21 29 -10 -49 vvcurveto
          -41 -22 -35 -60 -40 -26 16 11 -12 vhcurveto
          -17 79 rlineto
          -48 hlineto
          25 callsubr
          17 61 -25 70 hhcurveto
          endchar
        </CharString>
        <CharString name="grave">
          -315 652 vmoveto
          -76 callsubr
          endchar
        </CharString>
        <CharString name="gravecomb">
          -205 652 rmoveto
          -76 callsubr
          endchar
        </CharString>
        <CharString name="gravecomb.case">
          -23 678 rmoveto
          -77 callsubr
          endchar
        </CharString>
        <CharString name="greater">
          10 32 72 rmoveto
          34 -72 436 216 rlineto
          62 vlineto
          -435 224 -36 -73 369 -179 rlineto
          endchar
        </CharString>
        <CharString name="greaterequal">
          10 63 52 rmoveto
          436 216 rlineto
          62 vlineto
          -435 220 -32 -67 372 -184 -375 -181 rlineto
          8 -156 rmoveto
          461 70 -461 hlineto
          endchar
        </CharString>
        <CharString name="guillemotleft">
          -130 80 173 rmoveto
          95 -106 34 22 -82 156 82 153 -34 22 -101 -112 rlineto
          -14 -16 -29 -34 -13 vvcurveto
          -17 34 -36 15 -19 vhcurveto
          160 hmoveto
          94 -106 35 22 -82 156 82 153 -35 22 -101 -112 rlineto
          -14 -16 -28 -34 -13 vvcurveto
          -17 34 -36 15 -19 vhcurveto
          endchar
        </CharString>
        <CharString name="guillemotright">
          -130 103 244 rmoveto
          -82 -155 35 -22 95 106 rlineto
          14 18 35 37 16 vvcurveto
          14 -29 33 -14 17 vhcurveto
          -101 112 -35 -22 rlineto
          242 -154 rmoveto
          -82 -155 35 -22 94 106 rlineto
          15 18 34 37 16 vvcurveto
          14 -28 33 -15 17 vhcurveto
          -100 112 -35 -22 rlineto
          endchar
        </CharString>
        <CharString name="guilsinglleft">
          -290 80 175 rmoveto
          95 -106 34 22 -82 154 82 152 -34 21 -101 -112 rlineto
          -14 -16 -29 -32 -13 vvcurveto
          -17 34 -34 15 -19 vhcurveto
          endchar
        </CharString>
        <CharString name="guilsinglright">
          -290 103 245 rmoveto
          -82 -154 35 -22 94 106 rlineto
          15 19 35 34 17 vvcurveto
          13 -29 32 -14 16 vhcurveto
          -101 112 -35 -21 rlineto
          endchar
        </CharString>
        <CharString name="h">
          63 22 hmoveto
          -64 callsubr
          endchar
        </CharString>
        <CharString name="hbar">
          63 22 hmoveto
          254 46 callgsubr
          356 vlineto
          1 6 49 11 38 hhcurveto
          68 30 -21 -60 hvcurveto
          -287 32 callsubr
          304 vlineto
          102 -61 37 -74 -74 -74 -47 -5 -7 vhcurveto
          -1 6 3 8 rlineto
          84 136 57 -136 80 36 callgsubr
          -26 -82 -57 82 -489 vlineto
          -81 -14 rlineto
          endchar
        </CharString>
        <CharString name="hcircumflex">
          63 1 732 -102 callsubr
          -83 -838 rmoveto
          -64 callsubr
          endchar
        </CharString>
        <CharString name="hookabovecomb">
          -158 536 -103 callsubr
          endchar
        </CharString>
        <CharString name="hookabovecomb.case">
          -160 675 -104 callsubr
          endchar
        </CharString>
        <CharString name="hungarumlaut">
          -191 59 -19 callgsubr
        </CharString>
        <CharString name="hyphen">
          30 callgsubr
        </CharString>
        <CharString name="i">
          -21 callgsubr
          endchar
        </CharString>
        <CharString name="i.loclTRK">
          -222 150 -87 callsubr
          -125 -1 callgsubr
          endchar
        </CharString>
        <CharString name="iacute">
          -222 68 535 rmoveto
          19 callgsubr
          -105 -119 rlineto
          -13 -569 -24 callsubr
        </CharString>
        <CharString name="iacute_j.loclNLD">
          47 105 569 rmoveto
          -88 callgsubr
          183 -119 rmoveto
          -88 callgsubr
          -473 -643 -92 callgsubr
          182 -171 -27 callsubr
        </CharString>
        <CharString name="ibreve">
          -222 57 710 -95 callgsubr
          -32 -665 -80 callgsubr
        </CharString>
        <CharString name="icircumflex">
          -222 -13 583 rmoveto
          27 -32 111 74 105 -76 35 37 -82 89 rlineto
          18 -15 -25 26 -14 hhcurveto
          -15 -28 -30 -17 -16 hvcurveto
          -45 -627 -80 callgsubr
        </CharString>
        <CharString name="idieresis">
          -221 32 569 rmoveto
          18 callgsubr
          187 hmoveto
          18 callgsubr
          -193 -569 -24 callsubr
        </CharString>
        <CharString name="igrave">
          -222 18 12 callsubr
          -20 -26 -24 -45 -8 hvcurveto
          7 -607 -80 callgsubr
        </CharString>
        <CharString name="ij">
          47 141 -87 callsubr
          286 hmoveto
          -31 callgsubr
          24 -37 -39 -29 -33 -39 -16 callsubr
          -402 -1 callgsubr
          274 -225 -68 callsubr
        </CharString>
        <CharString name="imacron">
          -222 -27 600 rmoveto
          289 hlineto
          10 67 rlineto
          -290 hlineto
          43 -667 -24 callsubr
        </CharString>
        <CharString name="infinity">
          280 400 239 rmoveto
          -87 66 51 -29 70 hhcurveto
          99 79 72 115 115 -79 73 -99 -70 -49 -28 -88 -68 hvcurveto
          88 -68 -49 28 -70 hhcurveto
          -99 -78 -73 -115 -115 78 -72 99 70 51 29 87 66 hvcurveto
          -49 71 rmoveto
          -55 -38 -45 -54 -55 hhcurveto
          -53 -43 40 69 69 35 44 61 61 42 -59 -54 35 hvcurveto
          98 hmoveto
          54 36 41 59 61 hhcurveto
          61 36 -44 -69 -69 -44 -40 -53 -54 -46 55 54 -38 hvcurveto
          endchar
        </CharString>
        <CharString name="integral">
          -164 132 530 rmoveto
          -574 vlineto
          -22 -6 -18 -24 -41 -10 18 5 -24 vhcurveto
          -7 -7 -19 -13 -31 vvcurveto
          -33 34 -18 40 85 61 84 99 vhcurveto
          574 vlineto
          22 6 18 24 41 10 -18 -5 23 vhcurveto
          7 7 20 13 31 vvcurveto
          33 -34 18 -40 -85 -61 -84 -99 vhcurveto
          endchar
        </CharString>
        <CharString name="iogonek">
          -222 142 -87 callsubr
          -117 -521 rmoveto
          -45 172 vlineto
          -40 13 callsubr
          -18 45 callsubr
          -14 14 27 33 32 31 23 18 hvcurveto
          28 -27 callgsubr
          endchar
        </CharString>
        <CharString name="itilde">
          -222 9 653 rmoveto
          10 callgsubr
          -92 callsubr
          16 -608 -80 callgsubr
        </CharString>
        <CharString name="j">
          -251 129 -87 callsubr
          -48 -732 -68 callsubr
        </CharString>
        <CharString name="jcircumflex">
          -251 -6 578 -102 callsubr
          -109 -796 -27 callsubr
        </CharString>
        <CharString name="k">
          -14 -42 callsubr
          16 rlineto
          44 -205 -45 vlineto
          58 -12 -16 callgsubr
          endchar
        </CharString>
        <CharString name="k.001">
          -14 -42 callsubr
          16 rlineto
          44 -205 -45 vlineto
          58 -12 -16 callgsubr
          endchar
        </CharString>
        <CharString name="kcommaaccent">
          -15 -42 callsubr
          15 rlineto
          45 -205 -44 vlineto
          58 -13 -16 callgsubr
          140 -254 -4 callgsubr
          57 46 67 vvcurveto
          26 -14 29 -38 -17 -17 -9 -16 -14 vhcurveto
          9 -9 15 -55 callsubr
        </CharString>
        <CharString name="kgreenlandic">
          -8 25 45 rmoveto
          -45 249 45 vlineto
          -73 14 rlineto
          181 42 vlineto
          110 -194 rlineto
          5 -7 3 -9 -12 vvcurveto
          -18 177 45 vlineto
          -84 20 -131 226 114 144 63 16 rlineto
          44 -205 -45 vlineto
          58 -12 rlineto
          -12 vlineto
          -101 -126 rlineto
          -51 187 hlineto
          -27 11 -150 -27 25 callgsubr
          -351 vlineto
          endchar
        </CharString>
        <CharString name="l">
          -229 17 45 rmoveto
          -45 253 45 vlineto
          -37 callsubr
          endchar
        </CharString>
        <CharString name="lacute">
          -229 23 682 rmoveto
          -22 callsubr
          42 1 -15 36 -27 hhcurveto
          -12 -20 -13 -11 -17 hvcurveto
          -134 -97 rlineto
          19 -720 rmoveto
          252 45 hlineto
          -75 14 rlineto
          630 vlineto
          -27 10 -151 -22 -24 callgsubr
          81 -15 rlineto
          -557 vlineto
          -80 -14 rlineto
          endchar
        </CharString>
        <CharString name="lcaron">
          -219 244 542 -4 callgsubr
          58 74 52 vvcurveto
          27 -15 27 -37 -23 -15 -11 -11 -10 vhcurveto
          13 -15 10 -20 -25 vvcurveto
          -28 -6 -41 -10 -29 vhcurveto
          -226 -542 rmoveto
          253 45 hlineto
          -37 callsubr
          -80 -14 rlineto
          endchar
        </CharString>
        <CharString name="lcommaaccent">
          -229 18 hmoveto
          253 45 hlineto
          -37 callsubr
          -80 -14 rlineto
          84 -240 -47 callsubr
        </CharString>
        <CharString name="ldot">
          -229 17 45 rmoveto
          -45 253 45 vlineto
          -37 callsubr
          188 236 -21 callsubr
        </CharString>
        <CharString name="less">
          10 32 278 rmoveto
          -62 vlineto
          436 -216 34 72 -368 178 369 179 -36 73 rlineto
          endchar
        </CharString>
        <CharString name="lessequal">
          10 469 52 rmoveto
          34 66 -375 181 373 184 -33 67 -435 -220 rlineto
          -62 vlineto
          1 -306 rmoveto
          462 70 -462 hlineto
          endchar
        </CharString>
        <CharString name="logicalnot">
          10 39 364 rmoveto
          -69 362 -176 63 245 vlineto
          endchar
        </CharString>
        <CharString name="longs">
          -205 16 hmoveto
          273 46 hlineto
          -104 16 rlineto
          554 vlineto
          -25 callsubr
          -65 -14 rlineto
          -52 65 -374 vlineto
          -72 -14 rlineto
          endchar
        </CharString>
        <CharString name="lozenge">
          10 56 329 rmoveto
          172 -329 rlineto
          73 hlineto
          174 329 -174 320 rlineto
          -73 hlineto
          155 -322 rmoveto
          -117 -245 -119 246 117 232 rlineto
          endchar
        </CharString>
        <CharString name="lslash">
          -227 20 45 rmoveto
          -45 252 45 vlineto
          -75 14 rlineto
          279 vlineto
          93 33 rlineto
          63 vlineto
          -93 -35 rlineto
          290 vlineto
          -28 24 callgsubr
          81 -15 rlineto
          -253 vlineto
          -95 -35 rlineto
          -59 vlineto
          95 34 rlineto
          -244 vlineto
          endchar
        </CharString>
        <CharString name="m">
          343 24 hmoveto
          253 46 callgsubr
          358 vlineto
          8 32 39 6 23 hhcurveto
          69 23 -21 -61 hvcurveto
          -290 vlineto
          -67 -14 rlineto
          -45 230 45 vlineto
          -66 14 rlineto
          328 vlineto
          10 0 10 -1 11 vhcurveto
          7 27 43 6 26 hhcurveto
          69 24 -22 -60 hvcurveto
          -290 32 callsubr
          314 vlineto
          80 -54 52 -79 -52 -79 -25 -29 -38 vhcurveto
          34 -22 -44 20 -49 hhcurveto
          -43 -61 -20 -30 -47 hvcurveto
          -30 43 -148 -27 rlineto
          -44 vlineto
          81 -16 rlineto
          -352 vlineto
          -80 -14 rlineto
          endchar
        </CharString>
        <CharString name="macron">
          -170 12 665 -36 callsubr
          endchar
        </CharString>
        <CharString name="minus">
          10 67 305 rmoveto
          -72 395 72 vlineto
          endchar
        </CharString>
        <CharString name="multiply">
          10 83 142 rmoveto
          53 -54 130 129 129 -129 53 53 -129 129 129 129 -55 55 -129 -130 -128 130 -53 -53 129 -130 rlineto
          endchar
        </CharString>
        <CharString name="n">
          64 25 hmoveto
          -99 callsubr
          endchar
        </CharString>
        <CharString name="nacute">
          64 233 48 callsubr
          -26 -60 callsubr
          -105 -119 rlineto
          -178 -569 rmoveto
          -99 callsubr
          endchar
        </CharString>
        <CharString name="nacute.loclPLK">
          64 262 -41 callgsubr
          -312 -686 rmoveto
          -99 callsubr
          endchar
        </CharString>
        <CharString name="napostrophe">
          80 -6 callgsubr
          9 -542 rmoveto
          -99 callsubr
          endchar
        </CharString>
        <CharString name="ncaron">
          64 286 542 rmoveto
          16 17 15 21 20 hvcurveto
          98 -10 callgsubr
          -261 -542 rmoveto
          -99 callsubr
          endchar
        </CharString>
        <CharString name="ncommaaccent">
          64 25 hmoveto
          -99 callsubr
          230 -240 -57 callgsubr
        </CharString>
        <CharString name="nine">
          -24 -8 50 208 79 265 68 hstem
          30 107 226 110 vstem
          158 -8 rmoveto
          189 120 108 256 224 -79 82 -151 -114 -99 -73 -148 -120 75 -71 111 87 52 39 5 7 hvcurveto
          -185 -5 -66 -66 -209 hhcurveto
          -45 vlineto
          -1 10 25 -5 47 hhcurveto
          97 336 rmoveto
          -62 -62 27 97 94 24 48 81 115 6 -104 -142 -1 hvcurveto
          -1 -4 -43 -19 -54 hhcurveto
          endchar
        </CharString>
        <CharString name="nine.osf">
          -14 160 -168 rmoveto
          182 117 152 235 216 -69 97 -153 -125 -83 -90 -137 -124 68 -75 111 53 57 19 27 28 hvcurveto
          -189 -7 -78 -79 -183 hhcurveto
          -45 vlineto
          -4 21 31 -3 30 hhcurveto
          92 354 rmoveto
          -76 -41 43 79 113 29 44 72 70 32 -45 -116 7 hvcurveto
          1 -18 1 -19 -20 -14 -1 -14 -14 vvcurveto
          -11 -22 -39 -8 -33 hhcurveto
          endchar
        </CharString>
        <CharString name="notequal">
          10 164 152 rmoveto
          -81 -126 59 -38 104 164 rlineto
          216 70 -170 hlineto
          59 91 rlineto
          111 71 -67 hlineto
          66 102 -57 37 -91 -139 rlineto
          -249 -71 204 hlineto
          -59 -91 rlineto
          -145 -70 hlineto
          endchar
        </CharString>
        <CharString name="ntilde">
          64 366 576 rmoveto
          27 24 13 24 14 33 callgsubr
          -28 8 -20 hhcurveto
          -27 -25 -13 -24 -14 hvcurveto
          -32 -52 26 -23 43 callgsubr
          -341 -576 rmoveto
          -99 callsubr
          endchar
        </CharString>
        <CharString name="numbersign">
          10 102 121 rmoveto
          51 callgsubr
          122 hlineto
          51 callgsubr
          125 69 -112 hlineto
          23 122 rlineto
          111 69 -97 42 callgsubr
          -122 42 callgsubr
          -131 -69 117 hlineto
          -23 -122 rlineto
          -117 -69 hlineto
          309 69 rmoveto
          -122 hlineto
          23 122 rlineto
          122 hlineto
          endchar
        </CharString>
        <CharString name="o">
          -13 242 -11 -104 callgsubr
          endchar
        </CharString>
        <CharString name="oacute">
          7 181 569 rmoveto
          30 -34 19 callgsubr
          -32 -699 -104 callgsubr
          endchar
        </CharString>
        <CharString name="oacute.loclPLK">
          -13 224 -41 callgsubr
          -57 -697 -104 callgsubr
          endchar
        </CharString>
        <CharString name="obreve">
          -13 157 710 -95 callgsubr
          85 -721 -104 callgsubr
          endchar
        </CharString>
        <CharString name="ocircumflex">
          7 119 578 rmoveto
          29 -35 116 80 119 -81 36 39 -106 109 rlineto
          15 -15 -13 8 -13 hhcurveto
          -14 -48 callsubr
          31 -695 -104 callgsubr
          endchar
        </CharString>
        <CharString name="odieresis">
          7 157 571 rmoveto
          -72 callgsubr
          215 hmoveto
          39 4 callgsubr
          33 hvcurveto
          -118 -582 -104 callgsubr
          endchar
        </CharString>
        <CharString name="oe">
          309 786 57 rmoveto
          -16 33 rlineto
          0 -42 -24 -80 -113 -37 72 92 -13 callsubr
          36 12 17 71 91 -45 96 -129 -70 -59 -30 -52 -41 hvcurveto
          53 -35 -58 30 -82 -36 callgsubr
          82 60 32 52 39 hvcurveto
          -53 36 60 -30 84 hhcurveto
          105 64 67 0 hvcurveto
          -511 -4 rmoveto
          -104 -26 71 121 127 18 68 105 93 27 -61 -134 -120 -22 -72 -91 hvcurveto
          419 237 rmoveto
          -195 -8 rlineto
          99 1 30 59 79 hhcurveto
          71 17 -26 callsubr
        </CharString>
        <CharString name="ogonek">
          -336 187 -12 callsubr
        </CharString>
        <CharString name="ograve">
          7 151 12 callsubr
          -19 -27 -24 -45 -8 hvcurveto
          103 -663 -104 callgsubr
          endchar
        </CharString>
        <CharString name="ohorn">
          -13 567 504 -93 callsubr
        </CharString>
        <CharString name="ohungarumlaut">
          7 196 677 rmoveto
          -60 -118 35 48 callgsubr
          -15 hhcurveto
          -27 -10 -27 -22 -11 hvcurveto
          164 hmoveto
          -60 -118 36 48 callgsubr
          -15 hhcurveto
          -27 -10 -27 -22 -12 hvcurveto
          -106 -688 -104 callgsubr
          endchar
        </CharString>
        <CharString name="omacron">
          7 107 665 -36 callsubr
          -189 -676 -104 callgsubr
          endchar
        </CharString>
        <CharString name="one">
          -118 21 -21 658 -20 hstemhm
          22 147 -11 99 hintmask 11010000
          53 hmoveto
          330 54 hlineto
          -116 12 rlineto
          592 -54 vlineto
          -169 -30 rlineto
          -56 vlineto
          hintmask 11100000
          124 -506 hlineto
          -115 -12 rlineto
          endchar
        </CharString>
        <CharString name="one.osf">
          -123 55 54 rmoveto
          -54 310 54 vlineto
          -107 12 rlineto
          455 -53 vlineto
          -159 -30 rlineto
          -57 114 -368 vlineto
          endchar
        </CharString>
        <CharString name="onehalf">
          218 132 -40 rmoveto
          480 694 -56 38 -482 -694 rlineto
          -48 312 rmoveto
          219 49 hlineto
          21 callgsubr
          -70 -3 rlineto
          401 -360 rmoveto
          280 111 -46 hlineto
          -11 -54 rlineto
          -120 4 hlineto
          49 41 rlineto
          80 66 30 34 54 vvcurveto
          70 -54 23 -83 -53 -46 -21 -12 -18 vhcurveto
          -95 48 vlineto
          11 59 rlineto
          0 22 9 28 36 22 -7 -39 -36 -41 -38 -45 -42 vhcurveto
          -89 -82 rlineto
          endchar
        </CharString>
        <CharString name="onequarter">
          242 573 692 rmoveto
          -482 -694 58 -39 481 695 rlineto
          -599 -294 rmoveto
          -50 219 49 vlineto
          21 callgsubr
          408 -319 rmoveto
          -44 209 45 vlineto
          7 callgsubr
          96 vmoveto
          -91 3 hlineto
          91 121 rlineto
          endchar
        </CharString>
        <CharString name="ordfeminine">
          -144 123 353 rmoveto
          32 38 14 20 21 hvcurveto
          3 1 rlineto
          -21 6 17 -11 27 hhcurveto
          22 33 6 10 22 hvcurveto
          31 vlineto
          -50 14 rlineto
          207 vlineto
          53 -41 29 -72 -71 -76 -45 -41 -23 12 -11 25 10 14 2 3 6 vhcurveto
          13 58 rlineto
          2 11 15 2 11 hhcurveto
          43 20 -17 -39 hvcurveto
          -43 vlineto
          -78 -11 rlineto
          -71 -10 -42 -37 -55 vvcurveto
          -54 39 -34 61 vhcurveto
          39 57 rmoveto
          -36 -21 15 27 36 32 17 77 5 hvcurveto
          -89 vlineto
          -6 -14 -22 -5 -16 hhcurveto
          endchar
        </CharString>
        <CharString name="ordmasculine">
          -134 185 354 rmoveto
          116 58 88 99 102 -60 66 -102 -107 -65 -87 -97 -104 54 -67 106 hvcurveto
          13 58 rmoveto
          -69 -18 33 84 72 10 44 72 62 19 -31 -85 -77 -16 -40 -60 hvcurveto
          endchar
        </CharString>
        <CharString name="oslash">
          7 157 -79 -53 callgsubr
        </CharString>
        <CharString name="oslashacute">
          7 199 569 rmoveto
          -88 callgsubr
          -147 -767 -53 callgsubr
        </CharString>
        <CharString name="otilde">
          7 120 653 rmoveto
          -31 -51 26 -24 43 callgsubr
          27 23 13 24 15 33 callgsubr
          -29 8 -20 hhcurveto
          -26 -25 -13 -24 -15 hvcurveto
          134 -664 -104 callgsubr
          endchar
        </CharString>
        <CharString name="p">
          24 41 callgsubr
          123 vlineto
          -3 10 1 4 rlineto
          -21 28 38 -13 38 hhcurveto
          133 86 111 171 145 -65 80 -117 -47 -55 -20 -32 -39 hvcurveto
          -2 2 -17 43 -157 40 callsubr
          81 -15 rlineto
          -515 vlineto
          -69 -14 rlineto
          253 181 rmoveto
          -30 -35 8 13 -22 49 callsubr
          88 33 -50 -130 -132 -38 -56 -90 hvcurveto
          endchar
        </CharString>
        <CharString name="paragraph">
          123 281 196 rmoveto
          -236 78 625 167 vlineto
          74 14 rlineto
          49 -318 vlineto
          -103 -114 -79 -147 -145 113 -81 103 hvcurveto
          -63 -314 rmoveto
          -47 160 vlineto
          102 36 66 68 hvcurveto
          563 -78 -543 vlineto
          -58 -14 -24 -75 -9 vhcurveto
          endchar
        </CharString>
        <CharString name="parenleft">
          -262 242 -151 rmoveto
          19 46 rlineto
          -104 30 -22 105 249 vvcurveto
          223 15 118 110 33 vhcurveto
          -19 46 rlineto
          -169 -33 -33 -205 -182 vvcurveto
          -182 31 -214 172 -34 vhcurveto
          endchar
        </CharString>
        <CharString name="parenright">
          -262 -3 -105 rmoveto
          19 -46 rlineto
          172 34 31 215 183 vvcurveto
          182 -33 203 -169 33 vhcurveto
          -19 -46 rlineto
          110 -33 15 -118 -223 vvcurveto
          -249 -22 -105 -104 -30 vhcurveto
          endchar
        </CharString>
        <CharString name="partialdiff">
          9 84 627 rmoveto
          24 -32 rlineto
          18 36 42 13 36 hhcurveto
          122 43 -109 -116 1 hvcurveto
          0 -44 29 -69 -133 -104 -81 -147 -125 72 -88 138 157 89 125 234 248 -104 95 -140 -103 -63 -64 0 vhcurveto
          306 -287 rmoveto
          -203 -35 -84 -97 -89 -26 78 79 103 38 46 100 69 40 -19 0 vhcurveto
          endchar
        </CharString>
        <CharString name="percent">
          180 139 -41 rmoveto
          467 678 -56 38 -469 -677 rlineto
          79 -14 callsubr
          364 6 callgsubr
          5 56 2 callgsubr
          -22 -80 -68 -12 -34 -60 hvcurveto
          endchar
        </CharString>
        <CharString name="period">
          -329 93 -10 rmoveto
          43 24 34 38 40 -24 25 -37 -39 -28 -33 -38 -39 25 -27 36 hvcurveto
          endchar
        </CharString>
        <CharString name="periodcentered">
          -329 93 194 -21 callsubr
        </CharString>
        <CharString name="perthousand">
          504 118 -41 rmoveto
          480 695 -56 38 -482 -694 rlineto
          103 -14 callsubr
          341 6 callgsubr
          338 hmoveto
          113 40 67 91 95 -35 62 -108 -107 -47 -65 -94 -88 31 -68 113 hvcurveto
          -333 56 2 callgsubr
          -22 -80 -68 -12 -34 -60 hvcurveto
          338 hmoveto
          -62 -11 36 66 71 20 31 52 53 20 -22 -80 -68 -12 -34 -60 hvcurveto
          endchar
        </CharString>
        <CharString name="pi">
          32 70 45 rmoveto
          -45 77 vlineto
          -1 52 38 76 hvcurveto
          310 152 -357 vlineto
          -49 14 -23 52 49 51 34 0 vhcurveto
          43 -73 352 vlineto
          27 27 11 26 30 hvcurveto
          43 38 -28 41 -89 -38 rlineto
          -327 hlineto
          -50 -20 -12 -33 -33 hvcurveto
          -41 -37 27 -39 96 43 rlineto
          -327 vlineto
          endchar
        </CharString>
        <CharString name="plus">
          10 226 69 rmoveto
          76 165 163 69 -163 166 -76 -166 -161 -69 161 hlineto
          endchar
        </CharString>
        <CharString name="plusminus">
          10 226 127 rmoveto
          76 164 162 69 -162 167 -76 -167 -162 -69 162 hlineto
          -161 -294 rmoveto
          398 70 -398 hlineto
          endchar
        </CharString>
        <CharString name="product">
          68 -4 48 rmoveto
          47 callsubr
          229 -517 vlineto
          -82 -16 rlineto
          47 callsubr
          vlineto
          82 16 rlineto
          51 -595 -51 vlineto
          83 -16 rlineto
          -517 vlineto
          endchar
        </CharString>
        <CharString name="q">
          3 275 -165 rmoveto
          246 46 hlineto
          -66 14 rlineto
          600 -41 vlineto
          -41 -28 rlineto
          -7 hlineto
          24 -27 -41 14 -41 hhcurveto
          -129 -91 -118 -168 -142 69 -79 125 50 49 19 30 30 hvcurveto
          1 -3 -3 -7 rlineto
          -142 vlineto
          -83 -14 rlineto
          -12 185 rmoveto
          -84 -37 56 125 127 42 63 85 30 34 -7 -9 25 hvcurveto
          -328 vlineto
          -17 -27 -37 -10 -31 hhcurveto
          endchar
        </CharString>
        <CharString name="question">
          -159 79 333 rmoveto
          4 -170 rlineto
          62 hlineto
          21 117 53 17 rlineto
          64 21 53 51 84 vvcurveto
          130 -92 81 -126 -75 -12 -20 -35 -22 13 -20 0 vhcurveto
          96 hlineto
          83 27 -10 -74 -68 -23 -29 -56 -20 hvcurveto
          -62 -382 11 callsubr
        </CharString>
        <CharString name="questiondown">
          -158 245 388 rmoveto
          37 27 32 36 37 -24 26 -34 -41 -24 -33 -36 -38 24 -24 35 hvcurveto
          1 -549 rmoveto
          76 12 20 35 22 -14 20 0 hvcurveto
          -95 hlineto
          -83 -27 10 74 68 22 29 57 20 hvcurveto
          91 33 -4 170 rlineto
          -61 hlineto
          -21 -117 -53 -17 rlineto
          -64 -21 -54 -51 -84 vvcurveto
          -130 92 -81 126 vhcurveto
          endchar
        </CharString>
        <CharString name="quotedbl">
          -193 51 705 rmoveto
          23 callsubr
          2 13 2 20 1 11 rlinecurve
          18 -6 20 -35 -18 -22 -7 -7 -14 vhcurveto
          138 hmoveto
          23 callsubr
          rlineto
          2 13 3 20 11 vvcurveto
          18 -6 20 -35 -18 -22 -7 -7 -14 vhcurveto
          endchar
        </CharString>
        <CharString name="quotedblbase">
          -173 65 -129 rmoveto
          19 19 77 88 68 vvcurveto
          37 -22 29 -38 -32 -17 20 callsubr
          188 -15 rmoveto
          18 19 77 88 68 vvcurveto
          37 -22 29 -38 -31 -18 20 callsubr
          endchar
        </CharString>
        <CharString name="quotedblleft">
          -183 122 720 34 callsubr
          17 19 22 13 29 callgsubr
          123 14 34 callsubr
          18 19 22 12 29 callgsubr
          endchar
        </CharString>
        <CharString name="quotedblright">
          -185 57 480 47 callgsubr
          -38 -31 17 callsubr
          187 -15 47 callgsubr
          -37 -32 17 callsubr
          endchar
        </CharString>
        <CharString name="quoteleft">
          -328 138 721 rmoveto
          -19 -18 -83 -92 -69 vvcurveto
          -37 24 -29 39 33 18 20 23 14 vhcurveto
          -13 16 -13 26 29 vvcurveto
          30 13 43 21 43 vhcurveto
          endchar
        </CharString>
        <CharString name="quoteright">
          -331 58 469 rmoveto
          19 18 82 92 69 vvcurveto
          37 -23 29 -39 -33 28 callsubr
          -43 -21 -44 vhcurveto
          endchar
        </CharString>
        <CharString name="quotesinglbase">
          -328 61 -132 rmoveto
          19 18 82 91 70 vvcurveto
          37 -23 29 -40 -32 28 callsubr
          -44 -21 -43 vhcurveto
          endchar
        </CharString>
        <CharString name="quotesingle">
          -313 55 705 rmoveto
          23 callsubr
          2 13 3 20 1 11 rlinecurve
          18 -6 20 -35 -19 -21 -7 -7 -15 vhcurveto
          endchar
        </CharString>
        <CharString name="r">
          -144 27 45 -67 callgsubr
        </CharString>
        <CharString name="racute">
          -165 101 569 rmoveto
          31 -34 174 117 rlineto
          -73 callgsubr
          -179 -643 -67 callgsubr
        </CharString>
        <CharString name="radical">
          16 241 -6 rmoveto
          73 hlineto
          220 716 87 15 rlineto
          45 -134 vlineto
          -179 -604 -12 -46 -13 45 -106 330 rlineto
          -159 -46 hlineto
          67 -15 rlineto
          endchar
        </CharString>
        <CharString name="rcaron">
          -165 194 542 rmoveto
          15 -66 callgsubr
          -36 -39 94 -94 rlineto
          -19 19 19 -17 16 hhcurveto
          -167 -542 rmoveto
          266 47 hlineto
          -81 callgsubr
          -72 -14 rlineto
          endchar
        </CharString>
        <CharString name="rcommaaccent">
          -165 27 hmoveto
          266 47 hlineto
          -81 callgsubr
          -72 -14 rlineto
          87 -240 -4 callgsubr
          57 46 67 vvcurveto
          26 -14 29 -38 -17 -17 -9 -16 -15 vhcurveto
          10 -9 15 -55 callsubr
        </CharString>
        <CharString name="registered">
          171 331 225 rmoveto
          154 124 124 154 154 -124 124 -154 -154 -124 -124 -154 -154 124 -124 154 hvcurveto
          57 vmoveto
          -122 -93 98 123 123 93 98 122 120 95 -97 -124 -124 -95 -97 -120 hvcurveto
          -153 75 rmoveto
          153 29 hlineto
          -40 7 rlineto
          76 28 vlineto
          64 -98 rlineto
          -8 4 9 -5 11 hhcurveto
          80 29 hlineto
          -39 9 -60 86 rlineto
          37 13 25 35 41 vvcurveto
          47 -37 30 -59 vhcurveto
          -173 -34 hlineto
          37 -6 rlineto
          -215 vlineto
          -40 -7 rlineto
          113 122 rmoveto
          97 vlineto
          2 11 12 1 10 hhcurveto
          36 13 -12 -31 -39 -18 -18 -39 hvcurveto
          endchar
        </CharString>
        <CharString name="ring">
          -339 -7 630 -37 callgsubr
          endchar
        </CharString>
        <CharString name="s">
          -99 45 156 -79 callgsubr
          endchar
        </CharString>
        <CharString name="sacute">
          -104 119 569 rmoveto
          30 -34 -6 callsubr
          -182 -532 rmoveto
          15 callsubr
          71 -25 73 hhcurveto
          98 91 37 120 hvcurveto
          -66 callsubr
          16 11 -15 vhcurveto
          -17 79 rlineto
          endchar
        </CharString>
        <CharString name="sacute.loclPLK">
          -99 186 -41 callgsubr
          -216 -530 -79 callgsubr
          endchar
        </CharString>
        <CharString name="scaron">
          -104 206 542 rmoveto
          16 17 15 21 21 hvcurveto
          97 -10 callgsubr
          -12 -553 rmoveto
          98 91 37 120 hvcurveto
          -66 callsubr
          15 12 -15 vhcurveto
          -17 79 rlineto
          -48 hlineto
          15 callsubr
          71 -25 73 hhcurveto
          endchar
        </CharString>
        <CharString name="scedilla">
          -104 186 -189 rmoveto
          67 56 -22 callgsubr
          19 vlineto
          87 7 76 39 110 -66 callsubr
          16 11 -15 vhcurveto
          -17 79 rlineto
          -48 hlineto
          -10 -129 16 -12 59 -20 65 -5 rlinecurve
          -21 -51 20 -20 34 -7 rlineto
          19 3 callsubr
        </CharString>
        <CharString name="scircumflex">
          -99 66 578 -102 callsubr
          -125 -528 -79 callgsubr
          endchar
        </CharString>
        <CharString name="scommaaccent">
          -104 42 156 rmoveto
          15 callsubr
          71 -25 73 hhcurveto
          98 91 37 120 hvcurveto
          -66 callsubr
          15 12 -15 vhcurveto
          -17 79 rlineto
          80 -351 -4 callgsubr
          57 46 67 vvcurveto
          26 -14 29 -38 -17 -17 -9 -16 -14 vhcurveto
          9 -9 15 -55 callsubr
        </CharString>
        <CharString name="section">
          31 290 326 rmoveto
          172 -110 49 72 -179 118 rlineto
          -99 68 -45 27 51 vvcurveto
          58 30 20 73 61 37 -15 0 vhcurveto
          20 -97 rlineto
          55 158 hlineto
          7 -16 -76 18 -79 hhcurveto
          -138 -67 -67 -93 -96 86 -44 116 -75 hvcurveto
          -200 -282 rmoveto
          -161 vlineto
          -18 21 78 -30 91 hhcurveto
          117 93 60 111 71 -55 50 -99 62 hvcurveto
          -212 129 -48 -70 187 -119 rlineto
          73 -49 61 -36 -54 vvcurveto
          -62 -38 -28 -79 -63 -41 32 6 -8 vhcurveto
          -20 106 rlineto
          endchar
        </CharString>
        <CharString name="semicolon">
          -304 107 319 rmoveto
          43 24 35 38 39 -24 25 -37 -39 -28 -33 -38 -39 25 -27 36 hvcurveto
          -32 -451 rmoveto
          19 19 82 95 71 vvcurveto
          37 -23 29 -39 -34 -21 -22 -28 -13 vhcurveto
          16 -13 15 -24 -29 vvcurveto
          -28 -14 -47 -23 -45 vhcurveto
          endchar
        </CharString>
        <CharString name="seven">
          -80 21 -21 561 87 hstem
          84 hmoveto
          86 hlineto
          275 561 rlineto
          87 -424 vlineto
          9 -165 rlineto
          60 hlineto
          9 78 rlineto
          259 -19 hlineto
          -274 -496 rlineto
          endchar
        </CharString>
        <CharString name="seven.osf">
          -78 347 415 rmoveto
          -282 -579 rlineto
          111 hlineto
          252 598 rlineto
          87 -409 vlineto
          5 -165 rlineto
          60 hlineto
          10 78 rlineto
          253 hlineto
          endchar
        </CharString>
        <CharString name="six">
          2 -12 68 265 79 260 -20 hstem
          42 114 221 106 vstem
          258 -12 rmoveto
          138 91 91 137 111 -70 74 -105 -54 -54 -17 -31 -44 hvcurveto
          8 151 100 92 179 19 rrcurveto
          45 vlineto
          -254 -7 -148 -150 -252 vvcurveto
          -176 70 -87 143 vhcurveto
          14 68 rmoveto
          -84 -29 56 160 hvcurveto
          33 vlineto
          10 33 41 6 33 hhcurveto
          75 40 -41 -80 -99 -34 -45 -75 hvcurveto
          endchar
        </CharString>
        <CharString name="six.osf">
          -8 262 -12 rmoveto
          109 108 65 161 105 -58 83 -107 -90 -64 -47 0 hvcurveto
          19 133 89 99 166 26 rrcurveto
          44 vlineto
          -209 -183 -149 -266 -182 93 -72 127 hvcurveto
          5 71 rmoveto
          -89 -23 47 151 24 1 22 1 7 hvcurveto
          2 4 47 11 54 hhcurveto
          56 55 -26 -84 -110 -26 -44 -80 hvcurveto
          endchar
        </CharString>
        <CharString name="slash">
          12 callgsubr
        </CharString>
        <CharString name="space">
          -328 endchar
        </CharString>
        <CharString name="sterling">
          -3 37 49 rmoveto
          -49 439 180 -54 vlineto
          -23 -105 rlineto
          -248 5 hlineto
          28 14 18 35 45 vvcurveto
          133 129 66 -129 99 vlineto
          90 28 29 72 31 35 -5 -6 15 vhcurveto
          23 -92 rlineto
          55 147 hlineto
          13 -38 -66 11 -51 hhcurveto
          -131 -68 -69 -118 hvcurveto
          -99 -64 -66 64 -133 vlineto
          -42 -28 -54 -37 -29 vhcurveto
          endchar
        </CharString>
        <CharString name="sterling.osf">
          -43 37 49 rmoveto
          -49 405 180 -55 vlineto
          -22 -105 rlineto
          -214 5 hlineto
          35 18 11 42 34 vvcurveto
          54 103 66 -103 51 vlineto
          67 8 52 76 45 22 -11 0 vhcurveto
          19 -91 rlineto
          55 146 hlineto
          2 -5 -57 22 -75 hhcurveto
          -114 -69 -62 -125 hvcurveto
          -51 -64 -66 64 -54 vlineto
          -23 -11 -59 -54 -43 vhcurveto
          endchar
        </CharString>
        <CharString name="summation">
          7 40 hmoveto
          431 182 -52 hlineto
          -29 -104 rlineto
          -258 hlineto
          1 10 170 250 -148 241 -1 8 rlineto
          225 hlineto
          30 -109 rlineto
          55 170 -425 -53 hlineto
          173 -282 -172 -256 rlineto
          endchar
        </CharString>
        <CharString name="t">
          -163 91 33 callsubr
          59 51 -1 hhcurveto
          -12 -52 callsubr
          endchar
        </CharString>
        <CharString name="tbar">
          -197 330 45 rmoveto
          -12 38 rlineto
          0 -40 -14 -38 -33 -19 8 46 vhcurveto
          143 123 56 -123 114 127 vlineto
          14 27 rlineto
          33 -141 119 -67 vlineto
          -30 -109 -83 -21 rlineto
          -49 83 -114 -85 -56 85 -153 vlineto
          -72 25 -47 92 vhcurveto
          64 59 51 -1 hhcurveto
          endchar
        </CharString>
        <CharString name="tcaron">
          -195 248 542 -4 callgsubr
          58 74 52 vvcurveto
          27 -15 27 -37 -23 -15 -11 -11 -9 vhcurveto
          12 -15 10 -20 -25 vvcurveto
          -28 -6 -41 -10 -29 vhcurveto
          -163 -106 4 callsubr
          60 51 -1 hhcurveto
          -13 -52 callsubr
          endchar
        </CharString>
        <CharString name="thorn">
          23 41 callgsubr
          125 vlineto
          -3 9 1 5 rlineto
          -21 25 42 -15 42 hhcurveto
          129 85 112 170 143 -66 82 -116 -48 -54 -19 -31 -37 hvcurveto
          230 36 callsubr
          -720 vlineto
          -69 -14 rlineto
          255 182 rmoveto
          -30 -35 9 13 -24 49 callsubr
          87 34 -51 -131 -132 -37 -55 -89 hvcurveto
          endchar
        </CharString>
        <CharString name="three">
          -66 83 69 156 83 198 73 hstem
          336 88 vstem
          201 -12 rmoveto
          134 108 62 142 109 -83 41 -67 15 hvcurveto
          3 3 rlineto
          52 22 58 49 83 vvcurveto
          93 -54 55 -144 -90 -60 -21 -11 -28 vhcurveto
          9 -142 rlineto
          57 hlineto
          9 86 rlineto
          2 6 32 13 51 hhcurveto
          88 28 -32 -69 -76 -70 -38 -75 hvcurveto
          -49 -38 hlineto
          16 -31 rlineto
          46 hlineto
          89 69 -27 -93 -91 -43 -35 -94 -44 -37 19 12 -20 hvcurveto
          -10 84 rlineto
          -60 hlineto
          -8 -139 rlineto
          -19 30 69 -28 82 hhcurveto
          endchar
        </CharString>
        <CharString name="three.osf">
          -61 36 -114 rmoveto
          -45 vlineto
          -1 14 20 -6 45 hhcurveto
          163 137 70 164 103 -71 45 -81 10 hvcurveto
          9 vlineto
          50 23 59 52 78 vvcurveto
          64 -39 78 -129 -122 -65 -94 0 vhcurveto
          27 -29 rlineto
          0 52 44 74 65 32 -30 -51 -75 -58 -40 -98 -19 vhcurveto
          -31 vlineto
          19 -30 rlineto
          32 hlineto
          84 62 -39 -84 -136 -99 -30 -173 hvcurveto
          endchar
        </CharString>
        <CharString name="threequarters">
          197 159 -41 rmoveto
          480 695 -57 38 -481 -694 rlineto
          42 306 rmoveto
          49 callgsubr
          29 9 27 23 42 vvcurveto
          56 -45 31 -85 -60 -46 -23 -8 -14 vhcurveto
          2 -92 rlineto
          49 hlineto
          9 57 rlineto
          0 23 9 29 35 26 -9 -33 -32 -32 20 callgsubr
          -24 -13 -44 -35 -18 8 3 -5 hvcurveto
          -6 46 rlineto
          -48 hlineto
          -3 -89 rlineto
          -12 23 55 -12 38 hhcurveto
          340 -304 rmoveto
          209 45 hlineto
          7 callgsubr
          -66 -6 rlineto
          -25 102 rmoveto
          3 vlineto
          91 121 rlineto
          -124 vlineto
          endchar
        </CharString>
        <CharString name="tilde">
          -174 28 653 rmoveto
          10 callgsubr
          -92 callsubr
          endchar
        </CharString>
        <CharString name="tildecomb">
          -318 653 rmoveto
          10 callgsubr
          -92 callsubr
          endchar
        </CharString>
        <CharString name="tildecomb.case">
          -105 -84 callgsubr
          endchar
        </CharString>
        <CharString name="trademark">
          375 89 395 rmoveto
          -35 179 35 vlineto
          -47 7 rlineto
          250 65 vlineto
          15 -58 rlineto
          42 107 -331 -107 42 hlineto
          15 58 rlineto
          66 -250 hlineto
          233 -10 rmoveto
          -32 144 32 vlineto
          -43 8 rlineto
          238 6 vlineto
          89 -278 rlineto
          71 hlineto
          92 276 rlineto
          6 -235 hlineto
          -43 -7 rlineto
          -34 176 34 vlineto
          -47 7 rlineto
          254 vlineto
          47 7 rlineto
          39 -175 vlineto
          -69 -215 -8 -40 -8 40 -67 215 rlineto
          -166 -39 hlineto
          42 -5 rlineto
          -257 vlineto
          endchar
        </CharString>
        <CharString name="two">
          -26 0 82 507 73 hstem
          349 107 vstem
          29 hmoveto
          445 171 -55 hlineto
          -22 -89 rlineto
          -244 6 hlineto
          122 120 rlineto
          125 124 48 63 91 vvcurveto
          121 -69 55 -156 -83 -69 -24 -13 -28 vhcurveto
          -152 55 vlineto
          18 98 rlineto
          7 16 31 11 56 hhcurveto
          96 26 -36 -76 -72 -35 -57 -82 -85 hvcurveto
          -195 -204 rlineto
          endchar
        </CharString>
        <CharString name="two.osf">
          -9 40 61 rmoveto
          -61 428 157 -50 vlineto
          -22 -79 rlineto
          -231 6 hlineto
          75 56 rlineto
          98 73 83 62 104 vvcurveto
          93 -67 58 -114 -115 -86 -97 0 vhcurveto
          27 -31 rlineto
          0 58 44 79 81 28 -34 -51 -50 -13 -33 -105 -87 vhcurveto
          endchar
        </CharString>
        <CharString name="u">
          50 237 -10 -106 callgsubr
          endchar
        </CharString>
        <CharString name="uacute">
          50 217 535 rmoveto
          175 117 rlineto
          -73 callgsubr
          -105 -119 rlineto
          50 -579 -106 callgsubr
          endchar
        </CharString>
        <CharString name="ubreve">
          50 179 710 -95 callgsubr
          58 -720 -106 callgsubr
          endchar
        </CharString>
        <CharString name="ucircumflex">
          50 385 539 rmoveto
          36 38 -106 110 rlineto
          15 -15 -13 8 -12 hhcurveto
          -15 -16 -12 -18 -18 hvcurveto
          -105 -105 29 -35 116 79 rlineto
          -29 -629 -106 callgsubr
          endchar
        </CharString>
        <CharString name="udieresis">
          50 162 571 rmoveto
          39 4 callgsubr
          33 hvcurveto
          216 hmoveto
          38 4 callgsubr
          34 hvcurveto
          -141 -581 -106 callgsubr
          endchar
        </CharString>
        <CharString name="ugrave">
          50 331 535 rmoveto
          30 34 -60 callgsubr
          -26 -24 -45 -9 hvcurveto
          81 -662 -106 callgsubr
          endchar
        </CharString>
        <CharString name="uhorn">
          50 618 504 -98 callgsubr
          endchar
        </CharString>
        <CharString name="uhungarumlaut">
          50 161 534 rmoveto
          13 callgsubr
          -23 15 -15 hhcurveto
          -27 -10 -27 -22 -12 hvcurveto
          -60 -118 rlineto
          201 -25 rmoveto
          129 19 callsubr
          -22 15 -16 hhcurveto
          -27 -9 -27 -22 -12 hvcurveto
          -60 -118 rlineto
          -53 -569 -106 callgsubr
          endchar
        </CharString>
        <CharString name="umacron">
          50 102 600 rmoveto
          337 hlineto
          11 65 rlineto
          -337 hlineto
          124 -675 -106 callgsubr
          endchar
        </CharString>
        <CharString name="underscore">
          -67 3 hmoveto
          -70 447 70 vlineto
          endchar
        </CharString>
        <CharString name="uni00A0">
          -328 endchar
        </CharString>
        <CharString name="uni00AD">
          30 callgsubr
        </CharString>
        <CharString name="uni00B2">
          -175 34 404 rmoveto
          -44 280 111 -46 vlineto
          -11 -54 rlineto
          -121 4 hlineto
          50 40 rlineto
          80 66 30 34 54 vvcurveto
          70 -54 24 -83 -54 -45 -21 -13 -18 vhcurveto
          -94 48 vlineto
          11 59 rlineto
          0 22 9 27 37 22 -8 -38 -37 -41 -37 -45 -42 vhcurveto
          endchar
        </CharString>
        <CharString name="uni00B3">
          -175 49 467 rmoveto
          -2 -89 rlineto
          -12 23 55 -12 38 hhcurveto
          49 callgsubr
          28 9 28 23 42 vvcurveto
          56 -45 31 -85 -61 -46 -23 -8 -13 vhcurveto
          2 -92 rlineto
          48 hlineto
          9 57 rlineto
          0 24 9 29 35 25 -9 -33 -32 -31 20 callgsubr
          -25 -13 -43 -35 -18 8 3 -6 hvcurveto
          -5 46 rlineto
          endchar
        </CharString>
        <CharString name="uni00B5">
          -43 callgsubr
        </CharString>
        <CharString name="uni00B9">
          -175 55 410 rmoveto
          -50 261 49 vlineto
          -91 2 rlineto
          292 -59 vlineto
          -115 -10 rlineto
          -49 95 -231 vlineto
          endchar
        </CharString>
        <CharString name="uni0162">
          31 264 -189 rmoveto
          67 56 24 67 44 -31 11 -39 9 hvcurveto
          -19 5 rlineto
          29 111 48 vlineto
          -25 callgsubr
          -81 -16 rlineto
          -48 112 vlineto
          -26 -61 20 -20 35 -7 rlineto
          18 3 callsubr
        </CharString>
        <CharString name="uni0163">
          -197 168 -189 rmoveto
          66 57 -22 callgsubr
          23 vlineto
          1 64 60 50 -1 hhcurveto
          -13 -51 callsubr
          83 -323 vlineto
          -60 17 -41 56 -13 vhcurveto
          -26 -60 21 -20 34 -40 callgsubr
        </CharString>
        <CharString name="uni018F">
          149 327 -15 rmoveto
          202 96 151 197 1 hvcurveto
          218 -1 -99 111 -198 hhcurveto
          -122 -63 -27 -17 -40 hvcurveto
          -160 56 vlineto
          21 107 rlineto
          3 7 39 30 86 hhcurveto
          118 68 -81 -153 8 hvcurveto
          -461 hlineto
          -2 -16 -1 -17 -20 vvcurveto
          -203 101 -123 184 vhcurveto
          14 65 rmoveto
          -111 -64 72 180 -4 hvcurveto
          345 hlineto
          -174 -3 -47 -78 -116 hhcurveto
          endchar
        </CharString>
        <CharString name="uni019D">
          208 97 -166 rmoveto
          64 33 32 52 hvcurveto
          577 7 vlineto
          8 -15 306 -480 -68 callgsubr
          -12 20 -298 472 rlineto
          -170 -49 hlineto
          65 -14 rlineto
          -672 vlineto
          -106 -25 rlineto
          -42 vlineto
          0 34 -12 47 vhcurveto
          endchar
        </CharString>
        <CharString name="uni01C4">
          733 844 837 -74 callgsubr
          -925 -773 rmoveto
          -54 callgsubr
        </CharString>
        <CharString name="uni01C5">
          627 922 542 -85 callgsubr
          -873 -542 rmoveto
          -83 callgsubr
          414 -59 rmoveto
          -84 callsubr
          endchar
        </CharString>
        <CharString name="uni01C6">
          468 763 542 -85 callgsubr
          -540 -552 -71 callgsubr
          342 10 rmoveto
          -84 callsubr
          -306 7 -20 callsubr
        </CharString>
        <CharString name="uni01C7">
          408 49 47 rmoveto
          -47 438 170 -54 vlineto
          -24 -109 rlineto
          -91 -39 callsubr
          399 103 -81 callsubr
        </CharString>
        <CharString name="uni01C8">
          263 643 -87 callsubr
          -594 -519 rmoveto
          -47 461 170 -54 vlineto
          -24 -109 rlineto
          -114 -39 callsubr
          464 -231 -68 callsubr
        </CharString>
        <CharString name="uni01C9">
          40 420 -87 callsubr
          -403 -521 rmoveto
          -45 253 45 vlineto
          -37 callsubr
          275 -225 -68 callsubr
        </CharString>
        <CharString name="uni01CA">
          613 49 hmoveto
          -79 callsubr
          686 122 -81 callsubr
        </CharString>
        <CharString name="uni01CB">
          477 857 -87 callsubr
          -808 -566 rmoveto
          -79 callsubr
          760 -212 -68 callsubr
        </CharString>
        <CharString name="uni01CC">
          333 713 -87 callsubr
          -688 -566 rmoveto
          -99 callsubr
          640 -211 -68 callsubr
        </CharString>
        <CharString name="uni01CD">
          102 184 837 -74 callgsubr
          -323 -726 -107 callsubr
          endchar
        </CharString>
        <CharString name="uni01CE">
          -28 244 542 -85 callgsubr
          -64 -551 -107 callgsubr
          endchar
        </CharString>
        <CharString name="uni01CF">
          -150 58 837 -74 callgsubr
          -136 -725 -90 callsubr
          endchar
        </CharString>
        <CharString name="uni01D0">
          -222 152 542 -85 callgsubr
          -127 -497 -80 callgsubr
        </CharString>
        <CharString name="uni01D1">
          179 223 837 -74 callgsubr
          -10 -788 -105 callgsubr
          endchar
        </CharString>
        <CharString name="uni01D2">
          -13 252 542 -85 callgsubr
          -10 -553 -104 callgsubr
          endchar
        </CharString>
        <CharString name="uni01D3">
          198 232 837 -74 callgsubr
          -248 -189 -101 callsubr
          endchar
        </CharString>
        <CharString name="uni01D4">
          50 274 542 -85 callgsubr
          -37 -552 -106 callgsubr
          endchar
        </CharString>
        <CharString name="uni01D5">
          198 198 956 -36 callsubr
          -288 -267 -77 callgsubr
          -353 -105 -101 callsubr
          endchar
        </CharString>
        <CharString name="uni01D6">
          50 115 869 -36 callsubr
          -285 -298 -90 callgsubr
          -144 -581 -106 callgsubr
          endchar
        </CharString>
        <CharString name="uni01D7">
          198 321 846 -89 callsubr
          -52 -197 -77 callgsubr
          -353 -105 -101 callsubr
          endchar
        </CharString>
        <CharString name="uni01D8">
          50 229 773 rmoveto
          -88 callgsubr
          -168 -321 -90 callgsubr
          -144 -581 -106 callgsubr
          endchar
        </CharString>
        <CharString name="uni01D9">
          198 234 1005 -74 callgsubr
          -118 -252 -77 callgsubr
          -353 -105 -101 callsubr
          endchar
        </CharString>
        <CharString name="uni01DA">
          50 276 746 -85 callgsubr
          -110 -175 -90 callgsubr
          -144 -581 -106 callgsubr
          endchar
        </CharString>
        <CharString name="uni01DB">
          198 411 846 rmoveto
          -77 callsubr
          36 -238 -77 callgsubr
          -353 -105 -101 callsubr
          endchar
        </CharString>
        <CharString name="uni01DC">
          50 135 856 rmoveto
          -76 callsubr
          31 -285 -90 callgsubr
          -144 -581 -106 callgsubr
          endchar
        </CharString>
        <CharString name="uni01EA">
          179 488 15 rmoveto
          115 54 54 122 146 vvcurveto
          201 -106 124 -185 -206 -118 -153 -196 -206 105 -122 196 20 18 1 3 18 vhcurveto
          -32 -25 -27 -34 -43 5 callgsubr
          -15 callgsubr
          46 63 43 11 8 hvcurveto
          -326 310 rmoveto
          236 80 34 109 113 73 -55 -224 -176 -50 -90 -124 -133 -68 74 201 vhcurveto
          endchar
        </CharString>
        <CharString name="uni01EB">
          -13 353 13 rmoveto
          86 44 41 96 110 vvcurveto
          146 -70 97 -148 -155 -82 -126 -140 -153 70 -98 147 9 8 0 1 8 vhcurveto
          -32 -24 -28 -35 -44 5 callgsubr
          -15 callgsubr
          43 56 41 16 11 hvcurveto
          -222 232 rmoveto
          127 18 68 105 93 27 -61 -134 -120 -22 -72 -91 -104 -26 71 121 vhcurveto
          endchar
        </CharString>
        <CharString name="uni01F1">
          733 49 hmoveto
          -54 callgsubr
        </CharString>
        <CharString name="uni01F2">
          627 49 hmoveto
          -83 callgsubr
          414 -59 rmoveto
          -84 callsubr
          endchar
        </CharString>
        <CharString name="uni01F3">
          468 -29 callsubr
          342 10 rmoveto
          -84 callsubr
          -306 7 -20 callsubr
        </CharString>
        <CharString name="uni01F4">
          126 312 678 -89 callsubr
          183 -458 -96 callgsubr
        </CharString>
        <CharString name="uni01F5">
          -53 185 569 rmoveto
          -88 callgsubr
          -75 -854 -105 callsubr
        </CharString>
        <CharString name="uni0200">
          102 215 -82 callsubr
          -258 -732 -107 callsubr
          endchar
        </CharString>
        <CharString name="uni0201">
          -28 148 -85 callsubr
          -193 -568 -107 callgsubr
          endchar
        </CharString>
        <CharString name="uni0202">
          102 399 -71 callsubr
          -408 -646 -107 callsubr
          endchar
        </CharString>
        <CharString name="uni0203">
          -28 343 -70 callgsubr
          -163 -563 -107 callgsubr
          endchar
        </CharString>
        <CharString name="uni0204">
          55 222 -82 callsubr
          -207 -732 -106 callsubr
          endchar
        </CharString>
        <CharString name="uni0205">
          -52 148 -85 callsubr
          -127 -569 -103 callgsubr
          endchar
        </CharString>
        <CharString name="uni0206">
          55 406 -71 callsubr
          -357 -646 -106 callsubr
          endchar
        </CharString>
        <CharString name="uni0207">
          -52 343 -70 callgsubr
          -97 -564 -103 callgsubr
          endchar
        </CharString>
        <CharString name="uni0208">
          -150 89 -82 callsubr
          -71 -731 -90 callsubr
          endchar
        </CharString>
        <CharString name="uni0209">
          -222 56 -85 callsubr
          -256 -514 -80 callgsubr
        </CharString>
        <CharString name="uni020A">
          -150 273 -71 callsubr
          -221 -645 -90 callsubr
          endchar
        </CharString>
        <CharString name="uni020B">
          -222 251 -70 callgsubr
          -226 -509 -80 callgsubr
        </CharString>
        <CharString name="uni020C">
          179 254 -82 callsubr
          55 -794 -105 callgsubr
          endchar
        </CharString>
        <CharString name="uni020D">
          -13 156 -85 callsubr
          -139 -570 -104 callgsubr
          endchar
        </CharString>
        <CharString name="uni020E">
          179 438 -71 callsubr
          -95 -708 -105 callgsubr
          endchar
        </CharString>
        <CharString name="uni020F">
          -13 351 -70 callgsubr
          -109 -565 -104 callgsubr
          endchar
        </CharString>
        <CharString name="uni0210">
          96 212 -82 callsubr
          -197 -779 rmoveto
          -82 callgsubr
          endchar
        </CharString>
        <CharString name="uni0211">
          -144 77 -85 callsubr
          -275 -514 -67 callgsubr
        </CharString>
        <CharString name="uni0212">
          96 396 -71 callsubr
          -347 -693 rmoveto
          -82 callgsubr
          endchar
        </CharString>
        <CharString name="uni0213">
          -144 272 -70 callgsubr
          -245 -509 -67 callgsubr
        </CharString>
        <CharString name="uni0214">
          198 263 -82 callsubr
          -183 -195 -101 callsubr
          endchar
        </CharString>
        <CharString name="uni0215">
          50 178 -85 callsubr
          -166 -569 -106 callgsubr
          endchar
        </CharString>
        <CharString name="uni0216">
          198 447 -71 callsubr
          -333 -109 -101 callsubr
          endchar
        </CharString>
        <CharString name="uni0217">
          50 373 -70 callgsubr
          -136 -564 -106 callgsubr
          endchar
        </CharString>
        <CharString name="uni021A">
          31 143 hmoveto
          266 48 hlineto
          -25 callgsubr
          -81 -16 rlineto
          91 -243 -57 callgsubr
        </CharString>
        <CharString name="uni021B">
          -197 85 33 callsubr
          60 51 -1 hhcurveto
          -13 -52 callsubr
          136 -631 -57 callgsubr
        </CharString>
        <CharString name="uni0232">
          73 155 788 -36 callsubr
          -317 -740 -91 callgsubr
        </CharString>
        <CharString name="uni0232.loclGUA">
          185 532 788 rmoveto
          -336 hlineto
          -11 -65 rlineto
          336 hlineto
          -118 -75 -100 callgsubr
        </CharString>
        <CharString name="uni0233">
          -51 422 665 rmoveto
          -336 hlineto
          -11 -65 rlineto
          336 hlineto
          -119 -105 -98 callsubr
          endchar
        </CharString>
        <CharString name="uni0233.loclGUA">
          28 113 665 -36 callsubr
          -194 -831 -99 callgsubr
        </CharString>
        <CharString name="uni0237">
          -251 -11 -112 -27 callsubr
        </CharString>
        <CharString name="uni0259">
          -52 222 504 rmoveto
          -105 -64 -67 0 hvcurveto
          15 -33 rlineto
          0 43 24 80 112 37 -72 -92 vhcurveto
          -249 hlineto
          -35 -13 -17 -71 -91 45 -96 129 133 94 107 163 151 -74 94 -148 hvcurveto
          118 -292 rmoveto
          -99 -2 -30 -59 -78 hhcurveto
          -71 -18 40 72 13 1 13 2 12 hvcurveto
          endchar
        </CharString>
        <CharString name="uni0272">
          56 81 -166 rmoveto
          72 40 30 54 hvcurveto
          501 vlineto
          7 25 38 4 30 hhcurveto
          71 27 -22 -58 -7 callsubr
          90 -48 49 -87 -63 -70 -35 -15 -24 vhcurveto
          -2 2 -15 40 -156 -27 25 callgsubr
          -497 vlineto
          -107 -25 rlineto
          -42 vlineto
          -7 24 38 -5 30 hhcurveto
          endchar
        </CharString>
        <CharString name="uni02BC">
          -400 -6 callgsubr
          endchar
        </CharString>
        <CharString name="uni02C9">
          -170 12 665 -36 callsubr
          endchar
        </CharString>
        <CharString name="uni0302">
          -303 578 -102 callsubr
          endchar
        </CharString>
        <CharString name="uni0302.case">
          -318 715 -101 callgsubr
          endchar
        </CharString>
        <CharString name="uni03020300">
          -214 782 rmoveto
          -76 callsubr
          -121 -204 -102 callsubr
          endchar
        </CharString>
        <CharString name="uni03020300.case">
          26 811 rmoveto
          -77 callsubr
          -143 -177 -101 callgsubr
          endchar
        </CharString>
        <CharString name="uni03020301">
          -214 699 rmoveto
          -88 callgsubr
          -333 -240 -102 callsubr
          endchar
        </CharString>
        <CharString name="uni03020301.case">
          -88 811 -89 callsubr
          -207 -136 -101 callgsubr
          endchar
        </CharString>
        <CharString name="uni03020303">
          -330 -78 callsubr
          endchar
        </CharString>
        <CharString name="uni03020303.case">
          -81 -78 callgsubr
          endchar
        </CharString>
        <CharString name="uni03020309">
          -147 666 -103 callsubr
          -251 -88 -102 callsubr
          endchar
        </CharString>
        <CharString name="uni03020309.case">
          -64 797 -104 callsubr
          -254 -82 -101 callgsubr
          endchar
        </CharString>
        <CharString name="uni0304">
          -338 665 -36 callsubr
          endchar
        </CharString>
        <CharString name="uni0304.case">
          -336 788 -36 callsubr
          endchar
        </CharString>
        <CharString name="uni0306">
          -252 710 -46 callsubr
        </CharString>
        <CharString name="uni0306.case">
          -241 830 -3 callgsubr
        </CharString>
        <CharString name="uni03060300">
          -305 799 rmoveto
          -76 callsubr
          43 -89 -46 callsubr
        </CharString>
        <CharString name="uni03060300.case">
          -100 820 rmoveto
          -77 callsubr
          60 -71 -3 callgsubr
        </CharString>
        <CharString name="uni03060301">
          -214 716 rmoveto
          -88 callgsubr
          -155 -125 -46 callsubr
        </CharString>
        <CharString name="uni03060301.case">
          -191 820 -89 callsubr
          -27 -30 -3 callgsubr
        </CharString>
        <CharString name="uni03060303">
          -330 812 rmoveto
          -31 -49 26 -24 70 34 86 -26 rlineto
          -7 26 27 -7 21 hhcurveto
          27 23 12 23 15 hvcurveto
          31 50 -26 23 -70 -34 -86 26 rlineto
          6 -31 callsubr
          -24 -12 -23 -15 hvcurveto
          46 -102 -46 callsubr
        </CharString>
        <CharString name="uni03060303.case">
          -74 856 rmoveto
          25 24 7 26 19 hvcurveto
          37 47 -28 27 -77 -35 -86 27 rlineto
          7 -24 -22 5 -20 hhcurveto
          -26 -23 -7 -26 -20 hvcurveto
          -36 -47 28 -27 77 35 85 -27 rlineto
          -7 31 callgsubr
          -167 -26 -3 callgsubr
        </CharString>
        <CharString name="uni03060309">
          -190 683 -103 callsubr
          -72 27 -46 callsubr
        </CharString>
        <CharString name="uni03060309.case">
          -180 807 -104 callsubr
          -61 23 -3 callgsubr
        </CharString>
        <CharString name="uni0307">
          -69 -87 callsubr
          endchar
        </CharString>
        <CharString name="uni0307.case">
          -69 -49 callsubr
          endchar
        </CharString>
        <CharString name="uni0308">
          -277 571 -90 callgsubr
          endchar
        </CharString>
        <CharString name="uni0308.case">
          -283 689 -77 callgsubr
          endchar
        </CharString>
        <CharString name="uni030A">
          -188 630 -37 callgsubr
          endchar
        </CharString>
        <CharString name="uni030A.case">
          -189 733 rmoveto
          -56 33 -28 58 57 41 32 59 37 callsubr
          -35 -56 vhcurveto
          96 -39 rmoveto
          -34 -6 12 31 30 9 11 30 33 5 -13 -31 -28 -8 -12 -29 hvcurveto
          endchar
        </CharString>
        <CharString name="uni030B">
          -270 -19 callgsubr
        </CharString>
        <CharString name="uni030B.case">
          -337 675 rmoveto
          152 104 rlineto
          42 -9 5 callsubr
          -20 22 -21 hhcurveto
          -16 -13 -9 -23 -18 hvcurveto
          -85 -105 rlineto
          endchar
        </CharString>
        <CharString name="uni030C">
          -154 542 -85 callgsubr
          endchar
        </CharString>
        <CharString name="uni030C.case">
          -286 837 -74 callgsubr
          endchar
        </CharString>
        <CharString name="uni030F">
          -225 -85 callsubr
          endchar
        </CharString>
        <CharString name="uni030F.case">
          -216 -82 callsubr
          endchar
        </CharString>
        <CharString name="uni0311">
          -58 -70 callgsubr
          endchar
        </CharString>
        <CharString name="uni0311.case">
          -64 -71 callsubr
          endchar
        </CharString>
        <CharString name="uni031B">
          -217 314 rmoveto
          145 78 41 67 45 -47 callgsubr
          -51 -65 -50 -49 -29 vhcurveto
          endchar
        </CharString>
        <CharString name="uni0326">
          -93 -195 35 callgsubr
          -17 -17 -50 callgsubr
        </CharString>
        <CharString name="uni0327">
          -110 -189 rmoveto
          66 57 -22 callgsubr
          29 -43 vlineto
          -27 -61 21 -20 34 -40 callgsubr
        </CharString>
        <CharString name="uni0328">
          3 -12 callsubr
        </CharString>
        <CharString name="uni0335">
          -396 302 rmoveto
          347 63 -347 hlineto
          endchar
        </CharString>
        <CharString name="uni0336">
          -705 432 rmoveto
          657 62 -657 hlineto
          endchar
        </CharString>
        <CharString name="uni0394">
          -11 callgsubr
        </CharString>
        <CharString name="uni03A9">
          -49 callgsubr
        </CharString>
        <CharString name="uni03BC">
          -43 callgsubr
        </CharString>
        <CharString name="uni1E0C">
          186 49 hmoveto
          -83 callgsubr
          39 -241 -100 callsubr
        </CharString>
        <CharString name="uni1E0D">
          -50 callsubr
          11 -248 -100 callsubr
        </CharString>
        <CharString name="uni1E24">
          236 49 48 -58 callgsubr
          243 -246 -100 callsubr
        </CharString>
        <CharString name="uni1E25">
          63 22 hmoveto
          -64 callsubr
          266 -227 -100 callsubr
        </CharString>
        <CharString name="uni1E44">
          208 360 -49 callsubr
          -311 -693 rmoveto
          -79 callsubr
          endchar
        </CharString>
        <CharString name="uni1E45">
          64 288 -87 callsubr
          -263 -566 rmoveto
          -99 callsubr
          endchar
        </CharString>
        <CharString name="uni1E5A">
          96 49 hmoveto
          -82 callgsubr
          44 -514 -100 callsubr
        </CharString>
        <CharString name="uni1E5B">
          -144 27 45 -67 callsubr
          45 -241 -100 callsubr
        </CharString>
        <CharString name="uni1E62">
          1 251 -12 -97 callsubr
          5 -170 -100 callsubr
        </CharString>
        <CharString name="uni1E63">
          -99 45 156 -79 callgsubr
          114 -338 -100 callsubr
        </CharString>
        <CharString name="uni1E6C">
          -12 callgsubr
          47 -246 -100 callsubr
        </CharString>
        <CharString name="uni1E6D">
          -163 91 33 callsubr
          59 51 -1 hhcurveto
          -12 -52 callsubr
          177 -618 -100 callsubr
        </CharString>
        <CharString name="uni1E92">
          27 26 64 -61 callgsubr
          -108 -749 -100 callsubr
        </CharString>
        <CharString name="uni1E93">
          -79 18 hmoveto
          -84 callsubr
          199 -241 -100 callsubr
        </CharString>
        <CharString name="uni1E9E">
          214 495 -12 rmoveto
          97 99 63 128 117 -85 52 -108 9 hvcurveto
          9 vlineto
          145 204 rlineto
          64 vlineto
          17 -62 -97 11 -60 hhcurveto
          -210 -100 -129 -191 hvcurveto
          -278 vlineto
          -82 -16 rlineto
          -48 262 48 vlineto
          -77 16 rlineto
          306 vlineto
          140 43 85 146 39 41 -5 -9 36 vhcurveto
          -14 vlineto
          -144 -210 rlineto
          -64 40 vlineto
          111 64 -43 -92 -60 -26 -45 -64 -42 -29 19 11 -12 hvcurveto
          -16 101 rlineto
          -59 -153 hlineto
          -19 22 69 -24 59 hhcurveto
          endchar
        </CharString>
        <CharString name="uni1EA0">
          102 -9 47 -107 callsubr
          12 -674 -100 callsubr
        </CharString>
        <CharString name="uni1EA1">
          -28 180 -9 -107 callgsubr
          15 -243 -100 callsubr
        </CharString>
        <CharString name="uni1EA2">
          102 281 675 -104 callsubr
          -290 -628 -107 callsubr
          endchar
        </CharString>
        <CharString name="uni1EA3">
          -28 218 536 -103 callsubr
          -38 -545 -107 callgsubr
          endchar
        </CharString>
        <CharString name="uni1EA4">
          102 380 811 -89 callsubr
          -207 -136 -101 callgsubr
          -251 -743 -107 callsubr
          endchar
        </CharString>
        <CharString name="uni1EA5">
          -28 297 699 rmoveto
          -88 callgsubr
          -333 -240 -102 callsubr
          7 -693 -107 callgsubr
          endchar
        </CharString>
        <CharString name="uni1EA6">
          102 493 811 rmoveto
          -77 callsubr
          -143 -177 -101 callgsubr
          -250 -743 -107 callsubr
          endchar
        </CharString>
        <CharString name="uni1EA7">
          -28 204 782 rmoveto
          -76 callsubr
          -121 -204 -102 callsubr
          -7 -693 -107 callgsubr
          endchar
        </CharString>
        <CharString name="uni1EA8">
          102 398 797 -104 callsubr
          -254 -82 -101 callgsubr
          -245 -743 -107 callsubr
          endchar
        </CharString>
        <CharString name="uni1EA9">
          -28 322 666 -103 callsubr
          -251 -88 -102 callsubr
          5 -693 -107 callgsubr
          endchar
        </CharString>
        <CharString name="uni1EAA">
          102 387 -78 callgsubr
          -251 -743 -107 callsubr
          endchar
        </CharString>
        <CharString name="uni1EAB">
          -28 101 -78 callsubr
          -18 -693 -107 callgsubr
          endchar
        </CharString>
        <CharString name="uni1EAC">
          102 152 715 -101 callgsubr
          -253 -743 -107 callsubr
          12 -674 -100 callsubr
        </CharString>
        <CharString name="uni1EAD">
          -28 96 578 -102 callsubr
          -20 -693 -107 callgsubr
          15 -243 -100 callsubr
        </CharString>
        <CharString name="uni1EAE">
          102 265 820 -89 callsubr
          -27 -30 -93 callgsubr
          -224 -783 -107 callsubr
          endchar
        </CharString>
        <CharString name="uni1EAF">
          -28 197 716 rmoveto
          -88 callgsubr
          -155 -125 -95 callgsubr
          33 -719 -107 callgsubr
          endchar
        </CharString>
        <CharString name="uni1EB0">
          102 364 820 rmoveto
          -77 callsubr
          60 -71 -93 callgsubr
          -232 -783 -107 callsubr
          endchar
        </CharString>
        <CharString name="uni1EB1">
          -28 105 799 rmoveto
          -76 callsubr
          43 -89 -95 callgsubr
          32 -719 -107 callgsubr
          endchar
        </CharString>
        <CharString name="uni1EB2">
          102 283 807 -104 callsubr
          -61 23 -93 callgsubr
          -231 -783 -107 callsubr
          endchar
        </CharString>
        <CharString name="uni1EB3">
          -28 220 683 -103 callsubr
          -72 27 -95 callgsubr
          32 -719 -107 callgsubr
          endchar
        </CharString>
        <CharString name="uni1EB4">
          102 387 856 rmoveto
          25 24 7 26 19 hvcurveto
          37 47 -28 27 -77 -35 -86 27 rlineto
          7 -24 -22 5 -20 hhcurveto
          -26 -23 -7 -26 -20 hvcurveto
          -36 -47 28 -27 77 35 85 -27 rlineto
          -7 31 callgsubr
          -167 -26 -93 callgsubr
          -229 -783 -107 callsubr
          endchar
        </CharString>
        <CharString name="uni1EB5">
          -28 101 812 rmoveto
          -31 -49 26 -24 70 34 86 -26 rlineto
          -7 26 27 -7 21 hhcurveto
          27 23 12 23 15 hvcurveto
          31 50 -26 23 -70 -34 -86 26 rlineto
          6 -31 callsubr
          -24 -12 -23 -15 hvcurveto
          46 -102 -95 callgsubr
          33 -719 -107 callgsubr
          endchar
        </CharString>
        <CharString name="uni1EB6">
          102 222 830 -93 callgsubr
          -231 -783 -107 callsubr
          12 -674 -100 callsubr
        </CharString>
        <CharString name="uni1EB7">
          -28 149 710 -95 callgsubr
          31 -719 -107 callgsubr
          15 -243 -100 callsubr
        </CharString>
        <CharString name="uni1EB8">
          55 49 47 -106 callsubr
          153 -247 -100 callsubr
        </CharString>
        <CharString name="uni1EB9">
          -52 246 -10 -103 callgsubr
          -82 -472 -100 callsubr
        </CharString>
        <CharString name="uni1EBA">
          55 288 675 -104 callsubr
          -239 -628 -106 callsubr
          endchar
        </CharString>
        <CharString name="uni1EBB">
          -52 218 536 -103 callsubr
          28 -546 -103 callgsubr
          endchar
        </CharString>
        <CharString name="uni1EBC">
          55 394 -84 callgsubr
          -345 -652 -106 callsubr
          endchar
        </CharString>
        <CharString name="uni1EBD">
          -52 101 653 rmoveto
          10 callgsubr
          -92 callsubr
          145 -663 -103 callgsubr
          endchar
        </CharString>
        <CharString name="uni1EBE">
          55 387 811 -89 callsubr
          -207 -136 -101 callgsubr
          -200 -743 -106 callsubr
          endchar
        </CharString>
        <CharString name="uni1EBF">
          -52 297 699 rmoveto
          -88 callgsubr
          -333 -240 -102 callsubr
          73 -694 -103 callgsubr
          endchar
        </CharString>
        <CharString name="uni1EC0">
          55 500 811 rmoveto
          -77 callsubr
          -143 -177 -101 callgsubr
          -199 -743 -106 callsubr
          endchar
        </CharString>
        <CharString name="uni1EC1">
          -52 204 782 rmoveto
          -76 callsubr
          -121 -204 -102 callsubr
          59 -694 -103 callgsubr
          endchar
        </CharString>
        <CharString name="uni1EC2">
          55 405 797 -104 callsubr
          -254 -82 -101 callgsubr
          -194 -743 -106 callsubr
          endchar
        </CharString>
        <CharString name="uni1EC3">
          -52 322 666 -103 callsubr
          -251 -88 -102 callsubr
          71 -694 -103 callgsubr
          endchar
        </CharString>
        <CharString name="uni1EC4">
          55 394 -78 callgsubr
          -200 -743 -106 callsubr
          endchar
        </CharString>
        <CharString name="uni1EC5">
          -52 101 -78 callsubr
          48 -694 -103 callgsubr
          endchar
        </CharString>
        <CharString name="uni1EC6">
          55 159 715 -101 callgsubr
          -202 -743 -106 callsubr
          153 -247 -100 callsubr
        </CharString>
        <CharString name="uni1EC7">
          -52 96 578 -102 callsubr
          46 -694 -103 callgsubr
          -82 -472 -100 callsubr
        </CharString>
        <CharString name="uni1EC8">
          -150 155 675 -104 callsubr
          -103 -627 -90 callsubr
          endchar
        </CharString>
        <CharString name="uni1EC9">
          -222 126 536 -103 callsubr
          -101 -491 -80 callgsubr
        </CharString>
        <CharString name="uni1ECA">
          -150 52 48 -90 callsubr
          48 -246 -100 callsubr
        </CharString>
        <CharString name="uni1ECB">
          -21 callgsubr
          45 -241 -100 callsubr
        </CharString>
        <CharString name="uni1ECC">
          179 343 -15 -105 callgsubr
          -17 -232 -100 callsubr
        </CharString>
        <CharString name="uni1ECD">
          -13 242 -11 -104 callgsubr
          -11 -235 -100 callsubr
        </CharString>
        <CharString name="uni1ECE">
          179 320 675 -104 callsubr
          23 -690 -105 callgsubr
          endchar
        </CharString>
        <CharString name="uni1ECF">
          -13 226 536 -103 callsubr
          16 -547 -104 callgsubr
          endchar
        </CharString>
        <CharString name="uni1ED0">
          179 419 811 -89 callsubr
          -207 -136 -101 callgsubr
          62 -805 -105 callgsubr
          endchar
        </CharString>
        <CharString name="uni1ED1">
          -13 305 699 rmoveto
          -88 callgsubr
          -333 -240 -102 callsubr
          61 -695 -104 callgsubr
          endchar
        </CharString>
        <CharString name="uni1ED2">
          179 532 811 rmoveto
          -77 callsubr
          -143 -177 -101 callgsubr
          63 -805 -105 callgsubr
          endchar
        </CharString>
        <CharString name="uni1ED3">
          -13 212 782 rmoveto
          -76 callsubr
          -121 -204 -102 callsubr
          47 -695 -104 callgsubr
          endchar
        </CharString>
        <CharString name="uni1ED4">
          179 437 797 -104 callsubr
          -254 -82 -101 callgsubr
          68 -805 -105 callgsubr
          endchar
        </CharString>
        <CharString name="uni1ED5">
          -13 330 666 -103 callsubr
          -251 -88 -102 callsubr
          59 -695 -104 callgsubr
          endchar
        </CharString>
        <CharString name="uni1ED6">
          179 426 -78 callgsubr
          62 -805 -105 callgsubr
          endchar
        </CharString>
        <CharString name="uni1ED7">
          -13 109 -78 callsubr
          36 -695 -104 callgsubr
          endchar
        </CharString>
        <CharString name="uni1ED8">
          179 191 715 -101 callgsubr
          60 -805 -105 callgsubr
          -17 -232 -100 callsubr
        </CharString>
        <CharString name="uni1ED9">
          -13 104 578 -102 callsubr
          34 -695 -104 callgsubr
          -11 -235 -100 callsubr
        </CharString>
        <CharString name="uni1EDA">
          179 511 759 -8 callgsubr
          437 -20 -95 callsubr
        </CharString>
        <CharString name="uni1EDB">
          -13 410 8 callsubr
          332 -31 -93 callsubr
        </CharString>
        <CharString name="uni1EDC">
          179 400 678 rmoveto
          -77 callsubr
          548 -101 -95 callsubr
        </CharString>
        <CharString name="uni1EDD">
          -13 316 569 rmoveto
          -75 callsubr
          175 -117 rlineto
          281 -31 -93 callsubr
        </CharString>
        <CharString name="uni1EDE">
          179 338 786 rmoveto
          32 13 -7 -13 -15 -10 -9 -22 -9 hvcurveto
          -27 -12 -11 -11 -14 vvcurveto
          -6 2 -7 5 -8 vhcurveto
          56 2 -2 13 5 7 26 9 rlinecurve
          37 14 18 23 28 vvcurveto
          48 -49 25 -80 -54 -12 -13 -19 -9 3 -11 9 -14 vhcurveto
          5 20 22 3 19 hhcurveto
          409 -128 -95 callsubr
        </CharString>
        <CharString name="uni1EDF">
          -13 241 -62 callsubr
          326 -166 -93 callsubr
        </CharString>
        <CharString name="uni1EE0">
          179 274 -15 callsubr
          550 -45 -95 callsubr
        </CharString>
        <CharString name="uni1EE1">
          -13 174 613 rmoveto
          -92 callsubr
          -31 -51 26 -24 rlineto
          463 -74 -93 callsubr
        </CharString>
        <CharString name="uni1EE2">
          179 747 658 rmoveto
          -94 callsubr
          -34 -29 -34 -35 -27 vhcurveto
          80 -48 -83 46 -112 hhcurveto
          -206 -118 -153 -196 -206 105 -122 196 -63 callsubr
          65 -11 57 -21 47 hvcurveto
          93 62 29 52 38 vvcurveto
          -384 -608 rmoveto
          -133 -68 74 201 236 80 34 109 113 73 -55 -224 -176 -50 -90 -124 hvcurveto
          -11 -93 -20 callgsubr
        </CharString>
        <CharString name="uni1EE3">
          -13 567 504 rmoveto
          -94 callsubr
          -27 -18 -26 -23 -23 vhcurveto
          66 -34 -62 39 -94 -36 callgsubr
          163 75 125 149 38 -5 35 -9 30 hvcurveto
          77 56 24 47 35 vvcurveto
          -306 -451 rmoveto
          -104 -26 71 121 127 18 68 105 93 27 -61 -134 -120 -22 -72 -91 hvcurveto
          -5 -96 -20 callgsubr
        </CharString>
        <CharString name="uni1EE4">
          198 114 584 -101 callsubr
          323 -782 -100 callsubr
        </CharString>
        <CharString name="uni1EE5">
          50 237 -10 -106 callgsubr
          44 -172 -100 callsubr
        </CharString>
        <CharString name="uni1EE6">
          198 329 675 -104 callsubr
          -215 -91 -101 callsubr
          endchar
        </CharString>
        <CharString name="uni1EE7">
          50 248 536 -103 callsubr
          -11 -546 -106 callgsubr
          endchar
        </CharString>
        <CharString name="uni1EE8">
          198 319 678 -89 callsubr
          61 -733 -97 callgsubr
          endchar
        </CharString>
        <CharString name="uni1EE9">
          50 432 8 callsubr
          361 -31 -98 callgsubr
          endchar
        </CharString>
        <CharString name="uni1EEA">
          198 409 678 rmoveto
          -77 callsubr
          149 -774 -97 callgsubr
          endchar
        </CharString>
        <CharString name="uni1EEB">
          50 338 569 rmoveto
          -75 callsubr
          175 -117 rlineto
          310 -31 -98 callgsubr
          endchar
        </CharString>
        <CharString name="uni1EEC">
          198 329 675 -104 callsubr
          28 -690 -97 callgsubr
          endchar
        </CharString>
        <CharString name="uni1EED">
          50 263 -62 callsubr
          355 -166 -98 callgsubr
          endchar
        </CharString>
        <CharString name="uni1EEE">
          198 435 -84 callgsubr
          -78 -714 -97 callgsubr
          endchar
        </CharString>
        <CharString name="uni1EEF">
          50 196 613 rmoveto
          -92 callsubr
          -31 -51 26 -24 rlineto
          492 -74 -98 callgsubr
          endchar
        </CharString>
        <CharString name="uni1EF0">
          198 357 -15 -97 callgsubr
          -2 -167 -100 callsubr
        </CharString>
        <CharString name="uni1EF1">
          50 618 504 -98 callgsubr
          -331 -547 -20 callgsubr
        </CharString>
        <CharString name="uni1EF4">
          73 174 48 -91 callsubr
          48 -246 -100 callsubr
        </CharString>
        <CharString name="uni1EF5">
          -51 292 495 -98 callsubr
          -141 -538 -20 callgsubr
        </CharString>
        <CharString name="uni1EF6">
          73 288 675 -104 callsubr
          -114 -627 -91 callgsubr
        </CharString>
        <CharString name="uni1EF7">
          -51 236 -62 callsubr
          56 -175 -98 callsubr
          endchar
        </CharString>
        <CharString name="uni1EF8">
          73 394 -84 callgsubr
          -220 -651 -91 callgsubr
        </CharString>
        <CharString name="uni1EF8.loclGUA">
          185 283 -15 callsubr
          197 -55 -100 callgsubr
        </CharString>
        <CharString name="uni1EF9">
          -51 169 613 rmoveto
          -92 callsubr
          -31 -51 26 -24 rlineto
          193 -83 -98 callsubr
          endchar
        </CharString>
        <CharString name="uni1EF9.loclGUA">
          28 131 653 rmoveto
          10 callgsubr
          -92 callsubr
          124 -819 -99 callgsubr
        </CharString>
        <CharString name="uni20B2">
          72 345 332 rmoveto
          -47 vlineto
          74 -18 rlineto
          -180 vlineto
          -18 -30 -29 -8 -33 hhcurveto
          -121 -44 102 170 166 43 86 133 33 32 -5 -12 27 hvcurveto
          25 -110 rlineto
          56 164 hlineto
          -42 15 -63 14 -56 1 -5 105 rcurveline
          -62 hlineto
          -5 -111 rlineto
          -151 -28 -85 -127 -182 vvcurveto
          -171 76 -120 144 -18 vhcurveto
          5 -117 rlineto
          61 hlineto
          6 115 42 4 38 13 30 22 rlinecurve
          12 hlineto
          25 -27 rlineto
          40 259 hlineto
          43 11 rlineto
          52 vlineto
          endchar
        </CharString>
        <CharString name="uni20B2.osf">
          72 343 261 rmoveto
          -47 vlineto
          75 -19 rlineto
          -118 vlineto
          -16 -30 -27 -10 -52 hhcurveto
          -106 -41 66 144 135 43 69 120 60 36 -15 -2 6 hvcurveto
          27 -110 rlineto
          56 163 hlineto
          -22 11 -56 17 -82 3 -5 105 rcurveline
          -62 hlineto
          -5 -110 rlineto
          -148 -22 -88 -113 -143 vvcurveto
          -171 77 -84 144 -7 vhcurveto
          4 -104 rlineto
          61 hlineto
          5 107 50 6 30 17 21 14 rlinecurve
          12 hlineto
          30 -27 rlineto
          43 197 hlineto
          44 12 rlineto
          52 vlineto
          endchar
        </CharString>
        <CharString name="uni2113">
          -98 219 -12 rmoveto
          91 71 69 -1 hhcurveto
          -16 34 rlineto
          -1 -1 -54 -31 -49 hhcurveto
          -58 -17 13 79 hvcurveto
          52 vlineto
          83 57 118 103 113 vvcurveto
          82 -46 48 -74 -146 -29 -109 -139 vhcurveto
          -147 vlineto
          -74 -60 26 -41 48 32 rlineto
          -32 vlineto
          -87 34 -35 94 vhcurveto
          -34 289 rmoveto
          104 vlineto
          125 17 52 46 34 21 -29 -52 -67 -46 -71 -72 -62 vhcurveto
          endchar
        </CharString>
        <CharString name="uni2126">
          -49 callgsubr
        </CharString>
        <CharString name="uni2206">
          -11 callgsubr
        </CharString>
        <CharString name="uni2215">
          12 callgsubr
        </CharString>
        <CharString name="uni2219">
          -329 93 194 -21 callsubr
        </CharString>
        <CharString name="uniA78B">
          -388 18 647 1 callsubr
        </CharString>
        <CharString name="uniA78C">
          -388 18 705 1 callsubr
        </CharString>
        <CharString name="uogonek">
          50 416 -187 rmoveto
          34 43 21 30 25 hvcurveto
          -19 33 rlineto
          -13 -22 -21 -7 -13 hhcurveto
          -27 -14 14 27 26 24 33 35 27 hvcurveto
          89 12 rlineto
          44 vlineto
          -74 16 rlineto
          415 45 callgsubr
          -27 rlineto
          -44 vlineto
          82 -15 rlineto
          -333 vlineto
          -14 -25 -38 -10 -27 hhcurveto
          -78 -25 26 82 hvcurveto
          321 45 callgsubr
          -27 rlineto
          -44 vlineto
          82 -15 rlineto
          -290 vlineto
          -90 52 -49 96 50 57 21 30 32 vhcurveto
          5 3 18 -47 rlineto
          -46 -30 -25 -39 -41 vvcurveto
          -46 34 -28 54 vhcurveto
          endchar
        </CharString>
        <CharString name="uring">
          50 265 543 rmoveto
          65 35 42 51 50 -29 39 -64 -68 -33 -45 -50 -51 29 -36 65 hvcurveto
          4 44 rmoveto
          -27 -12 8 39 32 8 13 29 26 12 -8 -37 -33 -8 -14 -28 hvcurveto
          -32 -597 -106 callgsubr
          endchar
        </CharString>
        <CharString name="utilde">
          50 131 653 rmoveto
          10 callgsubr
          -92 callsubr
          106 -663 -106 callgsubr
          endchar
        </CharString>
        <CharString name="v">
          -53 35 434 rmoveto
          170 -440 rlineto
          64 hlineto
          165 438 56 15 rlineto
          48 -197 -48 vlineto
          63 -14 rlineto
          -15 vlineto
          -95 -263 -10 -48 -9 42 -95 270 rlineto
          15 vlineto
          63 12 rlineto
          49 -232 -48 vlineto
          endchar
        </CharString>
        <CharString name="w">
          224 195 -6 -86 callsubr
        </CharString>
        <CharString name="wacute">
          224 343 569 rmoveto
          -88 callgsubr
          -253 -694 -86 callsubr
        </CharString>
        <CharString name="wcircumflex">
          224 242 578 -102 callsubr
          -151 -690 -86 callsubr
        </CharString>
        <CharString name="wdieresis">
          224 282 571 -90 callgsubr
          -302 -577 -86 callsubr
        </CharString>
        <CharString name="wgrave">
          224 249 652 rmoveto
          -76 callsubr
          -54 -658 -86 callsubr
        </CharString>
        <CharString name="x">
          -22 -8 hmoveto
          212 45 hlineto
          -61 12 rlineto
          12 vlineto
          88 119 85 -124 rlineto
          -10 vlineto
          -48 -9 rlineto
          -45 238 45 vlineto
          -73 18 -136 200 129 171 58 15 rlineto
          46 -196 -48 vlineto
          55 -11 rlineto
          -12 vlineto
          -80 -108 -76 110 rlineto
          13 vlineto
          49 8 rlineto
          48 -236 -47 vlineto
          66 -17 129 -189 -137 -182 -66 -15 rlineto
          endchar
        </CharString>
        <CharString name="y">
          -51 292 495 -98 callsubr
          endchar
        </CharString>
        <CharString name="y.loclGUA">
          28 255 -166 -99 callgsubr
        </CharString>
        <CharString name="yacute">
          -41 380 652 rmoveto
          9 callsubr
          -105 -119 30 -34 rlineto
          87 -40 -98 callsubr
          endchar
        </CharString>
        <CharString name="yacute.loclGUA">
          28 227 569 rmoveto
          -88 callgsubr
          -77 -854 -99 callgsubr
        </CharString>
        <CharString name="ycircumflex">
          -51 244 623 rmoveto
          118 -81 37 39 -107 109 rlineto
          15 -15 -13 8 -12 hhcurveto
          -14 -48 callsubr
          -104 -106 29 -35 rlineto
          164 -48 -98 callsubr
          endchar
        </CharString>
        <CharString name="ycircumflex.loclGUA">
          28 126 578 -102 callsubr
          25 -850 -99 callgsubr
        </CharString>
        <CharString name="ydieresis">
          -41 144 571 -90 callgsubr
          -67 -76 -98 callsubr
          endchar
        </CharString>
        <CharString name="ydieresis.loclGUA">
          28 166 571 -90 callgsubr
          -126 -737 -99 callgsubr
        </CharString>
        <CharString name="yen">
          42 386 648 rmoveto
          -45 vlineto
          77 -16 rlineto
          -15 vlineto
          -136 -263 rlineto
          -13 hlineto
          -138 261 rlineto
          17 vlineto
          72 16 rlineto
          45 -252 -45 vlineto
          63 -16 121 -217 -94 -3 rlineto
          -52 vlineto
          127 -3 35 -63 -162 -4 rlineto
          -52 vlineto
          169 -4 rlineto
          -125 vlineto
          -81 -16 rlineto
          -32 callsubr
          125 vlineto
          174 2 rlineto
          52 vlineto
          -172 6 33 61 139 4 rlineto
          52 vlineto
          -106 3 118 217 32 callgsubr
          vlineto
          endchar
        </CharString>
        <CharString name="yen.osf">
          30 141 hmoveto
          266 48 hlineto
          -81 16 rlineto
          64 vlineto
          173 5 rlineto
          52 vlineto
          -173 4 1 8 31 54 141 4 rlineto
          53 vlineto
          -106 2 86 147 32 callgsubr
          -195 -45 vlineto
          52 -16 rlineto
          -17 vlineto
          -104 -182 rlineto
          -12 hlineto
          -91 182 rlineto
          17 vlineto
          49 16 rlineto
          45 -226 -45 vlineto
          62 -18 79 -145 -104 -3 rlineto
          -52 vlineto
          136 -3 33 -62 -169 -4 rlineto
          -53 vlineto
          171 -4 rlineto
          -66 vlineto
          -82 -16 rlineto
          endchar
        </CharString>
        <CharString name="ygrave">
          -51 311 569 rmoveto
          -75 callsubr
          175 -117 rlineto
          11 -40 -98 callsubr
          endchar
        </CharString>
        <CharString name="ygrave.loclGUA">
          28 133 652 rmoveto
          -76 callsubr
          122 -818 -99 callgsubr
        </CharString>
        <CharString name="z">
          -79 18 hmoveto
          -84 callsubr
          endchar
        </CharString>
        <CharString name="zacute">
          -86 163 535 rmoveto
          174 117 rlineto
          -73 callgsubr
          -105 -119 rlineto
          -114 -569 -39 callgsubr
          -12 -264 -364 rlineto
          endchar
        </CharString>
        <CharString name="zacute.loclPLK">
          -79 191 -41 callgsubr
          -248 -686 rmoveto
          -84 callsubr
          endchar
        </CharString>
        <CharString name="zcaron">
          -86 220 542 -65 callgsubr
          -36 -39 94 -44 callsubr
          -202 -542 -39 callgsubr
          -12 -264 -364 rlineto
          endchar
        </CharString>
        <CharString name="zdotaccent">
          -86 214 -87 callsubr
          -196 -566 -39 callgsubr
          -13 -264 -363 rlineto
          endchar
        </CharString>
        <CharString name="zero">
          77 -10 69 535 69 hstem
          46 110 284 110 vstem
          292 -11 rmoveto
          185 74 134 203 203 -56 134 -185 -185 -77 -134 -203 -203 58 -134 186 hvcurveto
          8 66 rmoveto
          -114 -28 98 173 173 28 97 114 114 28 -97 -173 -173 -28 -98 -114 hvcurveto
          endchar
        </CharString>
        <CharString name="zero.osf">
          67 294 -11 rmoveto
          154 100 110 161 149 -67 121 -187 -154 -101 -121 -149 -149 67 -122 188 hvcurveto
          -1 75 rmoveto
          -89 -55 70 125 129 42 68 102 90 55 -52 -145 -126 -39 -69 -106 hvcurveto
          endchar
        </CharString>
      <CharString index="0">
        rmoveto
        66 51 38 13 12 hvcurveto
        5 hlineto
        -24 5 10 -23 43 hhcurveto
        54 -76 callgsubr
        -95 -63 -144 -41 -85 -33 24 -17 29 25 13 8 0 vhcurveto
        15 92 rlineto
        0 22 7 35 63 28 -26 -56 vhcurveto
        -72 vlineto
        -95 -15 rlineto
        -111 -16 -64 -49 -85 vvcurveto
        -66 40 -60 103 vhcurveto
        47 70 rmoveto
        -58 -29 32 40 57 45 28 122 10 hvcurveto
        -149 vlineto
        -2 -4 -34 -16 -42 hhcurveto
        return
      </CharString>
      <CharString index="1">
        rmoveto
        51 59 22 31 31 hvcurveto
        -23 callgsubr
        415 45 callgsubr
        -27 rlineto
        -44 vlineto
        82 -15 rlineto
        -333 vlineto
        -14 -25 -38 -10 -27 hhcurveto
        -78 -25 26 82 hvcurveto
        321 45 callgsubr
        -27 rlineto
        -44 vlineto
        82 -15 rlineto
        -290 vlineto
        -90 52 -49 96 vhcurveto
        return
      </CharString>
      <CharString index="2">
        rmoveto
        -63 callsubr
        201 -106 124 -185 -206 -118 -153 -196 -206 105 -122 196 hvcurveto
        20 65 rmoveto
        -133 -68 74 201 236 80 34 109 113 73 -55 -224 -176 -50 -90 -124 hvcurveto
        return
      </CharString>
      <CharString index="3">
        rmoveto
        163 75 125 149 146 -70 97 -148 -155 -82 -126 -140 -153 70 -98 147 hvcurveto
        19 64 rmoveto
        -104 -26 71 121 127 18 68 105 93 27 -61 -134 -120 -22 -72 -91 hvcurveto
        return
      </CharString>
      <CharString index="4">
        rmoveto
        105 64 67 0 hvcurveto
        -15 33 rlineto
        0 -43 -24 -80 -112 -37 72 92 -13 callsubr
        35 13 17 71 91 -45 96 -129 -133 -94 -107 -163 -151 74 -94 148 -32 callgsubr
        30 59 78 hhcurveto
        71 18 -40 -72 -13 -1 -13 -2 -12 hvcurveto
        return
      </CharString>
      <CharString index="5">
        rmoveto
        66 52 38 13 11 hvcurveto
        6 hlineto
        -24 4 11 -23 43 hhcurveto
        53 -76 callgsubr
        -94 -63 -144 -41 -85 -33 23 -17 30 24 14 8 0 vhcurveto
        15 92 rlineto
        0 22 7 35 63 28 -26 -56 vhcurveto
        -72 vlineto
        -96 -15 rlineto
        -111 -16 -64 -49 -85 vvcurveto
        -66 41 -60 102 vhcurveto
        48 70 rmoveto
        -59 -28 32 40 57 44 28 123 -43 callsubr
      </CharString>
      <CharString index="6">
        rmoveto
        26 -38 130 -3 callsubr
        -13 -12 -35 -44 hvcurveto
        return
      </CharString>
      <CharString index="7">
        rmoveto
        -48 vlineto
        90 -17 rlineto
        -250 vlineto
        -38 -40 -45 -21 -54 hhcurveto
        -113 -24 80 120 hvcurveto
        110 -5 callsubr
        -124 vlineto
        -163 50 -93 172 60 49 14 30 48 vhcurveto
        -5 vlineto
        -112 -33 -86 -128 -47 -46 12 23 -43 vhcurveto
        -28 113 rlineto
        -54 -154 hlineto
        -34 63 74 -20 85 hhcurveto
        181 80 89 177 hvcurveto
        333 vlineto
        75 16 rlineto
        48 vlineto
        endchar
      </CharString>
      <CharString index="8">
        rmoveto
        150 71 73 154 hvcurveto
        430 45 callgsubr
        -27 rlineto
        -44 vlineto
        82 -15 rlineto
        -286 vlineto
        -14 -26 -36 -10 -28 hhcurveto
        -78 -25 26 82 hvcurveto
        274 45 callgsubr
        -27 rlineto
        -44 vlineto
        82 -15 rlineto
        -243 vlineto
        -90 52 -49 96 53 55 21 33 34 vhcurveto
        -38 vlineto
        -107 -41 -51 -85 -34 -34 6 11 -30 vhcurveto
        -28 105 rlineto
        -54 -146 hlineto
        -24 53 64 -13 65 hhcurveto
        endchar
      </CharString>
      <CharString index="9">
        rmoveto
        -94 callsubr
        -36 -32 -35 -36 -28 vhcurveto
        113 45 callgsubr
        -27 rlineto
        -44 vlineto
        82 -15 rlineto
        -333 vlineto
        -14 -25 -38 -10 -27 hhcurveto
        -78 -25 26 82 hvcurveto
        321 45 callgsubr
        -27 rlineto
        -44 vlineto
        82 -15 rlineto
        -290 vlineto
        -90 52 -49 96 51 59 22 31 31 vhcurveto
        -23 callgsubr
        263 vlineto
        109 67 33 58 40 vvcurveto
        return
      </CharString>
      <CharString index="10">
        rmoveto
        16 callgsubr
        hvcurveto
        304 vlineto
        134 39 29 63 31 -47 callgsubr
        -31 -15 -9 -49 vhcurveto
        -182 -49 hlineto
        81 -16 rlineto
        -305 vlineto
        -153 -34 -67 -117 -132 -35 44 176 vhcurveto
        6 callsubr
        vhcurveto
        return
      </CharString>
      <CharString index="11">
        rmoveto
        -183 vlineto
        -16 -32 -28 -10 -56 hhcurveto
        -140 -54 87 187 179 51 91 145 74 43 -15 -2 6 hvcurveto
        27 -110 rlineto
        56 164 hlineto
        11 -26 -70 19 -101 hhcurveto
        -203 -122 -152 -196 -224 101 -103 188 84 45 22 18 28 hvcurveto
        12 hlineto
        30 -27 rlineto
        43 262 hlineto
        44 11 rlineto
        52 -220 -47 vlineto
        endchar
      </CharString>
      <CharString index="12">
        rmoveto
        -58 -18 rlineto
        0 14 -140 144 142 10 149 0 vhcurveto
        -36 10 rlineto
        0 -13 -87 -96 -96 -11 86 0 vhcurveto
        return
      </CharString>
      <CharString index="13">
        rmoveto
        80 hlineto
        149 403 6 21 rlineto
        6 hlineto
        6 -19 159 -405 rlineto
        80 hlineto
        177 593 61 15 rlineto
        47 -225 -47 vlineto
        82 -15 -1 -17 -112 -410 -7 -29 rlineto
        -5 hlineto
        -8 29 -152 411 -2 16 78 15 rlineto
        47 -268 -47 vlineto
        72 -15 23 -63 -132 -364 -9 -30 rlineto
        -3 hlineto
        -8 30 -115 410 -2 17 77 15 rlineto
        47 -258 -47 vlineto
        63 -15 rlineto
        endchar
      </CharString>
      <CharString index="14">
        rmoveto
        -65 -26 rlineto
        0 21 -111 136 116 33 120 0 vhcurveto
        -35 15 rlineto
        0 -30 -64 -82 -71 -23 66 0 vhcurveto
        return
      </CharString>
      <CharString index="15">
        rmoveto
        -45 253 45 vlineto
        -76 14 rlineto
        428 vlineto
        -27 11 -150 -27 25 callgsubr
        -351 vlineto
        return
      </CharString>
      <CharString index="16">
        -91 callsubr
        endchar
      </CharString>
      <CharString index="17">
        rmoveto
        39 23 31 36 37 -23 23 -34 -87 callgsubr
        return
      </CharString>
      <CharString index="18">
        -132 -35 44 176 vhcurveto
        306 vlineto
        80 16 rlineto
        48 -265 -48 vlineto
        return
      </CharString>
      <CharString index="19">
        30 -34 175 117 rlineto
        -73 callgsubr
        return
      </CharString>
      <CharString index="20">
        -73 callsubr
        215 -88 callsubr
        return
      </CharString>
</ttFont>
